<svg xmlns="http://www.w3.org/2000/svg" xmlns:xlink="http://www.w3.org/1999/xlink" width="915.38" height="980.82" viewBox="0 0 915.38 980.82"><defs><linearGradient id="Névtelen_színátmenet_41" x1="-13178.52" y1="1356.78" x2="-12824.89" y2="1356.78" gradientTransform="matrix(-0.71, 0.71, 0.71, 0.71, -9960.54, 8530.28)" gradientUnits="userSpaceOnUse"><stop offset="0" stop-color="#9520ce"/><stop offset="0.42" stop-color="#6070d5"/><stop offset="0.82" stop-color="#30b7dc"/><stop offset="1" stop-color="#1ed3de"/></linearGradient><linearGradient id="Névtelen_színátmenet_2" x1="-13033.29" y1="1604.51" x2="-12575.35" y2="1604.51" gradientTransform="matrix(-0.71, 0.71, 0.71, 0.71, -9748.37, 8412.97)" gradientUnits="userSpaceOnUse"><stop offset="0" stop-color="#1ed3de"/><stop offset="0.02" stop-color="#20d5de"/><stop offset="0.38" stop-color="#33ece1"/><stop offset="0.71" stop-color="#3ffae3"/><stop offset="1" stop-color="#43ffe4"/></linearGradient><linearGradient id="Névtelen_színátmenet_66" x1="1340.54" y1="-7231.81" x2="1340.54" y2="-7354.36" gradientTransform="matrix(-0.71, -0.71, -0.71, 0.71, -4147.98, 6827.5)" gradientUnits="userSpaceOnUse"><stop offset="0" stop-color="#fff"/><stop offset="0.37" stop-color="#ffddf0"/><stop offset="0.77" stop-color="#ffbde1"/><stop offset="1" stop-color="#ffb1dc"/></linearGradient><linearGradient id="Névtelen_színátmenet_66-2" x1="958.37" y1="-7703.13" x2="958.37" y2="-7805.68" gradientTransform="matrix(-0.71, -0.71, -0.71, 0.71, -4362.2, 6422.17)" xlink:href="#Névtelen_színátmenet_66"/><linearGradient id="Névtelen_színátmenet_41-2" x1="-12837.87" y1="1319.52" x2="-12711.94" y2="1319.52" gradientTransform="matrix(-0.71, 0.71, 0.71, 0.71, -9810.72, 8623.5)" xlink:href="#Névtelen_színátmenet_41"/><linearGradient id="Névtelen_színátmenet_41-3" x1="-12503.53" y1="1955.98" x2="-12406.86" y2="1955.98" gradientTransform="matrix(-0.71, 0.71, 0.71, 0.71, -9398.82, 8266.34)" xlink:href="#Névtelen_színátmenet_41"/><linearGradient id="Névtelen_színátmenet_7" x1="-13294.15" y1="1470.23" x2="-13089.35" y2="1470.23" gradientTransform="matrix(-0.71, 0.71, 0.71, 0.71, -10061.74, 8394.35)" gradientUnits="userSpaceOnUse"><stop offset="0" stop-color="#ff5fd1"/><stop offset="0.05" stop-color="#ff66d2"/><stop offset="0.31" stop-color="#ff87d6"/><stop offset="0.56" stop-color="#ff9ed9"/><stop offset="0.8" stop-color="#ffacdb"/><stop offset="1" stop-color="#ffb1dc"/></linearGradient><linearGradient id="Névtelen_színátmenet_45" x1="-12532.1" y1="1725.04" x2="-12320.94" y2="1725.04" gradientTransform="matrix(-0.71, 0.71, 0.71, 0.71, -9445.92, 8438.4)" gradientUnits="userSpaceOnUse"><stop offset="0" stop-color="#fff"/><stop offset="0.15" stop-color="#c6f4f7"/><stop offset="0.31" stop-color="#93eaef"/><stop offset="0.46" stop-color="#69e2e9"/><stop offset="0.61" stop-color="#48dbe4"/><stop offset="0.75" stop-color="#31d7e1"/><stop offset="0.89" stop-color="#23d4df"/><stop offset="1" stop-color="#1ed3de"/></linearGradient><linearGradient id="Névtelen_színátmenet_7-2" x1="-13090.2" y1="1964.78" x2="-12960.45" y2="1964.78" gradientTransform="matrix(-0.71, 0.71, 0.71, 0.71, -9799.23, 8093.35)" xlink:href="#Névtelen_színátmenet_7"/><linearGradient id="Névtelen_színátmenet_45-2" x1="-13193.4" y1="1424.84" x2="-13068.74" y2="1424.84" gradientTransform="matrix(-0.71, 0.71, 0.71, 0.71, -10031.92, 8444.46)" xlink:href="#Névtelen_színátmenet_45"/><linearGradient id="Névtelen_színátmenet_7-3" x1="-12971.47" y1="1455.68" x2="-12841.72" y2="1455.68" gradientTransform="matrix(-0.71, 0.71, 0.71, 0.71, -9864.39, 8488.12)" xlink:href="#Névtelen_színátmenet_7"/><linearGradient id="Névtelen_színátmenet_41-4" x1="-13239.78" y1="1594.76" x2="-13141.83" y2="1594.76" gradientTransform="matrix(-0.71, 0.71, 0.71, 0.71, -10024.48, 8306.72)" xlink:href="#Névtelen_színátmenet_41"/><linearGradient id="Névtelen_színátmenet_41-5" x1="-13178.3" y1="1311.93" x2="-13081.63" y2="1311.93" gradientTransform="matrix(-0.71, 0.71, 0.71, 0.71, -10064.19, 8524.66)" xlink:href="#Névtelen_színátmenet_41"/><linearGradient id="Névtelen_színátmenet_41-6" x1="-12755.85" y1="1742.27" x2="-12657.91" y2="1742.27" gradientTransform="matrix(-0.71, 0.71, 0.71, 0.71, -9639.12, 8344.1)" xlink:href="#Névtelen_színátmenet_41"/><linearGradient id="Névtelen_színátmenet_66-3" x1="788.26" y1="-7140.06" x2="788.26" y2="-7262.62" gradientTransform="matrix(-0.71, -0.71, -0.71, 0.71, -3921.48, 6463.72)" xlink:href="#Névtelen_színátmenet_66"/></defs><g id="Layer_2" data-name="Layer 2"><g id="Layer_1-2" data-name="Layer 1"><rect x="67.45" y="171.1" width="250.06" height="250.06" transform="translate(-153.02 222.84) rotate(-45)" fill="url(#Névtelen_színátmenet_41)"/><rect x="278.31" y="331.61" width="323.81" height="323.81" transform="translate(-220.03 455.82) rotate(-45)" fill="url(#Névtelen_színátmenet_2)"/><rect x="18.1" y="679.24" width="86.35" height="86.97" transform="translate(-493.11 255.03) rotate(-45)" fill="url(#Névtelen_színátmenet_66)"/><rect x="407.32" y="225.02" width="72.25" height="72.77" transform="translate(-54.96 390.14) rotate(-45)" fill="url(#Névtelen_színátmenet_66-2)"/><rect x="110.25" y="478.85" width="89.95" height="88.15" transform="translate(-324.29 262.9) rotate(-45)" fill="url(#Névtelen_színátmenet_41-2)"/><rect x="757.5" y="808.46" width="68.36" height="68.36" transform="translate(-363.96 806.65) rotate(-45)" fill="url(#Névtelen_színátmenet_41-3)"/><rect x="233.97" y="33.23" width="143.92" height="145.72" transform="translate(14.59 247.4) rotate(-45)" fill="url(#Névtelen_színátmenet_7)"/><rect x="486.09" y="796.66" width="149.31" height="149.31" transform="translate(-451.88 651.71) rotate(-45)" fill="url(#Névtelen_színátmenet_45)"/><rect x="754.61" y="226.63" width="91.75" height="91.75" transform="translate(41.77 645.85) rotate(-45)" fill="url(#Névtelen_színátmenet_7-2)"/><rect x="556.32" y="556.79" width="248.26" height="248.48" transform="translate(-282.26 680.63) rotate(-45)" fill="#fff"/><rect x="216.47" y="122.69" width="88.15" height="88.15" transform="translate(-41.61 233.07) rotate(-45)" fill="url(#Névtelen_színátmenet_45-2)"/><rect x="245.5" y="345.36" width="91.75" height="91.75" transform="translate(-191.3 320.63) rotate(-45)" fill="url(#Névtelen_színátmenet_7-3)"/><rect x="396.28" y="71.95" width="68.36" height="70.16" transform="translate(50.39 335.73) rotate(-45)" fill="url(#Névtelen_színátmenet_41-4)"/><rect x="113.45" y="133.69" width="68.36" height="68.36" transform="translate(-75.46 153.55) rotate(-45)" fill="url(#Névtelen_színátmenet_41-5)"/><rect x="543.79" y="555.87" width="68.36" height="70.16" transform="translate(-248.58 581.78) rotate(-45)" fill="url(#Névtelen_színátmenet_41-6)"/><rect x="570.39" y="770.98" width="86.35" height="86.98" transform="translate(-396.22 672.46) rotate(-45)" fill="url(#Névtelen_színátmenet_66-3)"/><g opacity="0.7"><path d="M474.84,494.5a3.21,3.21,0,0,0,2.27-5.48L251.66,263.57a3.21,3.21,0,0,0-4.54,4.54L472.58,493.56A3.2,3.2,0,0,0,474.84,494.5Z" fill="#fff"/><path d="M458.56,510.78a3.21,3.21,0,0,0,2.27-5.47L235.38,279.86a3.21,3.21,0,0,0-4.54,4.53L456.29,509.84A3.19,3.19,0,0,0,458.56,510.78Z" fill="#fff"/><path d="M442.28,527.06a3.21,3.21,0,0,0,2.27-5.47L219.1,296.14a3.21,3.21,0,1,0-4.54,4.53L440,526.12A3.19,3.19,0,0,0,442.28,527.06Z" fill="#fff"/><path d="M426,543.34a3.21,3.21,0,0,0,2.26-5.47L202.81,312.42a3.2,3.2,0,0,0-4.53,4.53L423.73,542.4A3.19,3.19,0,0,0,426,543.34Z" fill="#fff"/><path d="M409.71,559.62a3.21,3.21,0,0,0,2.27-5.47L186.53,328.7a3.2,3.2,0,0,0-4.53,4.53L407.45,558.68A3.16,3.16,0,0,0,409.71,559.62Z" fill="#fff"/><path d="M393.43,575.91a3.21,3.21,0,0,0,2.27-5.48L170.25,345a3.21,3.21,0,0,0-4.53,4.54L391.17,575A3.2,3.2,0,0,0,393.43,575.91Z" fill="#fff"/><path d="M377.15,592.19a3.21,3.21,0,0,0,2.27-5.48L154,361.26a3.21,3.21,0,1,0-4.53,4.54L374.89,591.25A3.2,3.2,0,0,0,377.15,592.19Z" fill="#fff"/><path d="M360.87,608.47a3.21,3.21,0,0,0,2.27-5.48L137.69,377.55a3.21,3.21,0,0,0-4.54,4.53L358.6,607.53A3.19,3.19,0,0,0,360.87,608.47Z" fill="#fff"/><path d="M344.59,624.75a3.21,3.21,0,0,0,2.27-5.47L121.41,393.83a3.21,3.21,0,0,0-4.54,4.53L342.32,623.81A3.19,3.19,0,0,0,344.59,624.75Z" fill="#fff"/><path d="M328.31,641a3.21,3.21,0,0,0,2.26-5.47L105.12,410.11a3.2,3.2,0,0,0-4.53,4.53L326,640.09A3.19,3.19,0,0,0,328.31,641Z" fill="#fff"/><path d="M312,657.31a3.16,3.16,0,0,0,2.27-.94,3.2,3.2,0,0,0,0-4.53L88.84,426.39a3.2,3.2,0,1,0-4.53,4.53L309.76,656.37A3.16,3.16,0,0,0,312,657.31Z" fill="#fff"/><path d="M295.74,673.6a3.21,3.21,0,0,0,2.27-5.48L72.56,442.67A3.21,3.21,0,0,0,68,447.21L293.48,672.66A3.2,3.2,0,0,0,295.74,673.6Z" fill="#fff"/><path d="M279.46,689.88a3.21,3.21,0,0,0,2.27-5.48L56.28,459a3.21,3.21,0,0,0-4.54,4.54L277.2,688.94A3.2,3.2,0,0,0,279.46,689.88Z" fill="#fff"/><path d="M263.18,706.16a3.21,3.21,0,0,0,2.27-5.48L40,475.24a3.21,3.21,0,0,0-4.54,4.53L260.91,705.22A3.24,3.24,0,0,0,263.18,706.16Z" fill="#fff"/><path d="M246.9,722.44a3.21,3.21,0,0,0,2.27-5.47L23.71,491.52a3.2,3.2,0,1,0-4.53,4.53L244.63,721.5A3.19,3.19,0,0,0,246.9,722.44Z" fill="#fff"/></g><path d="M904.52,980.82,664.71,741a3.84,3.84,0,0,1,5.43-5.43L915.38,980.82Z" fill="#fff"/><path d="M865.51,980.82l-220.3-220.3a3.84,3.84,0,0,1,5.43-5.43L876.37,980.82Z" fill="#fff"/><path d="M826.51,980.82,625.71,780a3.84,3.84,0,1,1,5.43-5.44L837.37,980.82Z" fill="#fff"/><path d="M787.5,980.82,606.2,799.53a3.84,3.84,0,0,1,5.43-5.43L798.36,980.82Z" fill="#fff"/><path d="M748.49,980.82,586.7,819a3.84,3.84,0,0,1,5.43-5.43L759.36,980.82Z" fill="#fff"/><path d="M709.49,980.82,567.2,838.53a3.84,3.84,0,0,1,5.43-5.43L720.35,980.82Z" fill="#fff"/><path d="M670.49,980.82,547.7,858a3.84,3.84,0,1,1,5.43-5.44L681.35,980.82Z" fill="#fff"/><path d="M631.48,980.82,528.19,877.54a3.84,3.84,0,0,1,5.44-5.43L642.34,980.82Z" fill="#fff"/><path d="M592.47,980.82,508.69,897a3.84,3.84,0,0,1,5.43-5.43l89.22,89.21Z" fill="#fff"/><path d="M553.47,980.82l-64.28-64.28a3.84,3.84,0,0,1,5.43-5.43l69.71,69.71Z" fill="#fff"/><path d="M514.46,980.82l-44.77-44.77a3.84,3.84,0,1,1,5.43-5.44l50.21,50.21Z" fill="#fff"/><path d="M475.46,980.82l-25.28-25.27a3.84,3.84,0,0,1,5.43-5.43l30.71,30.7Z" fill="#fff"/><path d="M436.45,980.82l-5.77-5.77a3.84,3.84,0,0,1,5.43-5.43l11.21,11.2Z" fill="#fff"/><path d="M438.93,0,678.74,239.8a3.84,3.84,0,0,1-5.43,5.43L428.07,0Z" fill="#fff"/><path d="M477.94,0l220.3,220.3a3.84,3.84,0,0,1-5.43,5.43L467.07,0Z" fill="#fff"/><path d="M516.94,0l200.8,200.8a3.84,3.84,0,0,1-5.43,5.43L506.08,0Z" fill="#fff"/><path d="M556,0,737.24,181.3a3.84,3.84,0,0,1-5.43,5.43L545.09,0Z" fill="#fff"/><path d="M595,0l161.8,161.79a3.84,3.84,0,1,1-5.43,5.44L584.09,0Z" fill="#fff"/><path d="M634,0,776.25,142.29a3.84,3.84,0,1,1-5.43,5.43L623.1,0Z" fill="#fff"/><path d="M673,0,795.75,122.79a3.84,3.84,0,1,1-5.43,5.43L662.1,0Z" fill="#fff"/><path d="M712,0,815.25,103.29a3.84,3.84,0,1,1-5.43,5.43L701.11,0Z" fill="#fff"/><path d="M751,0l83.79,83.78a3.84,3.84,0,0,1-5.44,5.43L740.11,0Z" fill="#fff"/><path d="M790,0l64.28,64.28a3.84,3.84,0,1,1-5.43,5.43L779.12,0Z" fill="#fff"/><path d="M829,0l44.78,44.78a3.84,3.84,0,1,1-5.43,5.43L818.12,0Z" fill="#fff"/><path d="M868,0l25.27,25.28a3.84,3.84,0,1,1-5.43,5.43L857.13,0Z" fill="#fff"/><path d="M907,0l5.78,5.77a3.84,3.84,0,1,1-5.43,5.43L896.13,0Z" fill="#fff"/></g></g></svg>