<svg xmlns="http://www.w3.org/2000/svg" width="485.82" height="246.36" viewBox="0 0 485.82 246.36"><g id="Layer_2" data-name="Layer 2"><g id="Layer_1-2" data-name="Layer 1"><path d="M10.86,0,250.67,239.8a3.84,3.84,0,0,1-5.43,5.43L0,0Z" fill="#fff"/><path d="M49.87,0l220.3,220.3a3.84,3.84,0,1,1-5.43,5.43L39,0Z" fill="#fff"/><path d="M88.87,0l200.8,200.8a3.84,3.84,0,1,1-5.43,5.43L78,0Z" fill="#fff"/><path d="M127.88,0l181.3,181.3a3.84,3.84,0,1,1-5.43,5.43L117,0Z" fill="#fff"/><path d="M166.88,0l161.8,161.79a3.84,3.84,0,1,1-5.43,5.44L156,0Z" fill="#fff"/><path d="M205.89,0,348.18,142.29a3.84,3.84,0,1,1-5.43,5.43L195,0Z" fill="#fff"/><path d="M244.89,0,367.68,122.79a3.84,3.84,0,1,1-5.43,5.43L234,0Z" fill="#fff"/><path d="M283.9,0,387.18,103.29a3.84,3.84,0,1,1-5.43,5.43L273,0Z" fill="#fff"/><path d="M322.9,0l83.79,83.78a3.84,3.84,0,1,1-5.43,5.43L312,0Z" fill="#fff"/><path d="M361.91,0l64.28,64.28a3.84,3.84,0,1,1-5.43,5.43L351.05,0Z" fill="#fff"/><path d="M400.91,0l44.78,44.78a3.84,3.84,0,1,1-5.43,5.43L390.05,0Z" fill="#fff"/><path d="M439.92,0,465.2,25.28a3.84,3.84,0,1,1-5.43,5.43L429.06,0Z" fill="#fff"/><path d="M478.93,0l5.77,5.77a3.84,3.84,0,1,1-5.43,5.43L468.06,0Z" fill="#fff"/></g></g></svg>