<?xml version="1.0" encoding="UTF-8"?>
<svg id="Layer_1" data-name="Layer 1" xmlns="http://www.w3.org/2000/svg" viewBox="0 0 144 144">
  <defs>
    <style>
      .cls-1 {
        fill: #f7a29e;
      }
    </style>
  </defs>
  <path class="cls-1" d="m112.28,101.4v-63.71H34.82v63.71h29.81v2.54c0,3.93-3.2,7.13-7.13,7.13h-4.34v4.09h40.78v-4.09h-4.34c-3.93,0-7.13-3.2-7.13-7.13v-2.54h29.81ZM38.91,41.78h69.29v46.36h-5.08v-16.05h-4.59v-.25c0-4.31-2.52-8.29-6.43-10.14l-.28-.13.2-.25c1.26-1.59,1.93-3.5,1.93-5.53,0-4.92-4-8.92-8.92-8.92s-8.92,4-8.92,8.92c0,2.03.67,3.94,1.93,5.53l.2.25-.28.13c-3.9,1.85-6.43,5.83-6.43,10.14v.25h-14.26v-5.09h9.17v-17.84h-22.43v17.84h9.17v5.09h-9.17v16.05h-5.09v-46.36Zm43.82,22.93h4.59c3.93,0,7.13,3.2,7.13,7.13v.25h-18.84v-.25c0-3.93,3.2-7.13,7.13-7.13Zm-2.54-8.92c0-2.67,2.17-4.83,4.83-4.83s4.84,2.17,4.84,4.83-2.17,4.84-4.84,4.84-4.83-2.17-4.83-4.84Zm18.84,20.39v11.96h-50.95v-11.96h50.95Zm-50.95-13.26v-9.67h14.26v9.67h-14.26Zm18.09,48.15l.3-.4c1.47-1.96,2.25-4.28,2.25-6.73v-2.54h9.67v2.54c0,2.45.78,4.77,2.25,6.73l.3.4h-14.77Zm-27.26-13.76v-5.09h69.29v5.09H38.91Z"/>
</svg>