<?xml version="1.0" encoding="UTF-8"?>
<svg id="Layer_1" data-name="Layer 1" xmlns="http://www.w3.org/2000/svg" viewBox="0 0 1088.96 247.95">
  <defs>
    <style>
      .cls-1 {
        fill: #fff;
      }

      .cls-2 {
        fill: #999;
      }
    </style>
  </defs>
  <path class="cls-1" d="m71.28,225.9c-8.57,0-16.14-1.08-22.7-3.24-6.57-2.16-11.99-5.17-16.28-9.01-4.28-3.84-7.77-8.61-10.45-14.29-2.68-5.68-4.56-11.79-5.65-18.32-1.08-6.53-1.62-13.87-1.62-22.04v-69.43c0-8.65.56-16.32,1.68-23,1.12-6.68,3-12.89,5.65-18.62,2.64-5.72,6.11-10.43,10.39-14.11,4.28-3.68,9.69-6.57,16.22-8.65,6.53-2.08,14.11-3.12,22.76-3.12,9.93,0,18.42,1.32,25.46,3.96,7.05,2.64,12.61,6.53,16.7,11.65,4.08,5.13,7.05,11.11,8.89,17.96,1.84,6.85,2.76,14.83,2.76,23.96v17.06h-34.95v-16.94c0-9.93-.52-16.62-1.56-20.06-2.08-6.73-7.17-10.33-15.25-10.81h-1.92c-3.04,0-5.71.36-7.99,1.08s-4.14,1.86-5.59,3.42c-1.44,1.56-2.6,3.22-3.48,4.99-.88,1.76-1.54,4.07-1.98,6.91-.44,2.84-.72,5.46-.84,7.87s-.18,5.45-.18,9.13v84.32c0,11.69,1.46,20.02,4.38,24.98,2.92,4.97,8.15,7.45,15.68,7.45,2.56,0,4.82-.3,6.79-.9,1.96-.6,3.6-1.36,4.92-2.28,1.32-.92,2.44-2.24,3.36-3.96.92-1.72,1.62-3.32,2.1-4.8.48-1.48.84-3.54,1.08-6.19s.38-4.88.42-6.73c.04-1.84.06-4.36.06-7.57v-17.78h34.95v16.34c0,7.45-.52,14.13-1.56,20.06-1.04,5.93-2.82,11.49-5.35,16.7-2.52,5.21-5.79,9.53-9.79,12.97-4.01,3.44-9.13,6.15-15.38,8.11-6.25,1.96-13.49,2.94-21.74,2.94Z"/>
  <path class="cls-1" d="m204.37,225.9c-20.5,0-35.19-5.56-44.08-16.7-8.89-11.13-13.33-27.43-13.33-48.89v-73.51c0-10.57,1-19.74,3-27.51,2-7.77,5.23-14.49,9.67-20.18,4.44-5.68,10.39-9.95,17.84-12.79,7.45-2.84,16.41-4.26,26.91-4.26,20.42,0,35.09,5.49,44.02,16.46,8.93,10.97,13.39,27.07,13.39,48.29v73.51c0,10.41-1.02,19.56-3.06,27.45-2.04,7.89-5.29,14.73-9.73,20.54-4.45,5.81-10.39,10.19-17.84,13.15s-16.38,4.44-26.79,4.44Zm-9.07-28.47c2.52,1.04,5.54,1.56,9.07,1.56s6.53-.52,9.01-1.56c2.48-1.04,4.46-2.4,5.95-4.08s2.64-3.88,3.48-6.61c.84-2.72,1.4-5.44,1.68-8.17.28-2.72.42-5.96.42-9.73v-90.45c0-4.8-.24-8.81-.72-12.01-.48-3.2-1.42-6.23-2.82-9.07-1.4-2.84-3.5-4.96-6.31-6.37-2.8-1.4-6.37-2.1-10.69-2.1s-7.91.7-10.75,2.1c-2.84,1.4-4.95,3.53-6.31,6.37-1.36,2.84-2.28,5.87-2.76,9.07-.48,3.2-.72,7.21-.72,12.01v90.45c0,3.76.14,7.01.42,9.73.28,2.72.84,5.45,1.68,8.17.84,2.72,1.98,4.92,3.42,6.61s3.42,3.04,5.95,4.08Z"/>
  <path class="cls-1" d="m288.33,223.49V24.34h57.3c33.95,0,50.93,18.86,50.93,56.58,0,18.5-4.65,32.05-13.93,40.66-9.29,8.61-22.38,12.91-39.28,12.91h-18.74v89.01h-36.28Zm36.28-114.47h11.65c10.25,0,17.18-2.02,20.78-6.07,3.6-4.04,5.41-11.47,5.41-22.28,0-6.17-.24-10.93-.72-14.29s-1.6-6.43-3.36-9.19c-1.76-2.76-4.38-4.66-7.87-5.71-3.48-1.04-8.19-1.56-14.11-1.56h-11.77v59.1Z"/>
  <path class="cls-1" d="m443.89,223.49v-75.79l-40.6-123.36h33.87l24.62,79.28,23.54-79.28h33.51l-40.36,123.36v75.79h-34.59Z"/>
  <path class="cls-2" d="m565.44,223.49V51.13h-33.39v-26.79h101.98v26.79h-32.31v172.37h-36.28Z"/>
  <path class="cls-2" d="m649.88,223.49V24.34h45.64c10.49,0,19.5.86,27.03,2.58,7.53,1.72,14.07,4.61,19.64,8.65,5.56,4.04,9.73,9.53,12.49,16.46,2.76,6.93,4.14,15.4,4.14,25.4,0,12.49-1.86,22.7-5.58,30.63-3.72,7.93-9.87,13.69-18.44,17.3l27.63,98.14h-36.4l-23.78-90.93h-16.1v90.93h-36.28Zm36.28-114.11h8.77c10.73,0,18.36-2.28,22.88-6.85,4.52-4.56,6.79-12.37,6.79-23.42s-1.96-18.28-5.89-22.88c-3.92-4.6-11.13-6.91-21.62-6.91h-10.93v60.06Z"/>
  <path class="cls-2" d="m787.41,223.49V24.34h35.79v199.15h-35.79Z"/>
  <path class="cls-2" d="m853.84,223.49V24.34h48.77c9.21,0,17.24.82,24.08,2.46,6.85,1.64,12.93,4.37,18.26,8.17,5.32,3.8,9.35,9.07,12.07,15.79,2.72,6.73,4.04,14.86,3.96,24.38-.08,24.58-9.85,38.32-29.31,41.2,11.77,2.24,20.56,7.39,26.37,15.44,5.81,8.05,8.75,19.36,8.83,33.93.08,18.9-4.65,33.25-14.17,43.06-9.53,9.81-23.42,14.71-41.68,14.71h-57.18Zm36.28-117.96h11.29c10.65,0,17.98-2.28,21.98-6.85,4-4.56,6.01-12.25,6.01-23.06,0-5.6-.66-10.15-1.98-13.63-1.32-3.48-3.54-6.1-6.67-7.87-3.12-1.76-6.59-2.92-10.39-3.48-3.8-.56-8.87-.84-15.2-.84h-5.04v55.73Zm0,92.37h13.33c10.81,0,18.3-2.52,22.46-7.57,4.16-5.04,6.25-13.37,6.25-24.98s-2.34-20.72-7.03-26.12c-4.68-5.41-12.55-8.11-23.6-8.11h-11.41v66.79Z"/>
  <path class="cls-2" d="m990.41,223.49V24.34h83.36v25.58h-47.09v57.18h37.24v25.58h-37.24v65.7h47.69v25.1h-83.96Z"/>
</svg>