<svg xmlns="http://www.w3.org/2000/svg" viewBox="0 0 37.85 56.54"><defs><style>.cls-1{fill:#c7d1e0;}.cls-2{fill:#f9e2cb;}.cls-3{fill:#f16663;}.cls-4{fill:#f2e07b;}.cls-5{fill:#c2eb7a;}.cls-6{fill:#f68db8;}.cls-7{fill:#8f665d;}</style></defs><title>Middel 1</title><g id="Laag_2" data-name="Laag 2"><g id="Layer_1" data-name="Layer 1"><path class="cls-1" d="M22.81,37.34c10.74-2.68,10.8-3.8,10.8-13.41H0c0,9.6.07,10.72,10.8,13.41,4.8,1.2,4.8,2.4,4.8,9s-1.8,7.8-4.2,8.4-6,.6-6,1.8H28.21c0-1.2-3.6-1.2-6-1.8s-4.2-1.8-4.2-8.4S18,38.54,22.81,37.34Z"/><circle class="cls-2" cx="16.99" cy="12.64" r="9.6"/><path class="cls-2" d="M16.81,22.45h3.43c0-.12,0-.24,0-.37a9.89,9.89,0,1,0-19.79,0c0,.12,0,.24,0,.37Z"/><path class="cls-3" d="M8.29,17.39c2.48,1.86,7.55,2.19,9.59-.55s.3-7.5-2.18-9.36-4.91-.17-7,2.57S5.81,15.53,8.29,17.39Z"/><path class="cls-4" d="M14,8c.29.09.57,0,.61-.14s-.15-.38-.45-.47-.56,0-.61.14S13.68,8,14,8Z"/><path class="cls-4" d="M7.48,15.68c.13.28.36.45.53.38s.19-.34.07-.61-.37-.45-.53-.38S7.35,15.41,7.48,15.68Z"/><path class="cls-4" d="M11.44,15.67c.29.09.57,0,.61-.14s-.16-.38-.45-.47S11,15,11,15.2,11.15,15.58,11.44,15.67Z"/><ellipse class="cls-4" cx="13.09" cy="9.28" rx="0.31" ry="0.56" transform="translate(-1.93 14.92) rotate(-55.91)"/><path class="cls-4" d="M14.87,11.52c.29.09.56,0,.61-.15s-.16-.38-.45-.47-.56,0-.61.15S14.58,11.43,14.87,11.52Z"/><path class="cls-4" d="M9.11,15.21c.22.22.5.29.62.17s0-.39-.17-.61-.5-.29-.62-.17S8.89,15,9.11,15.21Z"/><path class="cls-4" d="M13.4,15.61c.21.23.48.32.61.21s.07-.39-.14-.62-.48-.32-.62-.21S13.19,15.39,13.4,15.61Z"/><path class="cls-4" d="M15.59,9.67c.3.06.56,0,.59-.21S16,9.1,15.68,9s-.56,0-.58.21S15.3,9.61,15.59,9.67Z"/><path class="cls-4" d="M11,13.38c.21.23.48.33.61.21s.07-.39-.13-.62-.48-.33-.61-.21S10.78,13.15,11,13.38Z"/><path class="cls-4" d="M13.06,13.14c.13.28.36.45.53.39s.2-.34.07-.61-.36-.45-.52-.39S12.94,12.87,13.06,13.14Z"/><path class="cls-4" d="M17.23,15.43c.2.24.47.34.6.24s.09-.38-.11-.62-.47-.34-.6-.24S17,15.19,17.23,15.43Z"/><path class="cls-4" d="M16.71,11.3c.15.27.4.42.56.34s.16-.36,0-.62-.4-.42-.56-.34S16.56,11,16.71,11.3Z"/><path class="cls-4" d="M9.95,17.3c.15.26.4.41.56.34s.16-.36,0-.62-.4-.42-.56-.34S9.8,17,9.95,17.3Z"/><path class="cls-4" d="M13.84,17.48c.15.26.4.41.56.34s.16-.36,0-.62-.4-.41-.56-.34S13.69,17.22,13.84,17.48Z"/><path class="cls-4" d="M15.39,15.29c.28.13.56.11.63,0s-.1-.4-.37-.53-.56-.11-.63,0S15.11,15.15,15.39,15.29Z"/><path class="cls-4" d="M15.3,13.21c.29.11.57.07.62-.1s-.13-.39-.42-.5-.56-.07-.62.1S15,13.1,15.3,13.21Z"/><ellipse class="cls-4" cx="17.42" cy="13.2" rx="0.31" ry="0.56" transform="translate(-2.97 21.08) rotate(-58.3)"/><ellipse class="cls-4" cx="12.16" cy="17.38" rx="0.31" ry="0.56" transform="translate(-9.01 18.66) rotate(-58.47)"/><path class="cls-4" d="M15.78,17.1c.26.17.55.18.64,0s0-.4-.31-.57-.54-.18-.64,0S15.51,16.94,15.78,17.1Z"/><path class="cls-5" d="M8.82,11.43C8.25,13.2,7.18,13.84,7,14.87a3.37,3.37,0,0,1,.48-3.14,8,8,0,0,1-1,.06A2.32,2.32,0,0,1,8.16,10c-.61-.52-1.36-1.3-1.32-2s1-.77,1-.6c-.2.83.68,1.85,1.17,2.36A3.61,3.61,0,0,1,10.19,7,2.52,2.52,0,0,1,10.46,8a6.89,6.89,0,0,1,2.63-.7,5.69,5.69,0,0,1-2.9,2.81h0c1.37-.72,1.85.22,3.11,1.17-1.52.29-2.11,1.11-3.7.21,1,1.19.4,2.52.92,3.57C8.09,13.83,8.44,12.57,8.82,11.43Z"/><path class="cls-6" d="M16.81,22.45H33.12c0-.12,0-.24,0-.37a9.89,9.89,0,1,0-19.79,0c0,.12,0,.24,0,.37Z"/><path class="cls-7" d="M36.86,9l.55-.47a2.22,2.22,0,0,1-1.14-.78c-.4-.47-.65-1.07-.37-1.31s.7.07,1,.45a.12.12,0,0,1,0,.17.12.12,0,0,1-.17,0c-.33-.38-.63-.47-.68-.43s0,.52.39,1,1,.79,1.16.67,0-.91-.61-1.61c-.79-.92-1.64-1.29-1.92-1.06S35,7,36,8.21A5.4,5.4,0,0,0,36.86,9Zm-1.34-.3a3.47,3.47,0,0,1-1.1-2.64l-7,6.07h0s0,.09,0,.14a9.94,9.94,0,0,1,4.28,3L37.85,10C37.31,10.11,36.54,9.9,35.52,8.7ZM30.2,2.47a5.37,5.37,0,0,0,1,.59l.43-.58A2.22,2.22,0,0,1,30.32,2c-.49-.37-.88-.9-.65-1.2s.7-.09,1.1.21a.12.12,0,0,1-.15.2c-.41-.3-.72-.32-.76-.26s.12.5.6.86c.63.47,1.17.55,1.28.4s-.21-.88-.95-1.43c-1-.72-1.89-.9-2.1-.6S28.95,1.55,30.2,2.47ZM29.71,3A3.45,3.45,0,0,1,28.06.67L24.58,5.3a9.57,9.57,0,0,1,2.7,5.06l5-6.65C31.77,4,31,3.93,29.71,3Z"/></g></g></svg>