<svg xmlns="http://www.w3.org/2000/svg" viewBox="0 0 19.79 51.18"><defs><style>.cls-1{fill:#f9e2cb;}.cls-2{fill:#f1ad66;}.cls-3{fill:#ed9940;}</style></defs><title>Middel 3</title><g id="Laag_2" data-name="Laag 2"><g id="Layer_1" data-name="Layer 1"><path class="cls-1" d="M2.57,16c.92,0,.92.6,1.84.6s.92-.6,1.84-.6.92.6,1.83.6S9,16,9.91,16s.92.6,1.83.6.91-.6,1.83-.6.92.6,1.83.6.91-.6,1.83-.6a1.53,1.53,0,0,1,.38,0,9.89,9.89,0,1,0-15.43,0A1.53,1.53,0,0,1,2.57,16Z"/><path class="cls-2" d="M15.87,22.32s-4.39,28.85-6,28.85-6-28.85-6-28.85Z"/><path class="cls-3" d="M16.33,18.55H3.46v2c0,3.8,4.72,3.36,6.44,3.36s6.44.43,6.44-3.36Z"/><path class="cls-2" d="M.73,17.79c.92,0,.92-.6,1.84-.6s.92.6,1.84.6.92-.6,1.84-.6.92.6,1.83.6.92-.6,1.83-.6.92.6,1.83.6.91-.6,1.83-.6.92.6,1.83.6.91-.6,1.83-.6.92.6,1.83.6v2c0,3.79-6.72,3.36-9.16,3.36S.73,23.61.73,19.82Z"/></g></g></svg>