<svg xmlns="http://www.w3.org/2000/svg" viewBox="0 0 28.98 57.31"><defs><style>.cls-1{fill:#f2c7a0;}.cls-2{fill:#f68db8;}.cls-3{fill:#f1ad66;}.cls-4{fill:#fff;}</style></defs><title>Middel 2</title><g id="Laag_2" data-name="Laag 2"><g id="Layer_1" data-name="Layer 1"><path class="cls-1" d="M10.94,23.76c1.11.46,2.51.25,3.6.73h0l.07,0c1.09-.47,2.49-.26,3.6-.73s1.93-1.59,3-2.1,2.53-.47,3.49-1.11,1.48-2,2.25-2.86a10.38,10.38,0,0,0,1.87-2.5,8.23,8.23,0,0,1-.55-1.35c-.14-.7.26-1.65-.09-2.36s-1.31-.91-1.76-1.55-.35-1.63-.86-2.2S24,7.11,23.5,6.59s-.64-1.56-1.21-2-1.6-.38-2.18-.8-.86-1.48-1.45-1.86S17,1.71,16.4,1.42C15.47.95,14.9,0,14.49,0s-1,.95-1.91,1.42c-.58.29-1.57,0-2.27.49S9.5,3.31,8.87,3.77s-1.6.31-2.18.8S6,6.08,5.48,6.6s-1.56.55-2.05,1.1S3,9.31,2.56,9.9s-1.44.9-1.76,1.55,0,1.66-.09,2.36A5.93,5.93,0,0,1,.24,15a9.27,9.27,0,0,0,2,2.7c.76.88,1.21,2.18,2.25,2.86s2.38.58,3.49,1.11S9.82,23.3,10.94,23.76Z"/><path class="cls-2" d="M15.44,24.22a13.87,13.87,0,0,0,2.76-.48c1.12-.46,1.93-1.59,3-2.1s2.53-.47,3.49-1.11,1.48-2,2.25-2.86a10.65,10.65,0,0,0,1.85-2.45c0-.08,0-.16,0-.25a9.89,9.89,0,1,0-13.36,9.26Z"/><path class="cls-3" d="M17.45,26.7c1.09.6,2.51.68,3.37,1.44s1.11,2.16,1.65,3.23c.44.9,1.61,2.15,1.9,3.34C26.61,26.19,28.45,18.35,29,16a8.54,8.54,0,0,1-2,2.86c-.76.88-1.21,2.18-2.25,2.86s-2.38.58-3.49,1.11-1.88,1.64-3,2.1a9.81,9.81,0,0,1-2.42.43A10.15,10.15,0,0,0,17.45,26.7Z"/><path class="cls-3" d="M23.08,39.39l-.06.24c-3.06,11-6.53,17.68-8.53,17.68C10.63,57.31,1.33,21.83,0,16a8.54,8.54,0,0,0,2,2.86c.76.88,1.21,2.18,2.25,2.86s2.38.58,3.49,1.11,1.88,1.64,3,2.1,2.51.25,3.6.73,1.9,1.65,2.91,2.21,2.5.68,3.37,1.44,1.12,2.16,1.65,3.23,1.48,2,1.54,3.29A14.93,14.93,0,0,1,23.08,39.39Z"/><path class="cls-4" d="M10.94,23.76c1.11.46,2.51.25,3.6.73l0,0,0,0c1.09-.47,2.49-.26,3.6-.73a21.77,21.77,0,0,0,2.68-1.92A9.89,9.89,0,1,0,1.69,17.12l.51.57c.76.88,1.21,2.18,2.25,2.86s2.38.58,3.49,1.11S9.82,23.3,10.94,23.76Z"/></g></g></svg>