<?xml version="1.0"?>
<svg xmlns="http://www.w3.org/2000/svg" xmlns:xlink="http://www.w3.org/1999/xlink" version="1.1" id="Capa_1" x="0px" y="0px" viewBox="0 0 559.464 559.464" style="enable-background:new 0 0 559.464 559.464;" xml:space="preserve" width="512px" height="512px"><g><g>
	<g>
		<g id="group-6svg">
			<path id="path-1_46_" d="M314.668,429.019h-48.477c-61.9,0-110.404-47.714-110.404-108.635c0-7.435,6.034-13.468,13.468-13.468     c7.434,0,13.468,6.034,13.468,13.468c0,45.81,36.661,81.69,83.467,81.69h48.477c46.807,0,83.467-35.089,83.467-79.885     c0-7.443,6.025-13.468,13.468-13.468c7.434,0,13.468,6.025,13.468,13.468C425.072,382.095,376.569,429.019,314.668,429.019z" data-original="#000000" class="active-path" data-old_color="#61bec0" fill="#61bec0"/>
			<path id="path-2_46_" d="M227.205,204.889c-3.448,0-6.896-1.32-9.527-3.951c-12.768-12.759-33.859-13.217-46.106-0.979     c-5.262,5.262-13.783,5.262-19.044,0s-5.262-13.792,0-19.053c22.555-22.555,61.11-22.115,84.195,0.988     c5.262,5.253,5.262,13.792,0,19.044C234.092,203.569,230.644,204.889,227.205,204.889z" data-original="#000000" class="active-path" data-old_color="#61bec0" fill="#61bec0"/>
			<path id="path-3_46_" d="M410.401,204.889c-3.448,0-6.896-1.32-9.527-3.951c-12.768-12.759-33.859-13.217-46.106-0.979     c-5.253,5.262-13.783,5.262-19.044,0c-5.253-5.262-5.253-13.792,0-19.053c22.555-22.555,61.11-22.115,84.195,0.988     c5.262,5.253,5.262,13.792,0,19.044C417.288,203.569,413.849,204.889,410.401,204.889z" data-original="#000000" class="active-path" data-old_color="#61bec0" fill="#61bec0"/>
			<path id="path-4_46_" d="M279.732,559.464c-154.212,0-279.664-125.488-279.664-279.727C0.067,125.488,125.511,0,279.732,0     c154.203,0,279.664,125.488,279.664,279.736C559.387,433.975,433.926,559.464,279.732,559.464z M279.732,26.946     c-139.352,0-252.728,113.403-252.728,252.791S140.38,532.527,279.732,532.527c139.361,0,252.728-113.403,252.728-252.791     S419.084,26.946,279.732,26.946z" data-original="#000000" class="active-path" data-old_color="#61bec0" fill="#61bec0"/>
		</g>
	</g>
</g></g> </svg>
