<svg xmlns="http://www.w3.org/2000/svg" xmlns:xlink="http://www.w3.org/1999/xlink" width="924" height="964" viewBox="0 0 924 964"><defs><linearGradient id="Névtelen_színátmenet_41" x1="-2434.68" y1="-1385.25" x2="-2087.48" y2="-1385.25" gradientTransform="matrix(0, -1, -1, 0, -659.43, -1587.92)" gradientUnits="userSpaceOnUse"><stop offset="0" stop-color="#9520ce"/><stop offset="0.42" stop-color="#6070d5"/><stop offset="0.82" stop-color="#30b7dc"/><stop offset="1" stop-color="#1ed3de"/></linearGradient><linearGradient id="Névtelen_színátmenet_2" x1="-2292.09" y1="-1139.19" x2="-1842.47" y2="-1139.19" gradientTransform="matrix(0, -1, -1, 0, -659.43, -1587.92)" gradientUnits="userSpaceOnUse"><stop offset="0" stop-color="#1ed3de"/><stop offset="0.02" stop-color="#20d5de"/><stop offset="0.38" stop-color="#33ece1"/><stop offset="0.71" stop-color="#3ffae3"/><stop offset="1" stop-color="#43ffe4"/></linearGradient><linearGradient id="Névtelen_színátmenet_66" x1="699.86" y1="544.13" x2="699.86" y2="423.8" gradientTransform="matrix(1, 0, 0, -1, 156.27, 738.28)" gradientUnits="userSpaceOnUse"><stop offset="0" stop-color="#fff"/><stop offset="0.37" stop-color="#ffddf0"/><stop offset="0.77" stop-color="#ffbde1"/><stop offset="1" stop-color="#ffb1dc"/></linearGradient><linearGradient id="Névtelen_színátmenet_66-2" x1="320.27" y1="81.37" x2="320.27" y2="-19.32" xlink:href="#Névtelen_színátmenet_66"/><linearGradient id="Névtelen_színátmenet_41-2" x1="-2100.23" y1="-1422.26" x2="-1976.58" y2="-1422.26" xlink:href="#Névtelen_színátmenet_41"/><linearGradient id="Névtelen_színátmenet_41-3" x1="-1771.96" y1="-790.08" x2="-1677.04" y2="-790.08" xlink:href="#Névtelen_színátmenet_41"/><linearGradient id="Névtelen_színátmenet_7" x1="-2548.21" y1="-1272.57" x2="-2347.13" y2="-1272.57" gradientTransform="matrix(0, -1, -1, 0, -659.43, -1587.92)" gradientUnits="userSpaceOnUse"><stop offset="0" stop-color="#ff5fd1"/><stop offset="0.05" stop-color="#ff66d2"/><stop offset="0.31" stop-color="#ff87d6"/><stop offset="0.56" stop-color="#ff9ed9"/><stop offset="0.8" stop-color="#ffacdb"/><stop offset="1" stop-color="#ffb1dc"/></linearGradient><linearGradient id="Névtelen_színátmenet_45" x1="-1800.01" y1="-1019.47" x2="-1592.69" y2="-1019.47" gradientTransform="matrix(0, -1, -1, 0, -659.43, -1587.92)" gradientUnits="userSpaceOnUse"><stop offset="0" stop-color="#fff"/><stop offset="0.15" stop-color="#c6f4f7"/><stop offset="0.31" stop-color="#93eaef"/><stop offset="0.46" stop-color="#69e2e9"/><stop offset="0.61" stop-color="#48dbe4"/><stop offset="0.75" stop-color="#31d7e1"/><stop offset="0.89" stop-color="#23d4df"/><stop offset="1" stop-color="#1ed3de"/></linearGradient><linearGradient id="Névtelen_színátmenet_7-2" x1="-2347.97" y1="-781.34" x2="-2220.58" y2="-781.34" xlink:href="#Névtelen_színátmenet_7"/><linearGradient id="Névtelen_színátmenet_45-2" x1="-2449.29" y1="-1317.65" x2="-2326.9" y2="-1317.65" xlink:href="#Névtelen_színátmenet_45"/><linearGradient id="Névtelen_színátmenet_7-3" x1="-2231.4" y1="-1287.02" x2="-2104.01" y2="-1287.02" xlink:href="#Névtelen_színátmenet_7"/><linearGradient id="Névtelen_színátmenet_41-4" x1="-2494.83" y1="-1148.87" x2="-2398.66" y2="-1148.87" xlink:href="#Névtelen_színátmenet_41"/><linearGradient id="Névtelen_színátmenet_41-5" x1="-2434.47" y1="-1429.8" x2="-2339.55" y2="-1429.8" xlink:href="#Névtelen_színátmenet_41"/><linearGradient id="Névtelen_színátmenet_41-6" x1="-2019.7" y1="-1002.35" x2="-1923.53" y2="-1002.35" xlink:href="#Névtelen_színátmenet_41"/><linearGradient id="Névtelen_színátmenet_66-3" x1="151.3" y1="634.21" x2="151.3" y2="513.88" xlink:href="#Névtelen_színátmenet_66"/></defs><g id="Layer_2" data-name="Layer 2"><g id="Layer_1-2" data-name="Layer 1"><rect x="267" width="657" height="964" fill="#e8bfd9"/><rect y="1" width="349.79" height="963" fill="#f8b6b5"/><polygon points="550.19 673.16 725.82 846.76 901.44 673.16 725.82 499.56 550.19 673.16" fill="url(#Névtelen_színátmenet_41)"/><polygon points="252.33 479.36 479.75 704.17 707.18 479.36 479.75 254.55 252.33 479.36" fill="url(#Névtelen_színátmenet_2)"/><polygon points="795.27 254.1 856.36 314.48 917 254.53 855.92 194.15 795.27 254.1" fill="url(#Névtelen_színátmenet_66)"/><polygon points="425.61 707.07 476.73 757.59 527.47 707.43 476.36 656.91 425.61 707.07" fill="url(#Névtelen_színátmenet_66-2)"/><polygon points="700.28 451.1 762.19 512.3 825.37 449.85 763.46 388.66 700.28 451.1" fill="url(#Névtelen_színátmenet_41-2)"/><polygon points="82.64 136.58 130.65 184.03 178.66 136.58 130.65 89.12 82.64 136.58" fill="url(#Névtelen_színátmenet_41-3)"/><polygon points="511.43 859.12 613.77 960.29 714.85 860.37 612.5 759.21 511.43 859.12" fill="url(#Névtelen_színátmenet_7)"/><polygon points="255.17 108.42 360.04 212.08 464.9 108.42 360.04 4.76 255.17 108.42" fill="url(#Névtelen_színátmenet_45)"/><polygon points="57.47 696.35 121.91 760.05 186.35 696.35 121.91 632.65 57.47 696.35" fill="url(#Névtelen_színátmenet_7-2)"/><polygon points="66.7 295.17 241.21 467.68 415.57 295.32 241.06 122.82 66.7 295.17" fill="#fff"/><polygon points="596.3 800.17 658.22 861.37 720.12 800.17 658.22 738.97 596.3 800.17" fill="url(#Névtelen_színátmenet_45-2)"/><polygon points="563.15 579.78 627.59 643.47 692.02 579.78 627.59 516.08 563.15 579.78" fill="url(#Névtelen_színátmenet_7-3)"/><polygon points="440.8 858.19 490.07 906.9 538.08 859.44 488.81 810.73 440.8 858.19" fill="url(#Névtelen_színátmenet_41-4)"/><polygon points="722.35 799.09 770.37 846.55 818.38 799.09 770.37 751.63 722.35 799.09" fill="url(#Névtelen_színátmenet_41-5)"/><polygon points="294.27 383.07 343.55 431.78 391.56 384.32 342.29 335.61 294.27 383.07" fill="url(#Névtelen_színátmenet_41-6)"/><polygon points="246.7 164.01 307.8 224.4 368.44 164.45 307.35 104.07 246.7 164.01" fill="url(#Névtelen_színátmenet_66-3)"/><g opacity="0.7"><path d="M445.36,478.39a3.16,3.16,0,0,0-2.25.93,3.11,3.11,0,0,0,0,4.45L667,705.12a3.21,3.21,0,0,0,4.5,0,3.11,3.11,0,0,0,0-4.45L447.61,479.32A3.18,3.18,0,0,0,445.36,478.39Z" fill="#fff"/><path d="M461.53,462.41a3.2,3.2,0,0,0-2.25.92,3.11,3.11,0,0,0,0,4.45L683.21,689.13a3.21,3.21,0,0,0,4.5,0,3.11,3.11,0,0,0,0-4.45L463.78,463.33A3.21,3.21,0,0,0,461.53,462.41Z" fill="#fff"/><path d="M477.7,446.42a3.21,3.21,0,0,0-2.25.92,3.14,3.14,0,0,0,0,4.46L699.38,673.15a3.22,3.22,0,0,0,4.51,0,3.13,3.13,0,0,0,0-4.45L480,447.34A3.2,3.2,0,0,0,477.7,446.42Z" fill="#fff"/><path d="M493.87,430.44a3.17,3.17,0,0,0-2.25.92,3.13,3.13,0,0,0,0,4.45L715.55,657.16a3.22,3.22,0,0,0,4.51,0,3.13,3.13,0,0,0,0-4.45L496.13,431.36A3.19,3.19,0,0,0,493.87,430.44Z" fill="#fff"/><path d="M510.05,414.45a3.24,3.24,0,0,0-2.26.92,3.13,3.13,0,0,0,0,4.45L731.73,641.18a3.21,3.21,0,0,0,4.5,0,3.13,3.13,0,0,0,0-4.45L512.3,415.37A3.21,3.21,0,0,0,510.05,414.45Z" fill="#fff"/><path d="M526.22,398.46a3.16,3.16,0,0,0-2.25.93,3.11,3.11,0,0,0,0,4.45L747.9,625.19a3.21,3.21,0,0,0,4.5,0,3.13,3.13,0,0,0,0-4.45L528.47,399.39A3.18,3.18,0,0,0,526.22,398.46Z" fill="#fff"/><path d="M542.39,382.48a3.2,3.2,0,0,0-2.25.92,3.11,3.11,0,0,0,0,4.45L764.07,609.21a3.21,3.21,0,0,0,4.5,0,3.12,3.12,0,0,0,0-4.46L544.64,383.4A3.21,3.21,0,0,0,542.39,382.48Z" fill="#fff"/><path d="M558.56,366.49a3.18,3.18,0,0,0-2.25.93,3.13,3.13,0,0,0,0,4.45L780.24,593.22a3.21,3.21,0,0,0,4.5,0,3.11,3.11,0,0,0,0-4.45L560.81,367.42A3.16,3.16,0,0,0,558.56,366.49Z" fill="#fff"/><path d="M574.73,350.51a3.21,3.21,0,0,0-2.25.92,3.13,3.13,0,0,0,0,4.45L796.41,577.23a3.22,3.22,0,0,0,4.51,0,3.13,3.13,0,0,0,0-4.45L577,351.43A3.2,3.2,0,0,0,574.73,350.51Z" fill="#fff"/><path d="M590.91,334.52a3.24,3.24,0,0,0-2.26.92,3.14,3.14,0,0,0,0,4.46L812.59,561.25a3.21,3.21,0,0,0,4.5,0,3.13,3.13,0,0,0,0-4.45L593.16,335.44A3.21,3.21,0,0,0,590.91,334.52Z" fill="#fff"/><path d="M607.08,318.54a3.15,3.15,0,0,0-2.25.92,3.11,3.11,0,0,0,0,4.45L828.76,545.26a3.21,3.21,0,0,0,4.5,0,3.11,3.11,0,0,0,0-4.45L609.33,319.46A3.17,3.17,0,0,0,607.08,318.54Z" fill="#fff"/><path d="M623.25,302.55a3.21,3.21,0,0,0-2.25.92,3.11,3.11,0,0,0,0,4.45L844.93,529.28a3.21,3.21,0,0,0,4.5,0,3.11,3.11,0,0,0,0-4.45L625.5,303.47A3.21,3.21,0,0,0,623.25,302.55Z" fill="#fff"/><path d="M639.42,286.57a3.17,3.17,0,0,0-2.25.92,3.13,3.13,0,0,0,0,4.45L861.1,513.29a3.22,3.22,0,0,0,4.51,0,3.13,3.13,0,0,0,0-4.45L641.67,287.49A3.15,3.15,0,0,0,639.42,286.57Z" fill="#fff"/><path d="M655.59,270.58a3.21,3.21,0,0,0-2.25.92,3.13,3.13,0,0,0,0,4.45L877.27,497.31a3.22,3.22,0,0,0,4.51,0,3.14,3.14,0,0,0,0-4.46L657.84,271.5A3.2,3.2,0,0,0,655.59,270.58Z" fill="#fff"/><path d="M671.77,254.59a3.2,3.2,0,0,0-2.26.93,3.13,3.13,0,0,0,0,4.45L893.45,481.32a3.21,3.21,0,0,0,4.5,0,3.13,3.13,0,0,0,0-4.45L674,255.52A3.18,3.18,0,0,0,671.77,254.59Z" fill="#fff"/></g><path d="M18.57.9l238.2,235.45a3.74,3.74,0,0,1,0,5.33,3.84,3.84,0,0,1-5.4,0L7.79.9Z" fill="#fff"/><path d="M57.32.9,276.14,217.2a3.74,3.74,0,0,1,0,5.33,3.84,3.84,0,0,1-5.4,0L46.53.9Z" fill="#fff"/><path d="M96.06.9,295.51,198.05a3.75,3.75,0,0,1,0,5.34,3.86,3.86,0,0,1-5.4,0L85.27.9Z" fill="#fff"/><path d="M134.8.9l180.08,178a3.74,3.74,0,0,1,0,5.33,3.85,3.85,0,0,1-5.39,0L124,.9Z" fill="#fff"/><path d="M173.55.9l160.7,158.86a3.74,3.74,0,0,1,0,5.33,3.85,3.85,0,0,1-5.39,0L162.76.9Z" fill="#fff"/><path d="M212.29.9,353.62,140.61a3.74,3.74,0,0,1,0,5.33,3.83,3.83,0,0,1-5.39,0L201.5.9Z" fill="#fff"/><path d="M251,.9,373,121.46a3.74,3.74,0,0,1,0,5.33,3.83,3.83,0,0,1-5.39,0L240.24.9Z" fill="#fff"/><path d="M289.77.9,392.36,102.31a3.75,3.75,0,0,1,0,5.34,3.85,3.85,0,0,1-5.39,0L279,.9Z" fill="#fff"/><path d="M328.52.9l83.21,82.27a3.74,3.74,0,0,1,0,5.33,3.85,3.85,0,0,1-5.39,0L317.73.9Z" fill="#fff"/><path d="M367.26.9,431.11,64a3.74,3.74,0,0,1,0,5.33,3.86,3.86,0,0,1-5.4,0L356.47.9Z" fill="#fff"/><path d="M406,.9l44.48,44a3.74,3.74,0,0,1,0,5.33,3.86,3.86,0,0,1-5.4,0L395.21.9Z" fill="#fff"/><path d="M444.74.9l25.11,24.82a3.74,3.74,0,0,1,0,5.33,3.83,3.83,0,0,1-5.39,0L434,.9Z" fill="#fff"/><path d="M483.49.9l5.73,5.67a3.74,3.74,0,0,1,0,5.33,3.83,3.83,0,0,1-5.39,0L472.7.9Z" fill="#fff"/><path d="M481,963.9,242.84,728.46a3.74,3.74,0,0,1,0-5.33,3.83,3.83,0,0,1,5.39,0L491.82,963.9Z" fill="#fff"/><path d="M442.28,963.9,223.46,747.61a3.75,3.75,0,0,1,0-5.34,3.86,3.86,0,0,1,5.4,0L453.07,963.9Z" fill="#fff"/><path d="M403.54,963.9,204.09,766.76a3.77,3.77,0,0,1,0-5.34,3.86,3.86,0,0,1,5.4,0L414.33,963.9Z" fill="#fff"/><path d="M364.8,963.9l-180.08-178a3.74,3.74,0,0,1,0-5.33,3.86,3.86,0,0,1,5.4,0L375.59,963.9Z" fill="#fff"/><path d="M326.05,963.9,165.35,805.05a3.74,3.74,0,0,1,0-5.33,3.85,3.85,0,0,1,5.39,0L336.84,963.9Z" fill="#fff"/><path d="M287.31,963.9,146,824.2a3.74,3.74,0,0,1,0-5.33,3.84,3.84,0,0,1,5.4,0l146.72,145Z" fill="#fff"/><path d="M248.57,963.9l-122-120.55a3.74,3.74,0,0,1,0-5.33,3.83,3.83,0,0,1,5.39,0L259.36,963.9Z" fill="#fff"/><path d="M209.83,963.9,107.24,862.5a3.75,3.75,0,0,1,0-5.34,3.85,3.85,0,0,1,5.39,0l108,106.74Z" fill="#fff"/><path d="M171.09,963.9,87.87,881.64a3.74,3.74,0,0,1,0-5.33,3.85,3.85,0,0,1,5.39,0l88.61,87.59Z" fill="#fff"/><path d="M132.34,963.9,68.5,900.79a3.72,3.72,0,0,1,0-5.33,3.85,3.85,0,0,1,5.39,0l69.24,68.44Z" fill="#fff"/><path d="M93.6,963.9l-44.48-44a3.74,3.74,0,0,1,0-5.33,3.84,3.84,0,0,1,5.4,0l49.87,49.29Z" fill="#fff"/><path d="M54.86,963.9,29.75,939.09a3.74,3.74,0,0,1,0-5.33,3.84,3.84,0,0,1,5.4,0l30.5,30.14Z" fill="#fff"/><path d="M16.11,963.9l-5.73-5.66a3.75,3.75,0,0,1,0-5.34,3.85,3.85,0,0,1,5.39,0l11.13,11Z" fill="#fff"/></g></g></svg>