<svg xmlns="http://www.w3.org/2000/svg" width="362.51" height="102.83" viewBox="0 0 362.51 102.83"><g id="Layer_2" data-name="Layer 2"><g id="nav"><g opacity="0.5"><path d="M345.37,68.55H326.78a17.13,17.13,0,0,1-17.14-17.13h0a17.14,17.14,0,0,1,17.14-17.14h18.59a17.14,17.14,0,0,1,17.14,17.14h0A17.13,17.13,0,0,1,345.37,68.55Z" fill="#fff" fill-rule="evenodd"/><path d="M89.34,17.14h0A17.14,17.14,0,0,1,106.48,0H216.06A17.14,17.14,0,0,1,233.2,17.14h0a17.14,17.14,0,0,0,17.14,17.14H266a17.14,17.14,0,0,1,17.14,17.14h0A17.14,17.14,0,0,1,266,68.55H217a17.15,17.15,0,0,0-17.14,17.14h0a17.14,17.14,0,0,1-17.14,17.14H70.14A17.14,17.14,0,0,1,53,85.69h0A17.14,17.14,0,0,0,35.86,68.55H17.14A17.13,17.13,0,0,1,0,51.42H0A17.14,17.14,0,0,1,17.14,34.28H72.2A17.14,17.14,0,0,0,89.34,17.14Z" fill="#fff" fill-rule="evenodd"/></g></g></g></svg>