<?xml version="1.0" encoding="UTF-8"?>
<svg id="Layer_1" data-name="Layer 1" xmlns="http://www.w3.org/2000/svg" viewBox="0 0 482.04 484.3">
  <defs>
    <style>
      .cls-1 {
        fill: none;
        stroke: #ffaaa6;
        stroke-linecap: round;
        stroke-linejoin: round;
        stroke-width: 9px;
      }
    </style>
  </defs>
  <path class="cls-1" d="m292.27,65.75c55.59,16.11,100.48,57.22,121.41,111.18"/>
  <path class="cls-1" d="m67.89,176.97c20.92-53.96,65.8-95.08,121.38-111.22"/>
  <path class="cls-1" d="m292.73,421.72c66.24-19.4,116.24-73.96,129.81-141.63"/>
  <path class="cls-1" d="m59.03,280.08c13.56,67.68,63.56,122.24,129.8,141.64"/>
  <path class="cls-1" d="m439.08,215.89c0,7.51-6.02,13.64-13.53,13.77h-.25c-7.61,0-13.78-6.17-13.78-13.78s6.17-13.78,13.78-13.78,13.78,6.17,13.78,13.78h0Z"/>
  <path class="cls-1" d="m425.56,229.66h.74c13.25,0,24,10.75,24,24h-50c0-13.25,10.75-24,24-24h1"/>
  <path class="cls-1" d="m436.05,176.73c-3.53-.75-7.14-1.13-10.75-1.12-28.87,0-52.28,23.41-52.28,52.28s23.41,52.28,52.28,52.28h1.88c28.85-1.06,51.39-25.31,50.33-54.16-.88-23.98-17.98-44.29-41.46-49.24v-.04Z"/>
  <circle class="cls-1" cx="240.78" cy="42.88" r="13.78"/>
  <path class="cls-1" d="m215.77,80.67h0c0-13.25,10.75-24,24-24h2c13.25,0,24,10.75,24,24h0"/>
  <path class="cls-1" d="m251.53,5.62c-3.53-.75-7.14-1.13-10.75-1.12-28.87.4-51.95,24.13-51.55,53,.39,28.31,23.24,51.16,51.55,51.55h1.88c28.85-1.06,51.39-25.31,50.33-54.16-.88-23.98-17.98-44.29-41.46-49.24v-.03Z"/>
  <path class="cls-1" d="m108.34,227.88c.01,28.15-22.27,51.26-50.4,52.27h-1.88c-28.87-.4-51.95-24.13-51.55-53,.39-28.31,23.24-51.16,51.55-51.55,3.62,0,7.22.37,10.76,1.12l1.07.24c23.68,5.5,40.45,26.61,40.45,50.92Z"/>
  <line class="cls-1" x1="56.01" y1="226.83" x2="56" y2="226.83"/>
  <path class="cls-1" d="m81.07,250.83c0-13.25-10.75-24-24-24h-2c-13.25,0-24,10.75-24,24h50Z"/>
  <circle class="cls-1" cx="55.28" cy="213.05" r="13.78"/>
  <path class="cls-1" d="m251.53,376.36c-3.53-.75-7.14-1.12-10.75-1.11-28.87.4-51.95,24.13-51.55,53,.39,28.31,23.24,51.16,51.55,51.55h1.88c28.85-1.06,51.39-25.31,50.33-54.16-.88-23.98-17.98-44.29-41.46-49.24v-.04Z"/>
  <circle class="cls-1" cx="240.78" cy="415.52" r="13.78"/>
  <path class="cls-1" d="m215.77,453.31h0c0-13.25,10.75-24,24-24h2c13.25,0,24,10.75,24,24h0"/>
  <circle class="cls-1" cx="240.78" cy="217.35" r="23.76" transform="translate(-12.33 420.2) rotate(-80.78)"/>
  <path class="cls-1" d="m197.68,282.51h0c0-22.86,18.54-41.39,41.4-41.4h3.44c22.86,0,41.39,18.54,41.39,41.4h0"/>
  <circle class="cls-1" cx="240.78" cy="244.67" r="77.53"/>
  <line class="cls-1" x1="197.66" y1="282.51" x2="283.89" y2="282.51"/>
  <line class="cls-1" x1="215.77" y1="80.67" x2="265.79" y2="80.67"/>
  <line class="cls-1" x1="215.77" y1="453.31" x2="265.79" y2="453.31"/>
</svg>