<svg xmlns="http://www.w3.org/2000/svg" viewBox="0 0 335.01 245.34"><defs><style>.cls-1{fill:#fff;}</style></defs><title>Middel 1</title><g id="Laag_2" data-name="Laag 2"><g id="Laag_1-2" data-name="Laag 1"><g id="Laag_2-2" data-name="Laag 2"><g id="Laag_1-2-2" data-name="Laag 1-2"><path class="cls-1" d="M333.26,37.51a2.83,2.83,0,0,0-3,.54l-74.59,71.67V2.84A2.78,2.78,0,0,0,254,.28a2.82,2.82,0,0,0-3,.36l-83.48,69L84,.64a2.82,2.82,0,0,0-3-.36,2.78,2.78,0,0,0-1.62,2.56V109.72L4.8,38a2.89,2.89,0,0,0-3.1-.54A2.85,2.85,0,0,0,0,40.11v202.4a2.82,2.82,0,0,0,2.81,2.83H82.18A2.82,2.82,0,0,0,85,242.52h0V123l9.3,8.94,2.33,2.24L131.3,167.5l3.28,3.19,30.85,29.64a1.75,1.75,0,0,0,.45.36,1.07,1.07,0,0,0,.49.27,2.68,2.68,0,0,0,2.2,0,3.61,3.61,0,0,0,.85-.54l.09-.09,31.61-30.4,3.14-3.05,34-32.69,2.34-2.24L250,123V242.5a2.85,2.85,0,0,0,2.83,2.83h79.35a2.82,2.82,0,0,0,2.83-2.81s0,0,0,0V40.11a2.85,2.85,0,0,0-1.71-2.61M5.66,46.76,39.38,79.18v160.5H5.66ZM79.35,239.68H45V84.62l34.31,33ZM250,8.81V58.66l-45.54,41.45L171.9,73.3ZM200.2,104,168,133.25,135.08,103.7,167.5,76.94ZM85,8.81,163,73.3,130.8,99.88,85,58.66Zm0,106.34v-49l41.45,37.32-28.83,23.8Zm16.75,16.08,29-23.89,33.05,29.73L135,163.25Zm65.74,63.23L139.12,167.2,168,140.89l28.52,25.64Zm33.1-31.84-28.38-25.55,32.38-29.46,28.6,23.62ZM250,115.15l-12.62,12.17-28.52-23.58L250,66.29Zm5.66,2.42,34.31-33h0V239.68H255.61Zm73.69,122.1H295.6V79.16h0l33.7-32.4Z"/></g></g></g></g></svg>