<svg xmlns="http://www.w3.org/2000/svg" viewBox="0 0 89.72 76.25"><title>Middel 1</title><g id="Laag_2" data-name="Laag 2"><g id="ÉåÉCÉÑÅ__1" data-name="ÉåÉCÉÑÅ[_1"><path d="M88.86.78A2.73,2.73,0,0,0,85.31.54a2.91,2.91,0,0,0-.59.59c-.17.22-1,.93-1.53,1.46-1,.91-2.11,1.94-2.91,2.83-4.9,5.44-9.35,10.33-14.17,15.05A303.8,303.8,0,0,1,36,46.23C28.39,51.91,20.25,57.51,11.7,62.92a24.31,24.31,0,0,1,1.07-2.34c1.88-3.55,4.18-7,6.41-10.37a97.05,97.05,0,0,0,8.37-14.3,3.56,3.56,0,0,0-1-4.34,3.68,3.68,0,0,0-4.49-.1,3.88,3.88,0,0,0-1.15,1.41,168.58,168.58,0,0,1-8.76,15c-1.65,2.62-3.35,5.32-5,8-3.38,5.73-5.93,12-6.82,16.72L0,74.5l.65.19a3,3,0,0,0,1,1,3.13,3.13,0,0,0,4-.42c10.07-.77,20.13-2.84,29.86-4.85,2.91-.6,5.92-1.22,8.88-1.79a3.52,3.52,0,0,0,1-.12L47.6,68a3.88,3.88,0,0,0,1.72-.73,3.94,3.94,0,0,0,1.25-4.69,3.35,3.35,0,0,0-3.81-1.95c-4.07.74-8.19,1.57-12.17,2.38-4.4.89-8.89,1.8-13.39,2.6C27.68,61.41,33.92,57,39.86,52.58h0a314.83,314.83,0,0,0,30.53-26A169.92,169.92,0,0,0,89.18,4.5,2.85,2.85,0,0,0,88.86.78Z"/></g></g></svg>