<?xml version="1.0"?>
<svg xmlns="http://www.w3.org/2000/svg" xmlns:xlink="http://www.w3.org/1999/xlink" version="1.1" id="Layer_1" x="0px" y="0px" viewBox="0 0 512 512" style="enable-background:new 0 0 512 512;" xml:space="preserve" width="512px" height="512px" class=""><g><g>
	<g>
		<g>
			<path d="M101.869,299.627c-24.669,0-46.986,15.544-55.534,38.683c-2.04,5.526,0.785,11.663,6.312,13.705     c1.219,0.45,2.468,0.663,3.697,0.663c4.338,0,8.417-2.667,10.008-6.974c5.466-14.796,19.739-24.739,35.517-24.739     c5.892,0,10.669-4.779,10.669-10.669C112.538,304.402,107.763,299.627,101.869,299.627z" data-original="#000000" class="active-path" data-old_color="#ec9894" fill="#ec9894"/>
			<path d="M256.001,250.426c-21.975,0-39.853,17.879-39.853,39.854c0,21.974,17.878,39.851,39.853,39.851     c21.975,0,39.852-17.877,39.852-39.851C295.853,268.304,277.976,250.426,256.001,250.426z M256.001,308.793     c-10.21,0-18.516-8.306-18.516-18.513c0-10.211,8.306-18.517,18.516-18.517c10.208,0,18.514,8.306,18.514,18.517     C274.516,300.487,266.21,308.793,256.001,308.793z" data-original="#000000" class="active-path" data-old_color="#ec9894" fill="#ec9894"/>
			<path d="M504.024,319.313L460.383,174.05c-6.122-20.381-13.618-45.321-30.467-61.822c0-0.031,0.002-0.065,0.002-0.096     c0-33.54-27.286-60.829-60.829-60.829s-60.829,27.288-60.829,60.829c0,7.477,1.404,14.91,4.08,21.869     c-2.407,2.547-4.77,5.094-7.095,7.606c-1.94,2.096-3.834,4.141-5.706,6.132c-12.363-9.606-27.726-14.965-43.54-14.965     c-15.815,0-31.177,5.357-43.542,14.965c-1.869-1.992-3.763-4.036-5.703-6.13c-2.326-2.512-4.69-5.063-7.097-7.61     c2.676-6.961,4.08-14.394,4.08-21.867c0-33.54-27.286-60.829-60.829-60.829c-33.541,0-60.829,27.288-60.829,60.829     c0,0.033,0.002,0.065,0.002,0.098c-16.847,16.499-24.344,41.439-30.467,61.82L7.981,319.307C2.842,331.465,0,344.82,0,358.827     c0,56.171,45.698,101.869,101.869,101.869c54.338,0,98.871-42.76,101.722-96.397c15.482,9.939,33.635,15.384,52.41,15.384     c18.775,0,36.928-5.445,52.408-15.384c2.853,53.637,47.386,96.397,101.722,96.397c56.171,0,101.869-45.698,101.869-101.869     C512,344.822,509.158,331.469,504.024,319.313z M369.089,72.641c16.668,0,30.948,10.387,36.734,25.021     c-6.707-2.144-14.289-3.343-22.903-3.343c-21.185,0-38.217,9.818-53.027,22.596c-0.194-1.585-0.296-3.181-0.296-4.784     C329.599,90.357,347.315,72.641,369.089,72.641z M142.911,72.641c21.775,0,39.491,17.715,39.491,39.491     c0,1.6-0.102,3.198-0.296,4.784c-14.809-12.778-31.842-22.596-53.027-22.596c-8.614,0-16.195,1.2-22.902,3.343     C111.963,83.028,126.243,72.641,142.911,72.641z M101.869,439.359c-44.406,0-80.532-36.125-80.532-80.532     c0-44.404,36.125-80.527,80.532-80.527s80.532,36.123,80.532,80.527C182.402,403.234,146.276,439.359,101.869,439.359z      M256.002,358.346c-20.983,0-40.963-8.727-55.242-23.994c-10.99-44.386-51.153-77.39-98.889-77.39     c-21.723,0-41.877,6.839-58.43,18.471l28.612-95.244c11.353-37.784,22.085-64.531,57.025-64.531     c24.565,0,43.606,20.562,62.023,40.447c3.117,3.367,6.312,6.812,9.523,10.148l-6.782,44.782     c-0.881,5.824,3.126,11.263,8.952,12.146c0.542,0.081,1.08,0.121,1.611,0.121c5.186,0,9.735-3.788,10.535-9.073l7.053-46.58     c9.152-8.633,21.371-13.538,34.009-13.538c12.636,0,24.855,4.905,34.007,13.538l3.265,21.558c0.8,5.284,5.349,9.073,10.535,9.073     c0.531,0,1.069-0.039,1.611-0.121c5.826-0.883,9.833-6.322,8.952-12.148l-2.995-19.76c3.213-3.336,6.408-6.78,9.525-10.148     c18.416-19.885,37.457-40.445,62.02-40.445c34.94,0,45.676,26.744,57.025,64.531l28.614,95.243     c-16.554-11.631-36.707-18.471-58.43-18.471c-47.734,0-87.898,33.005-98.889,77.388     C296.964,349.618,276.985,358.346,256.002,358.346z M410.131,439.359c-44.406,0-80.532-36.125-80.532-80.532     c0-44.404,36.125-80.527,80.532-80.527c44.406,0,80.532,36.123,80.532,80.527C490.663,403.234,454.537,439.359,410.131,439.359z" data-original="#000000" class="active-path" data-old_color="#ec9894" fill="#ec9894"/>
			<path d="M65.252,368.481c-1.55-5.684-7.42-9.033-13.098-7.485c-5.63,1.534-8.972,7.302-7.531,12.934     c1.19,4.862,5.547,8.133,10.354,8.133c0.809,0,1.631-0.092,2.453-0.286c5.734-1.351,9.291-7.093,7.941-12.827     C65.333,368.79,65.296,368.635,65.252,368.481z" data-original="#000000" class="active-path" data-old_color="#ec9894" fill="#ec9894"/>
			<path d="M410.131,299.627c-24.669,0-46.986,15.544-55.534,38.683c-2.04,5.526,0.785,11.663,6.312,13.705     c1.219,0.45,2.468,0.663,3.697,0.663c4.338,0,8.417-2.667,10.008-6.974c5.466-14.796,19.739-24.739,35.517-24.739     c5.892,0,10.669-4.779,10.669-10.669C420.8,304.402,416.023,299.627,410.131,299.627z" data-original="#000000" class="active-path" data-old_color="#ec9894" fill="#ec9894"/>
			<path d="M373.514,368.481c-1.55-5.684-7.42-9.033-13.098-7.485c-5.63,1.534-8.972,7.302-7.531,12.934     c1.19,4.862,5.547,8.133,10.354,8.133c0.809,0,1.631-0.092,2.453-0.286c5.734-1.351,9.291-7.093,7.941-12.827     C373.595,368.79,373.557,368.635,373.514,368.481z" data-original="#000000" class="active-path" data-old_color="#ec9894" fill="#ec9894"/>
		</g>
	</g>
</g></g> </svg>
