<svg xmlns="http://www.w3.org/2000/svg" viewBox="0 0 765.48 245.34"><defs><style>.cls-1{fill:#fff;}</style></defs><title>Middel 2</title><g id="Laag_2" data-name="Laag 2"><g id="Laag_1-2" data-name="Laag 1"><path class="cls-1" d="M333.26,37.51a2.83,2.83,0,0,0-3.05.54l-74.59,71.67V2.84A2.78,2.78,0,0,0,254,.28a2.82,2.82,0,0,0-3,.36l-83.48,69L84,.64a2.82,2.82,0,0,0-3-.36,2.78,2.78,0,0,0-1.62,2.56V109.72L4.8,38a2.89,2.89,0,0,0-3.1-.54A2.85,2.85,0,0,0,0,40.11V242.51a2.82,2.82,0,0,0,2.83,2.83H82.18A2.82,2.82,0,0,0,85,242.51V123l9.3,8.94,2.33,2.24,34.67,33.32,3.28,3.19,30.85,29.64a1.75,1.75,0,0,0,.45.36,1.07,1.07,0,0,0,.49.27,2.68,2.68,0,0,0,2.2,0,1.06,1.06,0,0,0,.49-.27,1.07,1.07,0,0,0,.36-.27l.09-.09,31.61-30.4,3.14-3.05,34-32.69,2.34-2.24L250,123v119.5a2.85,2.85,0,0,0,2.83,2.83h79.35a2.82,2.82,0,0,0,2.83-2.83V40.11a2.85,2.85,0,0,0-1.71-2.61M5.66,46.76,39.38,79.18v160.5H5.66ZM79.35,239.68H45V84.62l34.31,33ZM250,8.81V58.66l-45.54,41.45L171.9,73.3ZM200.2,104,168,133.25,135.08,103.7,167.5,76.94ZM85,8.81l78,64.49-32.2,26.58L85,58.66Zm0,106.34v-49l41.45,37.32-28.83,23.8Zm16.75,16.08,29-23.89,33.05,29.73L135,163.25Zm65.74,63.23L139.12,167.2,168,140.89l28.52,25.64Zm33.1-31.84-28.38-25.55,32.38-29.46,28.6,23.62ZM250,115.15l-12.62,12.17-28.52-23.58L250,66.29Zm5.66,2.42,34.31-33,0,0V239.68H255.61Zm73.69,122.1H295.6V79.16l0,0L329.3,46.76Z"/><polygon class="cls-1" points="409.09 75.88 409.63 75.88 426.97 95.05 444.32 75.88 444.86 75.88 444.86 114.5 438.5 114.5 438.5 90.96 427.24 103.4 426.65 103.4 415.44 90.96 415.44 114.5 409.09 114.5 409.09 75.88"/><rect class="cls-1" x="460.02" y="76.79" width="6.46" height="37.71"/><path class="cls-1" d="M480.26,95.65c0-11.48,8.51-19.77,19.55-19.77a18.45,18.45,0,0,1,13.36,5.33l-3.23,4.52a16,16,0,0,0-10.29-4c-7.33,0-12.87,5.87-12.87,13.95s5.66,13.9,12.93,13.9c4.74,0,8.46-2.48,11-4.85l3.18,4.68a19.57,19.57,0,0,1-14.11,6c-11,0-19.5-8.3-19.5-19.72"/><polygon class="cls-1" points="526.34 76.79 532.8 76.79 532.8 93.6 550.2 93.6 550.2 76.79 556.66 76.79 556.66 114.5 550.2 114.5 550.2 99.2 532.8 99.2 532.8 114.5 526.34 114.5 526.34 76.79"/><path class="cls-1" d="M585.67,75.72h.54l17.72,38.78H597.2l-2.69-6.57H577.38l-2.69,6.57H568Zm6.73,27.15L585.94,87.3l-6.46,15.57Z"/><polygon class="cls-1" points="615.33 76.79 621.79 76.79 621.79 108.89 640.86 108.89 640.86 114.5 615.33 114.5 615.33 76.79"/><polygon class="cls-1" points="408.49 142.16 433.06 142.16 433.06 147.76 414.96 147.76 414.96 158.97 430.9 158.97 430.9 164.57 414.96 164.57 414.96 174.26 433.6 174.26 433.6 179.87 408.49 179.87 408.49 142.16"/><rect class="cls-1" x="447.63" y="142.16" width="6.46" height="37.71"/><path class="cls-1" d="M467.39,173l4.25-3.45c2.64,3.88,6,5.87,10.5,5.87,4.85,0,7.7-2.26,7.7-5.44,0-3.61-3.88-5.23-7.92-6.79-5.22-2.1-11.58-4.31-11.58-11.63,0-6.3,4.74-10.23,12.12-10.23,5.33,0,9.8,2,12.34,5.71l-4.1,3.34a9.87,9.87,0,0,0-8.13-3.77c-4,0-6.09,1.78-6.09,4.47,0,3.23,3.18,4.58,7.92,6.46,5.55,2.15,11.9,4.58,11.9,11.8,0,7.06-5.87,11.31-14,11.31-6.41,0-11.53-2.64-14.92-7.65"/><rect class="cls-1" x="509.65" y="142.16" width="6.47" height="37.71"/><polygon class="cls-1" points="531.35 142.16 537.81 142.16 537.81 159.62 553.11 142.16 561.35 142.16 544.49 160.47 562.16 179.87 553.75 179.87 537.81 161.23 537.81 179.87 531.35 179.87 531.35 142.16"/><path class="cls-1" d="M568.6,161c0-11.48,8.72-19.77,19.45-19.77A19.74,19.74,0,1,1,568.6,161M601,161c0-8.19-5.77-14-12.93-14s-12.93,5.76-12.93,14,5.87,13.89,12.93,13.89S601,169.15,601,161"/><polygon class="cls-1" points="614.73 142.16 621.47 142.16 630.25 167.26 640.42 141.52 641.02 141.52 651.2 167.26 659.92 142.16 666.71 142.16 652.11 180.94 651.52 180.94 640.75 154.77 629.92 180.94 629.33 180.94 614.73 142.16"/><rect class="cls-1" x="678.8" y="142.16" width="6.46" height="37.71"/><polygon class="cls-1" points="710.24 147.76 698.39 147.76 698.39 142.16 728.55 142.16 728.55 147.76 716.7 147.76 716.7 179.87 710.24 179.87 710.24 147.76"/><polygon class="cls-1" points="737.42 179.44 755.3 147.6 739.9 147.6 739.9 142.16 765.48 142.16 765.48 142.59 747.17 174.43 764.89 174.43 764.89 179.87 737.42 179.87 737.42 179.44"/><path class="cls-1" d="M415.91,204.2c0,2.85-2.11,4.29-5,4.29h-2.84v4.22h-1.29V199.92H411c2.83,0,4.92,1.49,4.92,4.27m-1.38,0c0-2-1.49-3.11-3.58-3.11h-2.84v6.23h2.84c2.11,0,3.58-1.11,3.58-3.13"/><polygon class="cls-1" points="423.87 201.09 423.87 205.63 429.95 205.63 429.95 206.79 423.87 206.79 423.87 211.54 430.83 211.54 430.83 212.7 422.58 212.7 422.58 199.92 430.83 199.92 430.83 201.09 423.87 201.09"/><path class="cls-1" d="M445.55,212.7l-2.91-4.25a7,7,0,0,1-.89.05h-2.64v4.2h-1.29V199.92h4.09c2.87,0,4.89,1.38,4.89,4.31a4,4,0,0,1-2.76,3.91l3.13,4.56Zm-3.8-5.36c2.27,0,3.73-1.22,3.73-3.11,0-2.15-1.54-3.15-3.6-3.15h-2.76v6.25Z"/><polygon class="cls-1" points="455.49 201.09 455.49 206.45 461.5 206.45 461.5 207.63 455.49 207.63 455.49 212.7 454.2 212.7 454.2 199.92 462.23 199.92 462.23 201.09 455.49 201.09"/><polygon class="cls-1" points="470.15 201.09 470.15 205.63 476.24 205.63 476.24 206.79 470.15 206.79 470.15 211.54 477.12 211.54 477.12 212.7 468.87 212.7 468.87 199.92 477.12 199.92 477.12 201.09 470.15 201.09"/><path class="cls-1" d="M482.93,206.34a6.39,6.39,0,0,1,6.71-6.58,7,7,0,0,1,4.14,1.16l-.64,1a5.26,5.26,0,0,0-3.35-1c-3.33,0-5.56,2.16-5.56,5.36a5.17,5.17,0,0,0,5.56,5.38,5.77,5.77,0,0,0,3.38-.95l.6,1a7.15,7.15,0,0,1-4.14,1.11,6.34,6.34,0,0,1-6.71-6.52"/><polygon class="cls-1" points="508.88 201.09 504.52 201.09 504.52 212.7 503.21 212.7 503.21 201.09 498.76 201.09 498.76 199.92 508.88 199.92 508.88 201.09"/><rect class="cls-1" x="515.15" y="199.92" width="1.29" height="12.78"/><path class="cls-1" d="M523.42,206.32a6.62,6.62,0,0,1,13.23,0,6.62,6.62,0,0,1-13.23,0m11.92,0a5.31,5.31,0,1,0-5.29,5.36,5.18,5.18,0,0,0,5.29-5.36"/><polygon class="cls-1" points="554.3 199.92 554.3 212.83 553.5 212.83 544.92 202.34 544.92 212.7 543.63 212.7 543.63 199.8 544.45 199.8 553.01 210.32 553.01 199.92 554.3 199.92"/><rect class="cls-1" x="562.19" y="199.92" width="1.29" height="12.78"/><path class="cls-1" d="M570.19,211.57l.69-1.11a6.31,6.31,0,0,0,3.76,1.22c1.78,0,3-.87,3-2.34s-.87-2.2-3.11-2.69c-2.53-.56-3.85-1.56-3.85-3.54s1.73-3.34,4.05-3.34a5.72,5.72,0,0,1,3.89,1.16l-.66,1a4.69,4.69,0,0,0-3.2-1c-1.67,0-2.8.82-2.8,2.15s1,1.89,2.87,2.33c2.78.65,4.09,1.73,4.09,3.82,0,2.36-1.93,3.65-4.23,3.65a7.65,7.65,0,0,1-4.51-1.29"/><polygon class="cls-1" points="594.27 201.09 589.9 201.09 589.9 212.7 588.6 212.7 588.6 201.09 584.14 201.09 584.14 199.92 594.27 199.92 594.27 201.09"/><path class="cls-1" d="M607.84,206.34a6.39,6.39,0,0,1,6.7-6.58,7,7,0,0,1,4.14,1.16l-.64,1a5.26,5.26,0,0,0-3.34-1c-3.33,0-5.56,2.16-5.56,5.36a5.17,5.17,0,0,0,5.56,5.38,5.77,5.77,0,0,0,3.38-.95l.6,1a7.15,7.15,0,0,1-4.14,1.11,6.34,6.34,0,0,1-6.7-6.52"/><path class="cls-1" d="M624,206.32a6.62,6.62,0,0,1,13.23,0,6.62,6.62,0,0,1-13.23,0m11.92,0a5.31,5.31,0,1,0-5.29,5.36,5.18,5.18,0,0,0,5.29-5.36"/><path class="cls-1" d="M653.31,204.2c0,2.85-2.11,4.29-5,4.29h-2.84v4.22h-1.29V199.92h4.16c2.83,0,4.92,1.49,4.92,4.27m-1.38,0c0-2-1.49-3.11-3.58-3.11h-2.84v6.23h2.84c2.11,0,3.58-1.11,3.58-3.13"/><polygon class="cls-1" points="664.49 207.67 664.49 212.7 663.2 212.7 663.2 207.63 658.4 199.92 659.97 199.92 663.89 206.39 667.85 199.92 669.34 199.92 664.49 207.67"/><polygon class="cls-1" points="690.66 199.92 686.93 212.7 685.97 212.7 682.34 201.98 678.7 212.7 677.78 212.7 674.03 199.92 675.39 199.92 678.32 210.65 680.3 204.49 681.88 199.92 682.83 199.92 684.45 204.49 686.44 210.7 688.15 204.32 689.37 199.92 690.66 199.92"/><path class="cls-1" d="M704.55,212.7l-2.91-4.25a7,7,0,0,1-.89.05h-2.64v4.2h-1.29V199.92h4.09c2.87,0,4.89,1.38,4.89,4.31a4,4,0,0,1-2.76,3.91l3.13,4.56Zm-3.8-5.36c2.27,0,3.73-1.22,3.73-3.11,0-2.15-1.54-3.15-3.6-3.15h-2.76v6.25Z"/><rect class="cls-1" x="713.2" y="199.92" width="1.29" height="12.78"/><polygon class="cls-1" points="730.9 201.09 726.54 201.09 726.54 212.7 725.23 212.7 725.23 201.09 720.78 201.09 720.78 199.92 730.9 199.92 730.9 201.09"/><polygon class="cls-1" points="738.46 201.09 738.46 205.63 744.55 205.63 744.55 206.79 738.46 206.79 738.46 211.54 745.42 211.54 745.42 212.7 737.17 212.7 737.17 199.92 745.42 199.92 745.42 201.09 738.46 201.09"/><path class="cls-1" d="M760.14,212.7l-2.91-4.25a7,7,0,0,1-.89.05h-2.64v4.2h-1.29V199.92h4.09c2.87,0,4.89,1.38,4.89,4.31a4,4,0,0,1-2.76,3.91l3.13,4.56Zm-3.8-5.36c2.27,0,3.73-1.22,3.73-3.11,0-2.15-1.55-3.15-3.6-3.15h-2.76v6.25Z"/></g></g></svg>