<svg xmlns="http://www.w3.org/2000/svg" viewBox="0 0 765.48 245.34"><defs><style>.cls-1{fill:#343435;}</style></defs><title>Michal-Logo</title><g id="Laag_2" data-name="Laag 2"><g id="Layer_1" data-name="Layer 1"><path class="cls-1" d="M333.26,37.51a2.83,2.83,0,0,0-3.06.54l-74.59,71.67V2.84A2.79,2.79,0,0,0,254,.28a2.84,2.84,0,0,0-3,.36l-83.49,69L84,.64a2.84,2.84,0,0,0-3-.36,2.78,2.78,0,0,0-1.62,2.56V109.72L4.81,38.05a2.88,2.88,0,0,0-3.1-.54A2.84,2.84,0,0,0,0,40.11v202.4a2.82,2.82,0,0,0,2.83,2.83H82.18A2.82,2.82,0,0,0,85,242.51V123l9.3,8.94,2.33,2.24,34.67,33.33,3.28,3.18,30.85,29.64a1.59,1.59,0,0,0,.45.36,1,1,0,0,0,.49.27,2.64,2.64,0,0,0,2.2,0,1,1,0,0,0,.49-.27,1,1,0,0,0,.36-.27l.09-.09,31.62-30.4,3.14-3.05,34-32.7,2.34-2.24L250,123v119.5a2.85,2.85,0,0,0,2.83,2.83h79.35a2.81,2.81,0,0,0,2.83-2.83V40.11A2.85,2.85,0,0,0,333.26,37.51ZM5.66,46.76,39.38,79.18v160.5H5.66ZM79.35,239.68H45V84.62l34.31,33ZM250,8.81V58.66l-45.53,41.45L171.9,73.3ZM200.2,104,168,133.25,135.08,103.7,167.5,76.94ZM85,8.81,163.06,73.3l-32.2,26.58L85,58.66Zm0,106.34V66.2l41.45,37.32-28.83,23.8Zm16.75,16.08,29-23.89,33.06,29.73L135,163.25Zm65.74,63.23L139.12,167.2,168,140.89l28.52,25.64Zm33.1-31.84-28.38-25.55,32.38-29.46,28.6,23.62ZM250,115.15l-12.62,12.17-28.51-23.57L250,66.29Zm5.66,2.43,34.31-33,0,0V239.68H255.61Zm73.69,122.1H295.6V79.16l0,0L329.3,46.76Z"/><path class="cls-1" d="M409.09,75.88h.54L427,95.05l17.35-19.17h.54V114.5H438.5V91L427.24,103.4h-.59L415.45,91V114.5h-6.36Z"/><path class="cls-1" d="M460,76.79h6.46V114.5H460Z"/><path class="cls-1" d="M480.26,95.65c0-11.48,8.51-19.77,19.55-19.77a18.46,18.46,0,0,1,13.36,5.33l-3.23,4.52a16,16,0,0,0-10.29-4c-7.33,0-12.87,5.87-12.87,14s5.65,13.89,12.92,13.89c4.74,0,8.46-2.47,11-4.85l3.18,4.69a19.57,19.57,0,0,1-14.11,6C488.77,115.36,480.26,107.07,480.26,95.65Z"/><path class="cls-1" d="M526.34,76.79h6.47V93.6H550.2V76.79h6.47V114.5H550.2V99.2H532.81v15.3h-6.47Z"/><path class="cls-1" d="M585.67,75.71h.54l17.72,38.79H597.2l-2.69-6.57H577.38l-2.69,6.57H568Zm6.74,27.15L585.94,87.3l-6.46,15.56Z"/><path class="cls-1" d="M615.33,76.79h6.46v32.1h19.07v5.61H615.33Z"/><path class="cls-1" d="M408.49,142.16h24.57v5.6H415V159H430.9v5.6H415v9.69H433.6v5.61H408.49Z"/><path class="cls-1" d="M447.63,142.16h6.47v37.71h-6.47Z"/><path class="cls-1" d="M467.39,173l4.25-3.44c2.64,3.87,6,5.86,10.51,5.86,4.85,0,7.7-2.26,7.7-5.43,0-3.61-3.88-5.23-7.92-6.79-5.22-2.1-11.58-4.31-11.58-11.64,0-6.3,4.74-10.23,12.12-10.23,5.33,0,9.8,2,12.34,5.71l-4.1,3.34a9.86,9.86,0,0,0-8.13-3.77c-4,0-6.09,1.78-6.09,4.47,0,3.23,3.18,4.58,7.92,6.46,5.55,2.16,11.9,4.58,11.9,11.8,0,7.06-5.87,11.31-14,11.31C475.9,180.62,470.78,178,467.39,173Z"/><path class="cls-1" d="M509.65,142.16h6.47v37.71h-6.47Z"/><path class="cls-1" d="M531.35,142.16h6.46v17.46l15.3-17.46h8.24l-16.86,18.32,17.67,19.39h-8.41l-15.94-18.64v18.64h-6.46Z"/><path class="cls-1" d="M568.6,161c0-11.48,8.72-19.77,19.44-19.77A19.74,19.74,0,1,1,568.6,161ZM601,161c0-8.19-5.76-14-12.92-14s-12.93,5.76-12.93,14,5.87,13.89,12.93,13.89S601,169.15,601,161Z"/><path class="cls-1" d="M614.73,142.16h6.74l8.77,25.1,10.19-25.74H641l10.18,25.74,8.72-25.1h6.79l-14.6,38.78h-.59l-10.77-26.17-10.83,26.17h-.59Z"/><path class="cls-1" d="M678.8,142.16h6.46v37.71H678.8Z"/><path class="cls-1" d="M710.24,147.76H698.39v-5.6h30.16v5.6H716.7v32.11h-6.46Z"/><path class="cls-1" d="M737.42,179.44,755.3,147.6H739.9v-5.44h25.58v.43l-18.31,31.84h17.72v5.44H737.42Z"/><path class="cls-1" d="M415.91,204.2c0,2.85-2.11,4.28-5,4.28h-2.83v4.22h-1.29V199.92H411C413.82,199.92,415.91,201.41,415.91,204.2Zm-1.39,0c0-2-1.49-3.11-3.58-3.11h-2.83v6.23h2.83C413.05,207.32,414.52,206.21,414.52,204.2Z"/><path class="cls-1" d="M423.87,201.09v4.54H430v1.16h-6.08v4.75h7v1.16h-8.25V199.92h8.25v1.17Z"/><path class="cls-1" d="M445.55,212.7l-2.91-4.25a8.53,8.53,0,0,1-.89.05h-2.64v4.2h-1.29V199.92h4.09c2.87,0,4.89,1.39,4.89,4.31a4,4,0,0,1-2.76,3.91l3.13,4.56Zm-3.8-5.36c2.27,0,3.72-1.22,3.72-3.11,0-2.14-1.54-3.14-3.59-3.14h-2.77v6.25Z"/><path class="cls-1" d="M455.49,201.09v5.36h6v1.18h-6v5.07H454.2V199.92h8v1.17Z"/><path class="cls-1" d="M470.16,201.09v4.54h6.08v1.16h-6.08v4.75h7v1.16h-8.25V199.92h8.25v1.17Z"/><path class="cls-1" d="M482.93,206.34a6.39,6.39,0,0,1,6.71-6.58,7.09,7.09,0,0,1,4.14,1.16l-.63,1a5.29,5.29,0,0,0-3.35-1c-3.32,0-5.56,2.16-5.56,5.36s2.16,5.38,5.56,5.38a5.77,5.77,0,0,0,3.38-.94l.6,1a7.22,7.22,0,0,1-4.14,1.1A6.34,6.34,0,0,1,482.93,206.34Z"/><path class="cls-1" d="M508.88,201.09h-4.36V212.7h-1.31V201.09h-4.45v-1.17h10.12Z"/><path class="cls-1" d="M515.15,199.92h1.29V212.7h-1.29Z"/><path class="cls-1" d="M523.42,206.32a6.62,6.62,0,0,1,13.23,0,6.62,6.62,0,0,1-13.23,0Zm11.92,0a5.31,5.31,0,1,0-5.28,5.36A5.17,5.17,0,0,0,535.34,206.32Z"/><path class="cls-1" d="M554.3,199.92v12.91h-.8l-8.58-10.49V212.7h-1.29V199.8h.82L553,210.32v-10.4Z"/><path class="cls-1" d="M562.19,199.92h1.29V212.7h-1.29Z"/><path class="cls-1" d="M570.19,211.57l.69-1.1a6.3,6.3,0,0,0,3.76,1.21c1.78,0,3-.87,3-2.34s-.88-2.2-3.11-2.69c-2.53-.56-3.85-1.56-3.85-3.55s1.72-3.34,4.05-3.34a5.74,5.74,0,0,1,3.89,1.16l-.66,1a4.67,4.67,0,0,0-3.19-1c-1.68,0-2.8.82-2.8,2.15s1,1.89,2.87,2.33c2.78.65,4.09,1.72,4.09,3.81,0,2.36-1.93,3.65-4.24,3.65A7.58,7.58,0,0,1,570.19,211.57Z"/><path class="cls-1" d="M594.27,201.09H589.9V212.7h-1.3V201.09h-4.46v-1.17h10.13Z"/><path class="cls-1" d="M607.84,206.34a6.39,6.39,0,0,1,6.71-6.58,7.09,7.09,0,0,1,4.14,1.16l-.63,1a5.29,5.29,0,0,0-3.35-1c-3.32,0-5.56,2.16-5.56,5.36s2.16,5.38,5.56,5.38a5.77,5.77,0,0,0,3.38-.94l.6,1a7.22,7.22,0,0,1-4.14,1.1A6.34,6.34,0,0,1,607.84,206.34Z"/><path class="cls-1" d="M624,206.32a6.62,6.62,0,0,1,13.23,0,6.62,6.62,0,0,1-13.23,0Zm11.92,0a5.31,5.31,0,1,0-10.61,0,5.31,5.31,0,1,0,10.61,0Z"/><path class="cls-1" d="M653.31,204.2c0,2.85-2.1,4.28-5,4.28h-2.83v4.22h-1.29V199.92h4.16C651.22,199.92,653.31,201.41,653.31,204.2Zm-1.38,0c0-2-1.49-3.11-3.58-3.11h-2.83v6.23h2.83C650.46,207.32,651.93,206.21,651.93,204.2Z"/><path class="cls-1" d="M664.49,207.67v5H663.2v-5.07l-4.8-7.71H660l3.92,6.47,4-6.47h1.49Z"/><path class="cls-1" d="M690.66,199.92l-3.72,12.78h-1L682.34,202,678.7,212.7h-.92L674,199.92h1.37l2.92,10.73,2-6.16,1.58-4.57h1l1.62,4.57,2,6.21,1.71-6.38,1.22-4.4Z"/><path class="cls-1" d="M704.55,212.7l-2.91-4.25a8.53,8.53,0,0,1-.89.05h-2.64v4.2h-1.29V199.92h4.09c2.87,0,4.89,1.39,4.89,4.31a4,4,0,0,1-2.76,3.91l3.12,4.56Zm-3.8-5.36c2.27,0,3.72-1.22,3.72-3.11,0-2.14-1.54-3.14-3.59-3.14h-2.77v6.25Z"/><path class="cls-1" d="M713.2,199.92h1.29V212.7H713.2Z"/><path class="cls-1" d="M730.9,201.09h-4.36V212.7h-1.31V201.09h-4.45v-1.17H730.9Z"/><path class="cls-1" d="M738.46,201.09v4.54h6.09v1.16h-6.09v4.75h7v1.16h-8.25V199.92h8.25v1.17Z"/><path class="cls-1" d="M760.14,212.7l-2.91-4.25a8.53,8.53,0,0,1-.89.05h-2.63v4.2h-1.29V199.92h4.09c2.87,0,4.88,1.39,4.88,4.31a4,4,0,0,1-2.76,3.91l3.13,4.56Zm-3.8-5.36c2.27,0,3.73-1.22,3.73-3.11,0-2.14-1.55-3.14-3.6-3.14h-2.76v6.25Z"/></g></g></svg>