<svg id="Layer_1" data-name="Layer 1" xmlns="http://www.w3.org/2000/svg" width="468" height="452" viewBox="0 0 468 452"><path d="M154,228.36c21.29,76,103.46,78.32,95.78,170.29-.91,21.71,29.84,16.24,37,3.45,10.81-7.6,11.65-61.72-5-111.14,1.15.12,118-10.24,119-9.69,17.93,2,23.83-8.57,25.76-15,5.91-24.94-10.44-32.95-30.16-42.11l16.64-11.52c24.75-19.45,7.42-44.72-14.29-59.63,9.59-9.12,18-18.79,15.92-34.43-.66-13.61-10.47-24.86-25.82-34,22.55-24.32,16.44-49.34-26.39-46.71H238.77c-31.27-1.43-60.89,16.33-86.44,32.38H123.44V228.36Z" fill="none"/><path d="M438.48,221.7c16.88-21.36,13.18-51.4-5.94-71.46,12-21.66,7.22-53.83-10.82-71.12,13.83-37.11-7.3-68.05-59.9-65.51-49.5,3-151.92-11.32-194.75,19.68L145.68,46H123.44V70.25h28.89c25.65-16.07,55.11-33.8,86.44-32.38H362.52c42.75-2.64,49,22.36,26.39,46.71,15.4,9.18,25.14,20.36,25.82,34,2.12,15.62-6.33,25.33-15.92,34.43,21.72,14.92,39,40.2,14.29,59.63l-16.64,11.52c19.61,9,36.15,17.38,30.16,42.11-1.93,6.45-7.83,17-25.76,15-1.42-.49-117.61,9.77-119,9.69,16.6,49.39,15.83,103.61,5,111.14-7.16,12.76-37.89,18.29-37-3.45,7.73-91.87-74.53-94.4-95.77-170.29h-30.6v24.26h14.2c27.57,69.25,94.68,72.14,88,144a38.29,38.29,0,0,0,10.82,30,37.16,37.16,0,0,0,28.93,11.12c59.81-9.19,60.61-58.43,47.1-125.06l87-7.24c29.19,2.67,45.17-14.83,50.41-32.29C455.42,254.69,450.57,234.84,438.48,221.7Z" fill="#282d2f"/><path d="M97.87,228.36h25.57V70.25H104.69V46h18.75c-.38-7,2.69-22.17-8.5-22H.15V271.17H114.94c10,0,8.59-11.74,8.5-18.55H97.87Z" fill="#282d2f"/><rect x="104.69" y="45.99" width="18.75" height="24.26" fill="#282d2f"/><rect x="97.87" y="228.36" width="25.57" height="24.26" fill="#282d2f"/></svg>