<svg xmlns="http://www.w3.org/2000/svg" width="809" height="223.07" viewBox="0 0 809 223.07"><g id="Layer_2" data-name="Layer 2"><g id="Layer_1-2" data-name="Layer 1"><path d="M18.09,0,417.41,217.13c2.5,1.36,2.5,3.56,0,4.92a10.52,10.52,0,0,1-9,0L0,0Z" fill="#f8b6b5"/><path d="M83,0,449.89,199.47c2.5,1.36,2.5,3.56,0,4.92a10.52,10.52,0,0,1-9,0L65,0Z" fill="#f8b6b5"/><path d="M148,0,482.37,181.82c2.49,1.35,2.49,3.55,0,4.91a10.55,10.55,0,0,1-9.05,0L129.91,0Z" fill="#f8b6b5"/><path d="M213,0,514.84,164.16c2.5,1.35,2.5,3.56,0,4.91a10.52,10.52,0,0,1-9,0L194.86,0Z" fill="#f8b6b5"/><path d="M277.9,0,547.32,146.5c2.5,1.36,2.5,3.56,0,4.92a10.6,10.6,0,0,1-9,0L259.81,0Z" fill="#f8b6b5"/><path d="M342.85,0,579.79,128.84c2.5,1.36,2.5,3.56,0,4.92a10.52,10.52,0,0,1-9,0L324.76,0Z" fill="#f8b6b5"/><path d="M407.8,0,612.27,111.18c2.5,1.36,2.5,3.56,0,4.92a10.55,10.55,0,0,1-9,0L389.71,0Z" fill="#f8b6b5"/><path d="M472.75,0l172,93.52c2.5,1.36,2.5,3.56,0,4.92a10.52,10.52,0,0,1-9,0L454.66,0Z" fill="#f8b6b5"/><path d="M537.7,0,677.22,75.86c2.5,1.36,2.5,3.56,0,4.92a10.52,10.52,0,0,1-9,0L519.62,0Z" fill="#f8b6b5"/><path d="M602.66,0l107,58.2c2.5,1.36,2.5,3.56,0,4.92a10.55,10.55,0,0,1-9.05,0L584.57,0Z" fill="#f8b6b5"/><path d="M667.61,0l74.56,40.55c2.5,1.35,2.5,3.55,0,4.91a10.52,10.52,0,0,1-9,0L649.52,0Z" fill="#f8b6b5"/><path d="M732.56,0l42.09,22.89c2.5,1.35,2.5,3.56,0,4.91a10.52,10.52,0,0,1-9,0L714.47,0Z" fill="#f8b6b5"/><path d="M797.51,0l9.62,5.23c2.49,1.36,2.49,3.56,0,4.91a10.55,10.55,0,0,1-9,0L779.43,0Z" fill="#f8b6b5"/></g></g></svg>