<?xml version="1.0" encoding="utf-8"?>
<!-- Generator: Adobe Illustrator 24.2.0, SVG Export Plug-In . SVG Version: 6.00 Build 0)  -->
<svg version="1.1" id="Layer_1" xmlns="http://www.w3.org/2000/svg" xmlns:xlink="http://www.w3.org/1999/xlink" x="0px" y="0px"
	 viewBox="0 0 1920 911" style="enable-background:new 0 0 1920 911;" xml:space="preserve">
<style type="text/css">
	.st0{fill:url(#SVGID_1_);}
	.st1{fill:none;}
	.st2{opacity:0.59;}
	.st3{fill:#FFFFFF;}
	.st4{opacity:0.49;}
	.st5{opacity:0.29;}
</style>
<g id="nav">
	
		<linearGradient id="SVGID_1_" gradientUnits="userSpaceOnUse" x1="951.3036" y1="1252.48" x2="953.7837" y2="-12.02" gradientTransform="matrix(1 0 0 -1 0 912)">
		<stop  offset="7.000000e-02" style="stop-color:#001F38"/>
		<stop  offset="0.12" style="stop-color:#012746"/>
		<stop  offset="0.19" style="stop-color:#022E51"/>
		<stop  offset="0.3" style="stop-color:#033258"/>
		<stop  offset="0.59" style="stop-color:#03335A"/>
		<stop  offset="0.76" style="stop-color:#002543"/>
		<stop  offset="1" style="stop-color:#000000"/>
	</linearGradient>
	<rect x="-30" y="-438" class="st0" width="1965" height="1415"/>
	<rect x="20.9" y="-279.9" class="st1" width="1765.1" height="1876.3"/>
	<g class="st2">
		<path class="st3" d="M525.1,209.5c-0.6,0.9-1.2,10.6-1.2,10.6s-0.1-9.4-0.9-10.3c-1.2-1.4-9.1-1.3-9.1-1.3s7.9-0.1,8.9-1.4
			c1.1-1.1,1.1-8.3,1.1-8.3s0.4,7.5,1.6,8.5c1.1,1.1,9.3,1.2,9.3,1.2S525.8,208.6,525.1,209.5z"/>
		<path class="st3" d="M150.6,87c-0.6,0.9-1.2,10.6-1.2,10.6s-0.1-9.4-0.9-10.3c-1.2-1.4-9.1-1.3-9.1-1.3s7.9-0.1,8.9-1.4
			c1.1-1.1,1.1-8.3,1.1-8.3s0.4,7.5,1.6,8.5c1.1,1.1,9.4,1.2,9.4,1.2S151.3,86.1,150.6,87z"/>
		<path class="st3" d="M222.6,302.2c-0.6,0.9-1.2,10.6-1.2,10.6s-0.1-9.4-0.9-10.4c-1.2-1.4-9.1-1.3-9.1-1.3s7.9-0.1,8.9-1.4
			c1.1-1.1,1.1-8.3,1.1-8.3s0.4,7.5,1.6,8.5c1.1,1.1,9.3,1.2,9.3,1.2S223.3,301.3,222.6,302.2z"/>
		<path class="st3" d="M1034.7,148.3c-0.5,0.9-1.1,9.6-1.1,9.6s-0.1-8.5-0.8-9.3c-1.1-1.2-8.2-1.2-8.2-1.2s7.1-0.1,8-1.3
			c1-1,1-7.4,1-7.4s0.4,6.8,1.4,7.6c1,1,8.4,1.1,8.4,1.1S1035.3,147.5,1034.7,148.3z"/>
		<path class="st3" d="M1571,50.8c0.7,0.9,9.7,4.5,9.7,4.5s-9-2.8-10.1-2.3c-1.7,0.7-4.1,8.3-4.1,8.3s2.4-7.5,1.5-8.9
			c-0.7-1.4-7.5-3.7-7.5-3.7s7.3,2,8.5,1.2c1.4-0.7,4.1-8.5,4.1-8.5S1570.4,49.8,1571,50.8z"/>
		<path class="st3" d="M1564.3,367.1c0.7,0.9,9.7,4.5,9.7,4.5s-9-2.8-10.1-2.4c-1.7,0.7-4.1,8.3-4.1,8.3s2.4-7.5,1.5-8.9
			c-0.7-1.4-7.5-3.7-7.5-3.7s7.3,2,8.5,1.1c1.4-0.7,4.1-8.5,4.1-8.5S1563.6,366.1,1564.3,367.1z"/>
		<path class="st3" d="M68.1,510.1c-0.6,0.9-1.2,10.6-1.2,10.6s-0.1-9.4-0.9-10.3c-1.2-1.4-9.1-1.3-9.1-1.3s7.9-0.1,8.9-1.4
			c1.1-1.1,1.1-8.3,1.1-8.3s0.4,7.5,1.6,8.5c1.1,1.1,9.3,1.2,9.3,1.2S68.8,509.1,68.1,510.1z"/>
		<path class="st3" d="M459.8,849.2c-1.1,1.7-2.3,19.8-2.3,19.8s-0.2-17.5-1.8-19.2c-2.2-2.5-16.9-2.4-16.9-2.4s14.6-0.2,16.6-2.6
			c2.1-2.1,2.1-15.4,2.1-15.4s0.8,14,3,15.7c2,2.1,17.4,2.3,17.4,2.3S461.1,847.4,459.8,849.2z"/>
		<path class="st3" d="M880.3,668.6c0.7,0.8,9.7,4.5,9.7,4.5s-9-2.8-10.1-2.3c-1.7,0.7-4.1,8.2-4.1,8.2s2.4-7.5,1.5-8.9
			c-0.7-1.4-7.5-3.7-7.5-3.7s7.3,2,8.5,1.1c1.4-0.7,4.1-8.5,4.1-8.5S879.7,667.6,880.3,668.6z"/>
		<path class="st3" d="M1107.3,667.7c0.7,0.8,9.7,4.5,9.7,4.5s-9-2.8-10.1-2.3c-1.7,0.7-4.1,8.2-4.1,8.2s2.4-7.5,1.5-8.9
			c-0.7-1.4-7.5-3.7-7.5-3.7s7.3,2,8.5,1.2c1.4-0.7,4.1-8.5,4.1-8.5S1106.6,666.7,1107.3,667.7z"/>
	</g>
	<g class="st4">
		<path class="st3" d="M116.1,149.9c-0.9,1.5-1.9,16.8-1.9,16.8s-0.2-14.8-1.5-16.3c-1.9-2.1-14.4-2-14.4-2s12.4-0.2,14.1-2.2
			c1.8-1.8,1.8-13.1,1.8-13.1s0.7,11.9,2.5,13.3c1.7,1.8,14.7,2,14.7,2S117.2,148.4,116.1,149.9z"/>
		<circle class="st3" cx="184.5" cy="298.5" r="4.5"/>
		<circle class="st3" cx="1803.5" cy="181.5" r="4.5"/>
		<circle class="st3" cx="473.5" cy="692.5" r="4.5"/>
	</g>
	<g class="st2">
		<path class="st3" d="M321.2,533.2c-0.6,0.9-1.2,10.6-1.2,10.6s-0.1-9.4-0.9-10.3c-1.2-1.3-9.1-1.3-9.1-1.3s7.9-0.1,8.9-1.4
			c1.1-1.1,1.1-8.3,1.1-8.3s0.4,7.5,1.6,8.5c1.1,1.1,9.4,1.2,9.4,1.2S321.9,532.3,321.2,533.2z"/>
		<path class="st3" d="M393.2,748.4c-0.6,0.9-1.2,10.6-1.2,10.6s-0.1-9.4-0.9-10.3c-1.2-1.3-9.1-1.3-9.1-1.3s7.9-0.1,8.9-1.4
			c1.1-1.1,1.1-8.3,1.1-8.3s0.4,7.5,1.6,8.5c1,1.1,9.3,1.2,9.3,1.2S393.9,747.5,393.2,748.4z"/>
		<path class="st3" d="M1205.3,594.5c-0.5,0.8-1.1,9.6-1.1,9.6s-0.1-8.5-0.8-9.3c-1.1-1.2-8.2-1.2-8.2-1.2s7.1-0.1,8-1.3
			c1-1,1-7.5,1-7.5s0.4,6.8,1.4,7.6c1,1,8.4,1.1,8.4,1.1S1205.9,593.7,1205.3,594.5z"/>
		<path class="st3" d="M1741.7,497c0.7,0.9,9.7,4.5,9.7,4.5s-9-2.8-10.1-2.4c-1.7,0.7-4.1,8.2-4.1,8.2s2.4-7.5,1.5-8.9
			c-0.7-1.4-7.5-3.7-7.5-3.7s7.3,2,8.5,1.1c1.4-0.7,4.1-8.5,4.1-8.5S1741,496,1741.7,497z"/>
		<path class="st3" d="M1508,814.2c0.7,0.8,9.7,4.5,9.7,4.5s-9-2.8-10.1-2.3c-1.7,0.7-4.1,8.3-4.1,8.3s2.4-7.5,1.5-8.9
			c-0.7-1.4-7.5-3.7-7.5-3.7s7.3,2,8.5,1.1c1.4-0.7,4.1-8.5,4.1-8.5S1507.3,813.3,1508,814.2z"/>
		<path class="st3" d="M1734.9,813.3c0.7,0.8,9.7,4.5,9.7,4.5s-9-2.8-10.1-2.3c-1.7,0.7-4.1,8.2-4.1,8.2s2.4-7.5,1.5-8.9
			c-0.7-1.4-7.5-3.7-7.5-3.7s7.3,2,8.5,1.2c1.4-0.7,4.1-8.5,4.1-8.5S1734.2,812.3,1734.9,813.3z"/>
		<path class="st3" d="M1284.7,797.5c0.7,0.8,9.7,4.5,9.7,4.5s-9-2.8-10.1-2.3c-1.7,0.7-4.1,8.2-4.1,8.2s2.3-7.5,1.5-8.9
			c-0.7-1.4-7.5-3.7-7.5-3.7s7.3,2,8.5,1.2c1.4-0.7,4.1-8.5,4.1-8.5S1284,796.6,1284.7,797.5z"/>
	</g>
	<g class="st5">
		<g class="st2">
			<path class="st3" d="M1613.9,831.3c0.6-0.9,1.2-10.6,1.2-10.6s0.1,9.4,1,10.3c1.2,1.3,9.1,1.3,9.1,1.3s-7.9,0.1-8.9,1.4
				c-1.1,1.1-1.1,8.3-1.1,8.3s-0.4-7.5-1.6-8.5c-1.1-1.1-9.3-1.2-9.3-1.2S1613.2,832.3,1613.9,831.3z"/>
			<path class="st3" d="M919.6,584.9c1.1-1.8,2.3-19.8,2.3-19.8s0.2,17.5,1.7,19.2c2.2,2.5,16.9,2.4,16.9,2.4S926,587,924,589.4
				c-2.1,2.1-2.1,15.4-2.1,15.4s-0.8-14-3-15.7c-2-2.1-17.4-2.3-17.4-2.3S918.3,586.7,919.6,584.9z"/>
			<path class="st3" d="M499.1,765.5c-0.7-0.8-9.7-4.5-9.7-4.5s9,2.8,10.1,2.3c1.6-0.7,4.1-8.2,4.1-8.2s-2.4,7.5-1.5,8.9
				c0.7,1.4,7.5,3.7,7.5,3.7s-7.3-2-8.5-1.2c-1.4,0.7-4.1,8.5-4.1,8.5S499.8,766.5,499.1,765.5z"/>
			<path class="st3" d="M272.2,766.4c-0.7-0.9-9.7-4.5-9.7-4.5s9,2.8,10.1,2.3c1.6-0.7,4.1-8.3,4.1-8.3s-2.4,7.5-1.5,8.9
				c0.7,1.4,7.5,3.7,7.5,3.7s-7.3-2-8.5-1.1c-1.4,0.7-4.1,8.5-4.1,8.5S272.9,767.4,272.2,766.4z"/>
			<path class="st3" d="M1768.4,623.5c0.6-0.9,1.2-10.6,1.2-10.6s0.1,9.4,0.9,10.3c1.2,1.3,9.1,1.3,9.1,1.3s-7.9,0.1-8.9,1.4
				c-1.1,1.1-1.1,8.3-1.1,8.3s-0.4-7.5-1.6-8.5c-1-1.1-9.3-1.2-9.3-1.2S1767.7,624.4,1768.4,623.5z"/>
			<path class="st3" d="M1376.6,284.4c1.1-1.8,2.3-19.8,2.3-19.8s0.2,17.5,1.8,19.2c2.2,2.5,16.9,2.4,16.9,2.4s-14.7,0.2-16.6,2.6
				c-2.1,2.1-2.1,15.4-2.1,15.4s-0.8-14-3-15.7c-2-2.1-17.4-2.3-17.4-2.3S1375.3,286.1,1376.6,284.4z"/>
			<path class="st3" d="M722.4,782.2c-0.7-0.8-9.7-4.5-9.7-4.5s9,2.8,10.1,2.3c1.7-0.7,4.1-8.3,4.1-8.3s-2.4,7.5-1.5,8.9
				c0.7,1.4,7.5,3.7,7.5,3.7s-7.3-2-8.5-1.1c-1.4,0.7-4.1,8.5-4.1,8.5S723.1,783.2,722.4,782.2z"/>
			<path class="st3" d="M956.1,465c-0.7-0.9-9.7-4.5-9.7-4.5s9,2.8,10.1,2.4c1.7-0.7,4.1-8.2,4.1-8.2s-2.3,7.5-1.5,8.9
				c0.7,1.4,7.5,3.7,7.5,3.7s-7.3-2-8.5-1.1c-1.4,0.7-4.1,8.5-4.1,8.5S956.8,465.9,956.1,465z"/>
			<path class="st3" d="M729.2,465.9c-0.7-0.9-9.7-4.5-9.7-4.5s9,2.8,10.1,2.4c1.7-0.7,4.1-8.3,4.1-8.3s-2.3,7.5-1.5,8.9
				c0.7,1.4,7.5,3.7,7.5,3.7s-7.3-2-8.5-1.1c-1.4,0.7-4.1,8.5-4.1,8.5S729.9,466.9,729.2,465.9z"/>
		</g>
		<g class="st2">
			<path class="st3" d="M1140.8,477.8c0.6-0.9,1.2-10.6,1.2-10.6s0.1,9.4,0.9,10.3c1.2,1.4,9.1,1.3,9.1,1.3s-7.9,0.1-8.9,1.4
				c-1.1,1.1-1.1,8.3-1.1,8.3s-0.4-7.5-1.6-8.5c-1.1-1.1-9.3-1.2-9.3-1.2S1140.1,478.7,1140.8,477.8z"/>
			<path class="st3" d="M1515.3,600.3c0.6-0.9,1.2-10.6,1.2-10.6s0.1,9.4,0.9,10.3c1.2,1.3,9.1,1.3,9.1,1.3s-7.9,0.1-8.9,1.4
				c-1.1,1.1-1.1,8.3-1.1,8.3s-0.4-7.5-1.6-8.5c-1.1-1.1-9.3-1.2-9.3-1.2S1514.6,601.3,1515.3,600.3z"/>
			<path class="st3" d="M1443.3,385.1c0.6-0.9,1.2-10.6,1.2-10.6s0.1,9.4,1,10.3c1.2,1.4,9.1,1.3,9.1,1.3s-7.9,0.1-8.9,1.4
				c-1.1,1.1-1.1,8.3-1.1,8.3s-0.4-7.5-1.6-8.5c-1.1-1.1-9.3-1.2-9.3-1.2S1442.6,386.1,1443.3,385.1z"/>
			<path class="st3" d="M749,138.7c1.1-1.8,2.3-19.8,2.3-19.8s0.2,17.5,1.7,19.2c2.2,2.5,16.9,2.4,16.9,2.4s-14.6,0.2-16.6,2.6
				c-2.1,2.1-2.1,15.4-2.1,15.4s-0.8-14-3-15.7c-2-2.1-17.4-2.3-17.4-2.3S747.7,140.5,749,138.7z"/>
			<path class="st3" d="M631.2,539c0.5-0.8,1.1-9.6,1.1-9.6s0.1,8.5,0.8,9.3c1.1,1.2,8.2,1.2,8.2,1.2s-7.1,0.1-8,1.3
				c-1,1-1,7.5-1,7.5s-0.4-6.8-1.4-7.6c-1-1-8.4-1.1-8.4-1.1S630.5,539.9,631.2,539z"/>
			<path class="st3" d="M94.8,636.5c-0.7-0.9-9.7-4.5-9.7-4.5s9,2.8,10.1,2.3c1.7-0.7,4.1-8.3,4.1-8.3s-2.3,7.5-1.5,8.9
				c0.7,1.4,7.5,3.7,7.5,3.7s-7.3-2-8.5-1.2c-1.4,0.7-4.1,8.5-4.1,8.5S95.5,637.5,94.8,636.5z"/>
			<path class="st3" d="M328.5,319.3c-0.7-0.9-9.7-4.5-9.7-4.5s9,2.8,10.1,2.3c1.6-0.7,4.1-8.2,4.1-8.2s-2.4,7.5-1.5,8.9
				c0.7,1.4,7.5,3.7,7.5,3.7s-7.3-2-8.5-1.1c-1.4,0.6-4.1,8.5-4.1,8.5S329.2,320.3,328.5,319.3z"/>
			<path class="st3" d="M101.6,320.2c-0.7-0.9-9.7-4.5-9.7-4.5s9,2.8,10.1,2.4c1.7-0.7,4.1-8.3,4.1-8.3s-2.3,7.5-1.5,8.9
				c0.7,1.4,7.5,3.7,7.5,3.7s-7.3-2-8.5-1.1c-1.4,0.7-4.1,8.5-4.1,8.5S102.3,321.2,101.6,320.2z"/>
			<path class="st3" d="M1597.8,177.3c0.6-0.9,1.2-10.6,1.2-10.6s0.1,9.4,0.9,10.3c1.2,1.4,9.1,1.3,9.1,1.3s-7.9,0.1-8.9,1.4
				c-1.1,1.1-1.1,8.3-1.1,8.3s-0.4-7.5-1.6-8.5c-1.1-1.1-9.3-1.2-9.3-1.2S1597.1,178.2,1597.8,177.3z"/>
			<path class="st3" d="M551.8,336c-0.7-0.9-9.7-4.5-9.7-4.5s9,2.8,10.1,2.4c1.7-0.7,4.1-8.3,4.1-8.3s-2.4,7.5-1.5,8.9
				c0.7,1.4,7.5,3.7,7.5,3.7s-7.3-2-8.5-1.1c-1.4,0.7-4.1,8.5-4.1,8.5S552.5,337,551.8,336z"/>
			<path class="st3" d="M785.5,86.8c-0.7-0.8-9.7-4.5-9.7-4.5s9,2.8,10.1,2.3c1.7-0.7,4.1-8.2,4.1-8.2s-2.3,7.5-1.5,8.9
				c0.7,1.4,7.5,3.7,7.5,3.7s-7.3-2-8.5-1.1c-1.4,0.7-4.1,8.5-4.1,8.5S786.2,87.7,785.5,86.8z"/>
			<path class="st3" d="M558.6,19.7c-0.7-0.9-9.7-4.5-9.7-4.5s9,2.8,10.1,2.4c1.7-0.7,4.1-8.2,4.1-8.2s-2.3,7.5-1.5,8.9
				c0.7,1.4,7.5,3.7,7.5,3.7s-7.3-2-8.5-1.1c-1.4,0.7-4.1,8.5-4.1,8.5S559.3,20.6,558.6,19.7z"/>
		</g>
	</g>
</g>
</svg>
