<?xml version="1.0"?>
<svg xmlns="http://www.w3.org/2000/svg" xmlns:xlink="http://www.w3.org/1999/xlink" version="1.1" id="Layer_1" x="0px" y="0px" viewBox="0 0 511.998 511.998" style="enable-background:new 0 0 511.998 511.998;" xml:space="preserve" width="512px" height="512px"><g><g>
	<g>
		<path d="M511.449,487.292c-1.859-5.594-7.906-8.609-13.499-6.75l-27.797,9.266l-17.391-8.688c-3-1.5-6.531-1.5-9.531,0    l-16.562,8.281l-16.562-8.281c-3.016-1.5-6.547-1.5-9.547,0l-16.562,8.281v-41.406c0-0.188-0.016-0.375-0.031-0.578    c1.688-0.578,3.219-1.547,4.438-2.891l115.201-125.904c11.906-13.031,11.016-33.311-2-45.217    c-5.921-5.414-13.593-8.391-21.608-8.391c-8.953,0-17.562,3.789-23.609,10.391l-99.342,108.592H256.001V230.078    c5.507-2.359,18.108-6.078,42.685-6.078c32.703,0,44.156,6.586,45.953,7.773c1.797,2.148,3.875,3.203,6.703,3.445    c2.906,0.25,5.219-1.016,7.391-2.938c1.047-0.749,12.266-8.281,36.796-8.281c23.562,0,33.374,6.93,34.53,7.82    c2.984,3.117,7.359,3.914,11.391,2.328c4.078-1.602,6.547-5.766,6.547-10.148c0-54.132-21.078-105.03-59.358-143.302    C352.89,44.94,306.124,24.198,256.002,21.612V10.667c0-5.891-4.781-10.664-10.672-10.664s-10.664,4.773-10.664,10.664v10.945    c-50.125,2.586-96.889,23.328-132.639,59.085c-38.281,38.273-59.359,89.171-59.359,143.302c0,4.391,2.461,8.57,6.555,10.164    c4.031,1.585,8.398,0.789,11.374-2.336c1.195-0.906,11.141-7.828,35.406-7.828c24.242,0,34.188,6.906,35.398,7.828    c2.062,2.188,4.391,3.586,7.406,3.484c2.977-0.078,5.211-1.234,7.125-3.461c1.749-1.156,13.304-7.852,46.068-7.852    c24.469,0,37.102,3.734,42.664,6.109v153.888H74.667c-17.647,0-31.999,14.359-31.999,31.998c0,17.641,14.352,32,31.999,32h10.664    v41.406l-16.562-8.281c-3-1.5-6.539-1.5-9.539,0l-17.382,8.688l-27.804-9.266c-5.586-1.859-11.633,1.156-13.492,6.75    c-1.867,5.578,1.156,11.625,6.742,13.484l31.999,10.672c2.688,0.891,5.617,0.688,8.148-0.578l16.562-8.281l16.562,8.281    c3,1.5,6.531,1.5,9.539,0l16.562-8.281l16.562,8.281c3,1.5,6.539,1.5,9.539,0l16.562-8.281l16.562,8.281    c3.008,1.5,6.539,1.5,9.539,0l16.569-8.281l16.562,8.281c3,1.5,6.531,1.5,9.539,0l16.562-8.281l16.562,8.281    c3,1.5,6.539,1.5,9.539,0l16.562-8.281l16.562,8.281c3.015,1.5,6.546,1.5,9.546,0l16.566-8.279l16.562,8.281    c1.5,0.75,3.141,1.125,4.766,1.125c1.641,0,3.281-0.375,4.781-1.125l16.562-8.281l16.562,8.281c3,1.5,6.53,1.5,9.53,0    l16.562-8.281l16.562,8.281c3.016,1.5,6.547,1.5,9.547,0l16.562-8.281l16.562,8.281c2.531,1.266,5.453,1.469,8.141,0.578    l31.999-10.672C510.293,498.917,513.309,492.87,511.449,487.292z M425.841,206.671c-7.5-2.25-17.452-4.007-30.312-4.007    c-14.312,0-25.28,2.148-33.28,4.71c-1.484-30.89-7.172-59.101-16.984-84.045c-9.359-23.765-22.422-44.624-38.844-62.007    c-4.234-4.468-8.453-8.476-12.593-12.062C364.968,69.033,418.653,131.173,425.841,206.671z M256.001,48.643    c9.491,5.273,22.67,14.179,35.733,28.21c29.937,32.171,46.437,76.038,49.187,130.568c-9.344-2.617-22.891-4.757-42.234-4.757    c-19.64,0-33.328,2.211-42.686,4.882V48.643z M145.409,123.329c-9.789,24.882-15.469,53.007-16.984,83.795    c-7.766-2.468-18.383-4.46-32.422-4.46c-13.312,0-23.539,1.789-31.187,4.078c7.164-75.53,60.867-137.701,132.021-157.474    c-4.141,3.586-8.367,7.586-12.594,12.054C167.822,78.705,154.752,99.564,145.409,123.329z M192.001,202.664    c-19.343,0-32.905,2.156-42.257,4.781c2.742-54.538,19.242-98.42,49.187-130.591c13.055-14.031,26.234-22.937,35.734-28.21    v158.919C225.298,204.891,211.626,202.664,192.001,202.664z M362.675,479.995c-1.645,0-3.285,0.375-4.785,1.125l-16.562,8.281    l-16.562-8.281c-3-1.5-6.531-1.5-9.531,0l-16.562,8.281l-16.562-8.281c-3.016-1.5-6.547-1.5-9.547,0l-16.561,8.281l-16.57-8.281    c-3-1.5-6.531-1.5-9.539,0l-16.562,8.281l-16.562-8.281c-3-1.5-6.539-1.5-9.539,0l-16.562,8.281l-16.562-8.281    c-3.008-1.5-6.539-1.5-9.538,0l-16.562,8.281l-16.562-8.281c-1.508-0.75-3.141-1.125-4.773-1.125v-32h256.003V479.995z     M375.843,426.651H74.667c-5.883,0-10.664-4.781-10.664-10.656c0-5.873,4.781-10.67,10.664-10.67h42.664    c0,5.891,4.781,10.67,10.672,10.67c5.891,0,10.664-4.779,10.664-10.67h21.335c0,5.891,4.773,10.67,10.664,10.67    s10.663-4.779,10.663-10.67h21.336c0,5.891,4.773,10.67,10.664,10.67c5.891,0,10.672-4.779,10.672-10.67h21.328    c0,5.891,4.773,10.67,10.672,10.67c5.89,0,10.663-4.779,10.663-10.67H288c0,5.891,4.781,10.67,10.671,10.67    c5.891,0,10.656-4.779,10.656-10.67h21.344c0,5.891,4.766,10.67,10.656,10.67s10.672-4.779,10.672-10.67h9.75    c2.984,0,5.844-1.25,7.859-3.453l102.514-112.061c2.047-2.234,4.844-3.469,7.875-3.469c2.672,0,5.234,1,7.203,2.797    c4.344,3.984,4.641,10.732,0.672,15.076L375.843,426.651z" data-original="#000000" class="active-path" data-old_color="#efafac" fill="#efafac"/>
	</g>
</g></g> </svg>
