<svg xmlns="http://www.w3.org/2000/svg" viewBox="0 0 87.9 68.95"><title>Middel 1</title><g id="Laag_2" data-name="Laag 2"><g id="ÉåÉCÉÑÅ__1" data-name="ÉåÉCÉÑÅ[_1"><path d="M81.35.73C76.8,6,70.4,9.79,64.79,13.85c-2.61,1.88-4.86,4.9-7.23,6.49a.71.71,0,0,0,.77,1.2c2.8-1.71,6.75-2.8,9.91-4.85A111.27,111.27,0,0,0,80.31,8c-8.51,21.54-22.7,47.8-45.46,54.88-11.67,3.64-23.59-.22-28.46-12C2,40.27,2.6,25.25,8.65,15.41c.86-1.4-1.37-2.53-2.23-1.17C-6.29,34.1-.68,70.51,28.26,68.9c14.12-.78,24.85-9.49,33.57-19.82a101.64,101.64,0,0,0,20-37c0,8.42-1.59,17.21,2,24.65,1,2,4.2.79,4.05-1.27-.41-5.59-1.1-11-1.11-16.62,0-5.81-.05-11.58-1.6-17.21A2.28,2.28,0,0,0,81.35.73Z"/></g></g></svg>