<?xml version="1.0"?>
<svg xmlns="http://www.w3.org/2000/svg" xmlns:xlink="http://www.w3.org/1999/xlink" version="1.1" id="Capa_1" x="0px" y="0px" viewBox="0 0 511.998 511.998" style="enable-background:new 0 0 511.998 511.998;" xml:space="preserve" width="512px" height="512px" class=""><g><g>
	<g>
		<path d="M175.2,186.085c-25.155-0.991-49.885,5.259-71.505,18.087c-4.75,2.818-6.316,8.953-3.498,13.703    c1.869,3.149,5.195,4.899,8.609,4.899c1.734,0,3.493-0.452,5.094-1.401c18.293-10.854,39.213-16.15,60.51-15.304    c5.547,0.223,10.17-4.079,10.387-9.597C185.016,190.954,180.719,186.303,175.2,186.085z" data-original="#000000" class="active-path" data-old_color="#efafac" fill="#efafac"/>
	</g>
</g><g>
	<g>
		<path d="M92.534,223.953c-3.852-3.957-10.182-4.043-14.141-0.191l-0.317,0.314c-3.905,3.905-3.905,10.237,0,14.143    c1.952,1.953,4.513,2.929,7.071,2.929c2.558,0,5.119-0.976,7.071-2.929l0.126-0.125C96.301,234.242,96.387,227.911,92.534,223.953    z" data-original="#000000" class="active-path" data-old_color="#efafac" fill="#efafac"/>
	</g>
</g><g>
	<g>
		<path d="M261.883,393.822c-3.905-3.906-10.27-3.872-14.176,0.032l-0.178,0.178c-3.892,3.919-3.869,10.25,0.049,14.142    c1.951,1.938,4.498,2.905,7.047,2.905c2.57,0,5.141-0.985,7.096-2.953l0.195-0.195    C265.82,404.026,265.788,397.727,261.883,393.822z" data-original="#000000" class="active-path" data-old_color="#efafac" fill="#efafac"/>
	</g>
</g><g>
	<g>
		<path d="M239.796,414.136c-2.817-4.75-8.952-6.317-13.702-3.499c-18.297,10.852-39.229,16.148-60.511,15.302    c-5.536-0.22-10.169,4.079-10.388,9.597c-0.218,5.518,4.079,10.169,9.598,10.387c1.732,0.068,3.461,0.103,5.189,0.103    c23.356,0,46.181-6.244,66.315-18.188C241.047,425.021,242.613,418.886,239.796,414.136z" data-original="#000000" class="active-path" data-old_color="#efafac" fill="#efafac"/>
	</g>
</g><g>
	<g>
		<path d="M414.149,116.78c-5.332-1.431-10.818,1.736-12.247,7.071c-3.593,13.409-14.907,15.156-39.865,15.946    c-11.702,0.37-23.803,0.753-34.417,4.441c-8.074,2.806-14.42,7.296-19.014,13.386l-18.4-18.4    c-5.65-5.65-13.184-8.762-21.212-8.762s-15.562,3.112-21.214,8.762l-17.721,17.72c-19.199-7.251-39.372-10.936-60.074-10.936    c-45.404,0-88.09,17.681-120.192,49.785C17.684,227.9,0,270.59,0,315.999c0,45.408,17.684,88.099,49.791,120.208    c32.109,32.108,74.8,49.792,120.209,49.792c45.408,0,88.098-17.683,120.205-49.792c24.414-24.413,40.639-55.194,46.918-89.016    c5.715-30.775,2.918-62.179-8.061-91.259l17.712-17.712c5.652-5.65,8.764-13.183,8.765-21.213    c0.001-8.03-3.112-15.565-8.763-21.214l-23.738-23.738c5.287-10.028,17.113-11.557,39.63-12.269    c22.607-0.715,50.74-1.606,58.552-30.76C422.65,123.692,419.484,118.208,414.149,116.78z M276.063,422.065    c-28.331,28.331-65.998,43.934-106.063,43.934c-40.066,0-77.735-15.603-106.066-43.934C35.603,393.733,20,356.065,20,315.999    c0-40.066,15.603-77.734,43.933-106.064c28.326-28.327,65.988-43.927,106.051-43.927c19.646,0,38.752,3.744,56.821,11.131    l41.021,41.02l41.033,41.034C331.824,315.34,319.054,379.076,276.063,422.065z M332.633,209.937    c1.874,1.871,2.905,4.382,2.905,7.069c0,2.686-1.032,5.197-2.905,7.071l-15.303,15.302l-70.711-70.711l15.302-15.301    c1.874-1.874,4.386-2.905,7.072-2.905c2.686,0,5.197,1.032,7.069,2.905L332.633,209.937z" data-original="#000000" class="active-path" data-old_color="#efafac" fill="#efafac"/>
	</g>
</g><g>
	<g>
		<path d="M501.998,116.439h-29.699c-5.523,0-10,4.477-10,10s4.477,10,10,10h29.699c5.523,0,10-4.477,10-10    S507.521,116.439,501.998,116.439z" data-original="#000000" class="active-path" data-old_color="#efafac" fill="#efafac"/>
	</g>
</g><g>
	<g>
		<path d="M482.582,55.416c-3.905-3.905-10.238-3.905-14.143,0l-21,21.002c-3.904,3.906-3.904,10.237,0.001,14.142    c1.952,1.953,4.512,2.929,7.072,2.929c2.559,0,5.119-0.977,7.07-2.929l21-21.002C486.488,65.652,486.487,59.322,482.582,55.416z" data-original="#000000" class="active-path" data-old_color="#efafac" fill="#efafac"/>
	</g>
</g><g>
	<g>
		<path d="M411.56,25.999c-5.523,0-10,4.477-10,10v29.7c0,5.523,4.477,10,10,10s10-4.477,10-10v-29.7    C421.56,30.475,417.084,25.999,411.56,25.999z" data-original="#000000" class="active-path" data-old_color="#efafac" fill="#efafac"/>
	</g>
</g><g>
	<g>
		<path d="M375.683,76.417l-21.003-21c-3.905-3.905-10.237-3.905-14.142,0c-3.906,3.905-3.905,10.237,0,14.142l21.003,21    c1.953,1.953,4.512,2.929,7.071,2.929c2.56,0,5.118-0.976,7.071-2.929C379.588,86.654,379.587,80.322,375.683,76.417z" data-original="#000000" class="active-path" data-old_color="#efafac" fill="#efafac"/>
	</g>
</g><g>
	<g>
		<path d="M411.559,177.178c-5.523,0-10,4.477-10,10v29.7c0,5.523,4.477,10,10,10s10-4.477,10-10v-29.7    C421.559,181.655,417.082,177.178,411.559,177.178z" data-original="#000000" class="active-path" data-old_color="#efafac" fill="#efafac"/>
	</g>
</g><g>
	<g>
		<path d="M482.58,183.317l-21-21c-3.904-3.905-10.236-3.905-14.142,0c-3.904,3.905-3.904,10.237,0,14.143l21,21    c1.953,1.953,4.513,2.929,7.072,2.929c2.559,0,5.118-0.976,7.07-2.929C486.485,193.555,486.485,187.223,482.58,183.317z" data-original="#000000" class="active-path" data-old_color="#efafac" fill="#efafac"/>
	</g>
</g></g> </svg>
