<svg xmlns="http://www.w3.org/2000/svg" viewBox="0 0 323.08 236.64"><defs><style>.cls-1{fill:#f7bcbe;}</style></defs><title>Middel 2</title><g id="Laag_2" data-name="Laag 2"><g id="Laag_1-2" data-name="Laag 1"><path class="cls-1" d="M321.44,36.18a2.73,2.73,0,0,0-2.95.52l-71.94,69.13V2.74A2.68,2.68,0,0,0,245,.27a2.72,2.72,0,0,0-2.9.35L161.56,67.15,81,.62A2.72,2.72,0,0,0,78.1.27a2.68,2.68,0,0,0-1.56,2.47V105.83L4.64,36.7a2.79,2.79,0,0,0-3-.52A2.75,2.75,0,0,0,0,38.69V233.91a2.72,2.72,0,0,0,2.73,2.73H79.27A2.72,2.72,0,0,0,82,233.91V118.65l9,8.62,2.25,2.17,33.44,32.14,3.16,3.08,29.76,28.59a1.71,1.71,0,0,0,.43.35,1,1,0,0,0,.48.26,2.59,2.59,0,0,0,2.12,0,1,1,0,0,0,.48-.26,1,1,0,0,0,.35-.26l.09-.09L194,163.91l3-2.95,32.83-31.53,2.25-2.17,9-8.62V233.91a2.74,2.74,0,0,0,2.73,2.73h76.54a2.72,2.72,0,0,0,2.73-2.73V38.69a2.75,2.75,0,0,0-1.65-2.51M5.46,45.1,38,76.37V231.18H5.46ZM76.54,231.18H43.44V81.62l33.09,31.79ZM241.09,8.5V56.58l-43.92,40L165.81,70.7Zm-48,91.79L162,128.52,130.29,100l31.27-25.82ZM82,8.5l75.28,62.2L126.22,96.34,82,56.58Zm0,102.57V63.86l40,36-27.81,23Zm16.16,15.51,27.94-23L158,132.21l-27.72,25.25Zm63.41,61-27.37-26.29,27.89-25.38,27.51,24.73Zm31.92-30.71-27.37-24.65,31.23-28.42,27.59,22.79Zm47.6-45.78-12.17,11.74-27.51-22.74,39.68-36.12Zm5.46,2.34,33.09-31.79,0,0V231.18H246.55Zm71.08,117.77H285.12V76.35l0,0L317.63,45.1Z"/></g></g></svg>