<svg height='300px' width='300px'  fill="#000000" xmlns="http://www.w3.org/2000/svg" xmlns:xlink="http://www.w3.org/1999/xlink" version="1.1" x="0px" y="0px" viewBox="0 0 100 100" enable-background="new 0 0 100 100" xml:space="preserve"><path d="M50,5C25.187,5,5,25.187,5,50c0,24.813,20.187,45,45,45c24.813,0,45-20.188,45-45C95,25.187,74.813,5,50,5z M50,90.208  C27.83,90.208,9.792,72.17,9.792,50S27.83,9.792,50,9.792S90.208,27.83,90.208,50S72.17,90.208,50,90.208z"></path><path d="M50.086,64.141c-2.443,0-4.43,1.989-4.43,4.434c0,2.442,1.987,4.426,4.43,4.426c2.444,0,4.431-1.983,4.431-4.426  C54.518,66.13,52.53,64.141,50.086,64.141z"></path><path d="M60.949,30.303C57.857,28.048,54.506,27,50.397,27c-3.694,0-7.259,1.229-10.596,3.652c-2.436,1.767-4.037,4.416-4.759,7.874  l-0.196,0.935l5.16,0.56l0.19-0.72c0.607-2.29,1.888-4.251,3.711-5.67c1.756-1.376,3.947-2.074,6.507-2.074  c2.834,0,5.144,0.684,6.869,2.032c1.769,1.382,2.704,3.379,2.704,5.777c0,1.15-0.325,2.231-0.968,3.214  c-0.631,0.967-1.928,2.191-3.964,3.746c-2.886,2.196-4.808,3.965-5.713,5.256c-1.283,1.826-1.932,4.125-1.931,6.879l0.068,1.268  h5.217l0.046-0.82c0.12-2.17,0.459-3.777,1.007-4.777c0.627-1.138,2.16-2.633,4.692-4.573c2.796-2.18,4.19-4.055,5.188-5.608  c1.024-1.629,1.523-3.241,1.523-4.928C65.151,35.43,63.619,32.252,60.949,30.303z"></path></svg>