<svg xmlns="http://www.w3.org/2000/svg" width="766.34" height="1075" viewBox="0 0 766.34 1075"><g id="Layer_2" data-name="Layer 2"><g id="_1" data-name="1"><g opacity="0.3"><rect width="273" height="1075" fill="#41fde4"/></g><g opacity="0.15"><ellipse cx="754.12" cy="70.75" rx="12.22" ry="12.75" fill="#344f6a"/><path d="M754.12,140.46a12.76,12.76,0,1,0,12.22,12.74A12.5,12.5,0,0,0,754.12,140.46Z" fill="#344f6a"/><path d="M754.12,222.92a12.76,12.76,0,1,0,12.22,12.74A12.49,12.49,0,0,0,754.12,222.92Z" fill="#344f6a"/><ellipse cx="754.12" cy="318.12" rx="12.22" ry="12.75" fill="#344f6a"/><ellipse cx="754.12" cy="400.58" rx="12.22" ry="12.75" fill="#344f6a"/><ellipse cx="754.12" cy="483.04" rx="12.22" ry="12.75" fill="#344f6a"/><path d="M754.12,552.75a12.76,12.76,0,1,0,12.22,12.75A12.5,12.5,0,0,0,754.12,552.75Z" fill="#344f6a"/><ellipse cx="754.12" cy="647.96" rx="12.22" ry="12.75" fill="#344f6a"/><ellipse cx="754.12" cy="730.42" rx="12.22" ry="12.75" fill="#344f6a"/><ellipse cx="754.12" cy="812.88" rx="12.22" ry="12.75" fill="#344f6a"/><ellipse cx="754.12" cy="895.34" rx="12.22" ry="12.75" fill="#344f6a"/><path d="M754.12,965.05a12.76,12.76,0,1,0,12.22,12.75A12.5,12.5,0,0,0,754.12,965.05Z" fill="#344f6a"/><ellipse cx="754.12" cy="1060.25" rx="12.22" ry="12.75" fill="#344f6a"/><path d="M693,58a12.76,12.76,0,1,0,12.22,12.75A12.49,12.49,0,0,0,693,58Z" fill="#344f6a"/><path d="M693,140.46a12.76,12.76,0,1,0,12.22,12.74A12.49,12.49,0,0,0,693,140.46Z" fill="#344f6a"/><path d="M693,222.92a12.76,12.76,0,1,0,12.22,12.74A12.48,12.48,0,0,0,693,222.92Z" fill="#344f6a"/><path d="M693,305.38a12.76,12.76,0,1,0,12.22,12.74A12.48,12.48,0,0,0,693,305.38Z" fill="#344f6a"/><path d="M693,387.84a12.76,12.76,0,1,0,12.22,12.74A12.48,12.48,0,0,0,693,387.84Z" fill="#344f6a"/><path d="M693,470.3A12.76,12.76,0,1,0,705.21,483,12.48,12.48,0,0,0,693,470.3Z" fill="#344f6a"/><path d="M693,552.75a12.76,12.76,0,1,0,12.22,12.75A12.49,12.49,0,0,0,693,552.75Z" fill="#344f6a"/><path d="M693,635.21A12.76,12.76,0,1,0,705.21,648,12.49,12.49,0,0,0,693,635.21Z" fill="#344f6a"/><path d="M693,717.67a12.76,12.76,0,1,0,12.22,12.75A12.49,12.49,0,0,0,693,717.67Z" fill="#344f6a"/><path d="M693,800.13a12.76,12.76,0,1,0,12.22,12.75A12.49,12.49,0,0,0,693,800.13Z" fill="#344f6a"/><path d="M693,882.59a12.76,12.76,0,1,0,12.22,12.75A12.49,12.49,0,0,0,693,882.59Z" fill="#344f6a"/><path d="M693,965.05a12.76,12.76,0,1,0,12.22,12.75A12.49,12.49,0,0,0,693,965.05Z" fill="#344f6a"/><path d="M693,1047.51a12.76,12.76,0,1,0,12.22,12.74A12.49,12.49,0,0,0,693,1047.51Z" fill="#344f6a"/><path d="M631.86,58a12.76,12.76,0,1,0,12.22,12.75A12.49,12.49,0,0,0,631.86,58Z" fill="#344f6a"/><path d="M631.86,140.46a12.76,12.76,0,1,0,12.22,12.74A12.49,12.49,0,0,0,631.86,140.46Z" fill="#344f6a"/><path d="M631.86,222.92a12.76,12.76,0,1,0,12.22,12.74A12.48,12.48,0,0,0,631.86,222.92Z" fill="#344f6a"/><path d="M631.86,305.38a12.76,12.76,0,1,0,12.22,12.74A12.48,12.48,0,0,0,631.86,305.38Z" fill="#344f6a"/><path d="M631.86,387.84a12.76,12.76,0,1,0,12.22,12.74A12.48,12.48,0,0,0,631.86,387.84Z" fill="#344f6a"/><path d="M631.86,470.3A12.76,12.76,0,1,0,644.08,483,12.48,12.48,0,0,0,631.86,470.3Z" fill="#344f6a"/><path d="M631.86,552.75a12.76,12.76,0,1,0,12.22,12.75A12.49,12.49,0,0,0,631.86,552.75Z" fill="#344f6a"/><path d="M631.86,635.21A12.76,12.76,0,1,0,644.08,648,12.49,12.49,0,0,0,631.86,635.21Z" fill="#344f6a"/><path d="M631.86,717.67a12.76,12.76,0,1,0,12.22,12.75A12.49,12.49,0,0,0,631.86,717.67Z" fill="#344f6a"/><path d="M631.86,800.13a12.76,12.76,0,1,0,12.22,12.75A12.49,12.49,0,0,0,631.86,800.13Z" fill="#344f6a"/><path d="M631.86,882.59a12.76,12.76,0,1,0,12.22,12.75A12.49,12.49,0,0,0,631.86,882.59Z" fill="#344f6a"/><path d="M631.86,965.05a12.76,12.76,0,1,0,12.22,12.75A12.49,12.49,0,0,0,631.86,965.05Z" fill="#344f6a"/><path d="M631.86,1047.51a12.76,12.76,0,1,0,12.22,12.74A12.49,12.49,0,0,0,631.86,1047.51Z" fill="#344f6a"/><path d="M570.73,58A12.76,12.76,0,1,0,583,70.75,12.49,12.49,0,0,0,570.73,58Z" fill="#344f6a"/><path d="M570.73,140.46A12.76,12.76,0,1,0,583,153.2,12.49,12.49,0,0,0,570.73,140.46Z" fill="#344f6a"/><path d="M570.73,222.92A12.76,12.76,0,1,0,583,235.66,12.48,12.48,0,0,0,570.73,222.92Z" fill="#344f6a"/><path d="M570.73,305.38A12.76,12.76,0,1,0,583,318.12,12.48,12.48,0,0,0,570.73,305.38Z" fill="#344f6a"/><path d="M570.73,387.84A12.76,12.76,0,1,0,583,400.58,12.48,12.48,0,0,0,570.73,387.84Z" fill="#344f6a"/><path d="M570.73,470.3A12.76,12.76,0,1,0,583,483,12.48,12.48,0,0,0,570.73,470.3Z" fill="#344f6a"/><path d="M570.73,552.75A12.76,12.76,0,1,0,583,565.5,12.49,12.49,0,0,0,570.73,552.75Z" fill="#344f6a"/><path d="M570.73,635.21A12.76,12.76,0,1,0,583,648,12.49,12.49,0,0,0,570.73,635.21Z" fill="#344f6a"/><path d="M570.73,717.67A12.76,12.76,0,1,0,583,730.42,12.49,12.49,0,0,0,570.73,717.67Z" fill="#344f6a"/><path d="M570.73,800.13A12.76,12.76,0,1,0,583,812.88,12.49,12.49,0,0,0,570.73,800.13Z" fill="#344f6a"/><path d="M570.73,882.59A12.76,12.76,0,1,0,583,895.34,12.49,12.49,0,0,0,570.73,882.59Z" fill="#344f6a"/><path d="M570.73,965.05A12.76,12.76,0,1,0,583,977.8,12.49,12.49,0,0,0,570.73,965.05Z" fill="#344f6a"/><path d="M570.73,1047.51A12.76,12.76,0,1,0,583,1060.25,12.49,12.49,0,0,0,570.73,1047.51Z" fill="#344f6a"/><path d="M509.61,58a12.76,12.76,0,1,0,12.22,12.75A12.5,12.5,0,0,0,509.61,58Z" fill="#344f6a"/><path d="M509.61,140.46a12.76,12.76,0,1,0,12.22,12.74A12.5,12.5,0,0,0,509.61,140.46Z" fill="#344f6a"/><path d="M509.61,222.92a12.76,12.76,0,1,0,12.22,12.74A12.49,12.49,0,0,0,509.61,222.92Z" fill="#344f6a"/><path d="M509.61,305.38a12.76,12.76,0,1,0,12.22,12.74A12.49,12.49,0,0,0,509.61,305.38Z" fill="#344f6a"/><path d="M509.61,387.84a12.76,12.76,0,1,0,12.22,12.74A12.49,12.49,0,0,0,509.61,387.84Z" fill="#344f6a"/><path d="M509.61,470.3A12.76,12.76,0,1,0,521.83,483,12.49,12.49,0,0,0,509.61,470.3Z" fill="#344f6a"/><path d="M509.61,552.75a12.76,12.76,0,1,0,12.22,12.75A12.5,12.5,0,0,0,509.61,552.75Z" fill="#344f6a"/><path d="M509.61,635.21A12.76,12.76,0,1,0,521.83,648,12.5,12.5,0,0,0,509.61,635.21Z" fill="#344f6a"/><path d="M509.61,717.67a12.76,12.76,0,1,0,12.22,12.75A12.5,12.5,0,0,0,509.61,717.67Z" fill="#344f6a"/><path d="M509.61,800.13a12.76,12.76,0,1,0,12.22,12.75A12.5,12.5,0,0,0,509.61,800.13Z" fill="#344f6a"/><path d="M509.61,882.59a12.76,12.76,0,1,0,12.22,12.75A12.5,12.5,0,0,0,509.61,882.59Z" fill="#344f6a"/><path d="M509.61,965.05a12.76,12.76,0,1,0,12.22,12.75A12.5,12.5,0,0,0,509.61,965.05Z" fill="#344f6a"/><path d="M509.61,1047.51a12.76,12.76,0,1,0,12.22,12.74A12.5,12.5,0,0,0,509.61,1047.51Z" fill="#344f6a"/><ellipse cx="448.48" cy="70.75" rx="12.22" ry="12.75" fill="#344f6a"/><path d="M448.48,140.46A12.76,12.76,0,1,0,460.7,153.2,12.49,12.49,0,0,0,448.48,140.46Z" fill="#344f6a"/><path d="M448.48,222.92a12.76,12.76,0,1,0,12.22,12.74A12.48,12.48,0,0,0,448.48,222.92Z" fill="#344f6a"/><ellipse cx="448.48" cy="318.12" rx="12.22" ry="12.75" fill="#344f6a"/><ellipse cx="448.48" cy="400.58" rx="12.22" ry="12.75" fill="#344f6a"/><ellipse cx="448.48" cy="483.04" rx="12.22" ry="12.75" fill="#344f6a"/><path d="M448.48,552.75A12.76,12.76,0,1,0,460.7,565.5,12.49,12.49,0,0,0,448.48,552.75Z" fill="#344f6a"/><ellipse cx="448.48" cy="647.96" rx="12.22" ry="12.75" fill="#344f6a"/><ellipse cx="448.48" cy="730.42" rx="12.22" ry="12.75" fill="#344f6a"/><ellipse cx="448.48" cy="812.88" rx="12.22" ry="12.75" fill="#344f6a"/><ellipse cx="448.48" cy="895.34" rx="12.22" ry="12.75" fill="#344f6a"/><path d="M448.48,965.05A12.76,12.76,0,1,0,460.7,977.8,12.49,12.49,0,0,0,448.48,965.05Z" fill="#344f6a"/><ellipse cx="448.48" cy="1060.25" rx="12.22" ry="12.75" fill="#344f6a"/><ellipse cx="387.35" cy="70.75" rx="12.22" ry="12.75" fill="#344f6a"/><path d="M387.35,140.46a12.76,12.76,0,1,0,12.22,12.74A12.49,12.49,0,0,0,387.35,140.46Z" fill="#344f6a"/><path d="M387.35,222.92a12.76,12.76,0,1,0,12.22,12.74A12.48,12.48,0,0,0,387.35,222.92Z" fill="#344f6a"/><ellipse cx="387.35" cy="318.12" rx="12.22" ry="12.75" fill="#344f6a"/><ellipse cx="387.35" cy="400.58" rx="12.22" ry="12.75" fill="#344f6a"/><ellipse cx="387.35" cy="483.04" rx="12.22" ry="12.75" fill="#344f6a"/><path d="M387.35,552.75a12.76,12.76,0,1,0,12.22,12.75A12.49,12.49,0,0,0,387.35,552.75Z" fill="#344f6a"/><ellipse cx="387.35" cy="647.96" rx="12.22" ry="12.75" fill="#344f6a"/><ellipse cx="387.35" cy="730.42" rx="12.22" ry="12.75" fill="#344f6a"/><ellipse cx="387.35" cy="812.88" rx="12.22" ry="12.75" fill="#344f6a"/><ellipse cx="387.35" cy="895.34" rx="12.22" ry="12.75" fill="#344f6a"/><path d="M387.35,965.05a12.76,12.76,0,1,0,12.22,12.75A12.49,12.49,0,0,0,387.35,965.05Z" fill="#344f6a"/><ellipse cx="387.35" cy="1060.25" rx="12.22" ry="12.75" fill="#344f6a"/><path d="M326.22,58a12.76,12.76,0,1,0,12.22,12.75A12.49,12.49,0,0,0,326.22,58Z" fill="#344f6a"/><path d="M326.22,140.46a12.76,12.76,0,1,0,12.22,12.74A12.49,12.49,0,0,0,326.22,140.46Z" fill="#344f6a"/><path d="M326.22,222.92a12.76,12.76,0,1,0,12.22,12.74A12.48,12.48,0,0,0,326.22,222.92Z" fill="#344f6a"/><path d="M326.22,305.38a12.76,12.76,0,1,0,12.22,12.74A12.48,12.48,0,0,0,326.22,305.38Z" fill="#344f6a"/><path d="M326.22,387.84a12.76,12.76,0,1,0,12.22,12.74A12.48,12.48,0,0,0,326.22,387.84Z" fill="#344f6a"/><path d="M326.22,470.3A12.76,12.76,0,1,0,338.44,483,12.48,12.48,0,0,0,326.22,470.3Z" fill="#344f6a"/><path d="M326.22,552.75a12.76,12.76,0,1,0,12.22,12.75A12.49,12.49,0,0,0,326.22,552.75Z" fill="#344f6a"/><path d="M326.22,635.21A12.76,12.76,0,1,0,338.44,648,12.49,12.49,0,0,0,326.22,635.21Z" fill="#344f6a"/><path d="M326.22,717.67a12.76,12.76,0,1,0,12.22,12.75A12.49,12.49,0,0,0,326.22,717.67Z" fill="#344f6a"/><path d="M326.22,800.13a12.76,12.76,0,1,0,12.22,12.75A12.49,12.49,0,0,0,326.22,800.13Z" fill="#344f6a"/><path d="M326.22,882.59a12.76,12.76,0,1,0,12.22,12.75A12.49,12.49,0,0,0,326.22,882.59Z" fill="#344f6a"/><path d="M326.22,965.05a12.76,12.76,0,1,0,12.22,12.75A12.49,12.49,0,0,0,326.22,965.05Z" fill="#344f6a"/><path d="M326.22,1047.51a12.76,12.76,0,1,0,12.22,12.74A12.49,12.49,0,0,0,326.22,1047.51Z" fill="#344f6a"/></g></g></g></svg>