<svg xmlns="http://www.w3.org/2000/svg" xmlns:xlink="http://www.w3.org/1999/xlink" width="987" height="1081.56" viewBox="0 0 987 1081.56"><defs><linearGradient id="Névtelen_színátmenet_41" x1="5118.21" y1="7621.2" x2="5474.07" y2="7621.2" gradientTransform="matrix(1, 0, 0, -1, -4998.15, 8355.61)" gradientUnits="userSpaceOnUse"><stop offset="0" stop-color="#9520ce"/><stop offset="0.42" stop-color="#6070d5"/><stop offset="0.82" stop-color="#30b7dc"/><stop offset="1" stop-color="#1ed3de"/></linearGradient><linearGradient id="Névtelen_színátmenet_2" x1="5264.36" y1="7873.39" x2="5725.18" y2="7873.39" gradientTransform="matrix(1, 0, 0, -1, -4998.15, 8355.61)" gradientUnits="userSpaceOnUse"><stop offset="0" stop-color="#1ed3de"/><stop offset="0.02" stop-color="#20d5de"/><stop offset="0.38" stop-color="#33ece1"/><stop offset="0.71" stop-color="#3ffae3"/><stop offset="1" stop-color="#43ffe4"/></linearGradient><linearGradient id="Névtelen_színátmenet_66" x1="-2688.78" y1="17839.84" x2="-2688.78" y2="17716.51" gradientTransform="matrix(0, 1, 1, 0, -17112.9, 3608.76)" gradientUnits="userSpaceOnUse"><stop offset="0" stop-color="#fff"/><stop offset="0.37" stop-color="#ffddf0"/><stop offset="0.77" stop-color="#ffbde1"/><stop offset="1" stop-color="#ffb1dc"/></linearGradient><linearGradient id="Névtelen_színátmenet_66-2" x1="-3129.84" y1="17427.55" x2="-3129.84" y2="17324.36" xlink:href="#Névtelen_színátmenet_66"/><linearGradient id="Névtelen_színátmenet_41-2" x1="5461" y1="7583.27" x2="5587.73" y2="7583.27" xlink:href="#Névtelen_színátmenet_41"/><linearGradient id="Névtelen_színátmenet_41-3" x1="5797.45" y1="8231.2" x2="5894.73" y2="8231.2" xlink:href="#Névtelen_színátmenet_41"/><linearGradient id="Névtelen_színátmenet_7" x1="5001.85" y1="7736.69" x2="5207.94" y2="7736.69" gradientTransform="matrix(1, 0, 0, -1, -4998.15, 8355.61)" gradientUnits="userSpaceOnUse"><stop offset="0" stop-color="#ff5fd1"/><stop offset="0.05" stop-color="#ff66d2"/><stop offset="0.31" stop-color="#ff87d6"/><stop offset="0.56" stop-color="#ff9ed9"/><stop offset="0.8" stop-color="#ffacdb"/><stop offset="1" stop-color="#ffb1dc"/></linearGradient><linearGradient id="Névtelen_színátmenet_45" x1="5768.7" y1="7996.1" x2="5981.19" y2="7996.1" gradientTransform="matrix(1, 0, 0, -1, -4998.15, 8355.61)" gradientUnits="userSpaceOnUse"><stop offset="0" stop-color="#fff"/><stop offset="0.15" stop-color="#c6f4f7"/><stop offset="0.31" stop-color="#93eaef"/><stop offset="0.46" stop-color="#69e2e9"/><stop offset="0.61" stop-color="#48dbe4"/><stop offset="0.75" stop-color="#31d7e1"/><stop offset="0.89" stop-color="#23d4df"/><stop offset="1" stop-color="#1ed3de"/></linearGradient><linearGradient id="Névtelen_színátmenet_7-2" x1="5207.08" y1="8240.16" x2="5337.65" y2="8240.16" xlink:href="#Névtelen_színátmenet_7"/><linearGradient id="Névtelen_színátmenet_45-2" x1="5103.24" y1="7690.49" x2="5228.68" y2="7690.49" xlink:href="#Névtelen_színátmenet_45"/><linearGradient id="Névtelen_színátmenet_7-3" x1="5326.56" y1="7721.88" x2="5457.13" y2="7721.88" xlink:href="#Névtelen_színátmenet_7"/><linearGradient id="Névtelen_színátmenet_41-4" x1="5056.57" y1="7863.47" x2="5155.13" y2="7863.47" xlink:href="#Névtelen_színátmenet_41"/><linearGradient id="Névtelen_színátmenet_41-5" x1="5118.43" y1="7575.54" x2="5215.71" y2="7575.54" xlink:href="#Névtelen_színátmenet_41"/><linearGradient id="Névtelen_színátmenet_41-6" x1="5543.54" y1="8013.64" x2="5642.1" y2="8013.64" xlink:href="#Névtelen_színátmenet_41"/><linearGradient id="Névtelen_színátmenet_66-3" x1="-3303.02" y1="17994.17" x2="-3303.02" y2="17870.84" xlink:href="#Névtelen_színátmenet_66"/></defs><g id="Layer_2" data-name="Layer 2"><g id="nav"><polygon points="0 1081.56 0 198.56 987 1065.56 987 1081.56 0 1081.56" fill="#e8bfd9"/><polygon points="297.99 554.41 120.06 734.41 297.99 914.41 475.92 734.41 297.99 554.41" fill="url(#Névtelen_színátmenet_41)"/><polygon points="496.62 249.12 266.21 482.22 496.62 715.31 727.03 482.22 496.62 249.12" fill="url(#Névtelen_színátmenet_2)"/><polygon points="665.5 857.59 603.61 920.21 665.06 982.36 726.94 919.75 665.5 857.59" fill="url(#Névtelen_színátmenet_66)"/><polygon points="263.24 426.72 211.45 479.11 262.87 531.12 314.65 478.74 263.24 426.72" fill="url(#Névtelen_színátmenet_66-2)"/><polygon points="525.58 708.24 462.86 771.7 526.86 836.45 589.59 772.99 525.58 708.24" fill="url(#Névtelen_színátmenet_41-2)"/><polygon points="847.94 75.2 799.3 124.41 847.94 173.62 896.59 124.41 847.94 75.2" fill="url(#Névtelen_színátmenet_41-3)"/><polygon points="107.39 514.68 3.71 619.57 106.11 723.17 209.8 618.27 107.39 514.68" fill="url(#Névtelen_színátmenet_7)"/><polygon points="876.8 252.03 770.56 359.52 876.8 467 983.05 359.52 876.8 252.03" fill="url(#Névtelen_színátmenet_45)"/><polygon points="274.22 49.41 208.94 115.46 274.22 181.5 339.5 115.46 274.22 49.41" fill="url(#Névtelen_színátmenet_7-2)"/><polygon points="685.4 58.86 508.59 237.73 685.24 416.44 862.05 237.57 685.4 58.86" fill="#fff"/><polygon points="167.82 601.67 105.09 665.13 167.82 728.58 230.54 665.13 167.82 601.67" fill="url(#Névtelen_színátmenet_45-2)"/><polygon points="393.7 567.69 328.42 633.74 393.7 699.78 458.98 633.74 393.7 567.69" fill="url(#Névtelen_színátmenet_7-3)"/><polygon points="108.35 442.29 58.42 492.8 107.07 542 156.99 491.5 108.35 442.29" fill="url(#Névtelen_színátmenet_41-4)"/><polygon points="168.93 730.86 120.28 780.07 168.93 829.28 217.57 780.07 168.93 730.86" fill="url(#Névtelen_színátmenet_41-5)"/><polygon points="595.31 292.11 545.39 342.62 594.03 391.83 643.95 341.33 595.31 292.11" fill="url(#Névtelen_színátmenet_41-6)"/><polygon points="819.82 243.36 757.94 305.97 819.38 368.13 881.26 305.52 819.82 243.36" fill="url(#Névtelen_színátmenet_66-3)"/><g opacity="0.7"><path d="M497.61,447a3.25,3.25,0,0,0-.95-2.31,3.21,3.21,0,0,0-4.56,0L265.23,674.17a3.28,3.28,0,0,0,0,4.61,3.2,3.2,0,0,0,4.57,0L496.66,449.27A3.24,3.24,0,0,0,497.61,447Z" fill="#fff"/><path d="M514,463.54a3.27,3.27,0,0,0-.94-2.31,3.19,3.19,0,0,0-4.56,0L281.62,690.74a3.3,3.3,0,0,0,0,4.62,3.21,3.21,0,0,0,4.56,0L513.05,465.85A3.29,3.29,0,0,0,514,463.54Z" fill="#fff"/><path d="M530.38,480.11a3.26,3.26,0,0,0-1-2.3,3.19,3.19,0,0,0-4.56,0L298,707.32a3.28,3.28,0,0,0,0,4.61,3.19,3.19,0,0,0,4.56,0L529.43,482.42A3.28,3.28,0,0,0,530.38,480.11Z" fill="#fff"/><path d="M546.76,496.69a3.27,3.27,0,0,0-.94-2.31,3.21,3.21,0,0,0-4.56,0L314.39,723.89a3.3,3.3,0,0,0,0,4.62,3.19,3.19,0,0,0,4.56,0L545.82,499A3.29,3.29,0,0,0,546.76,496.69Z" fill="#fff"/><path d="M563.15,513.26a3.26,3.26,0,0,0-.95-2.3,3.19,3.19,0,0,0-4.56,0L330.77,740.47a3.3,3.3,0,0,0,0,4.62,3.21,3.21,0,0,0,4.56,0L562.2,515.57A3.28,3.28,0,0,0,563.15,513.26Z" fill="#fff"/><path d="M579.53,529.84a3.27,3.27,0,0,0-.94-2.31,3.22,3.22,0,0,0-4.57,0L347.15,757a3.3,3.3,0,0,0,0,4.62,3.22,3.22,0,0,0,4.57,0L578.59,532.15A3.29,3.29,0,0,0,579.53,529.84Z" fill="#fff"/><path d="M595.91,546.41a3.29,3.29,0,0,0-.94-2.31,3.21,3.21,0,0,0-4.56,0L363.54,773.62a3.28,3.28,0,0,0,0,4.61,3.19,3.19,0,0,0,4.56,0L595,548.72A3.27,3.27,0,0,0,595.91,546.41Z" fill="#fff"/><path d="M612.3,563a3.28,3.28,0,0,0-.95-2.31,3.21,3.21,0,0,0-4.56,0L379.92,790.19a3.3,3.3,0,0,0,0,4.62,3.22,3.22,0,0,0,4.57,0L611.35,565.3A3.3,3.3,0,0,0,612.3,563Z" fill="#fff"/><path d="M628.68,579.56a3.25,3.25,0,0,0-.94-2.3,3.19,3.19,0,0,0-4.56,0L396.31,806.77a3.28,3.28,0,0,0,0,4.61,3.19,3.19,0,0,0,4.56,0L627.74,581.87A3.27,3.27,0,0,0,628.68,579.56Z" fill="#fff"/><path d="M645.07,596.14a3.28,3.28,0,0,0-1-2.31,3.21,3.21,0,0,0-4.56,0L412.69,823.34a3.3,3.3,0,0,0,0,4.62,3.21,3.21,0,0,0,4.56,0L644.12,598.45A3.3,3.3,0,0,0,645.07,596.14Z" fill="#fff"/><path d="M661.45,612.71a3.25,3.25,0,0,0-.94-2.3,3.19,3.19,0,0,0-4.56,0L429.07,839.92a3.28,3.28,0,0,0,0,4.61,3.2,3.2,0,0,0,4.57,0L660.51,615A3.27,3.27,0,0,0,661.45,612.71Z" fill="#fff"/><path d="M677.84,629.29a3.28,3.28,0,0,0-1-2.31,3.21,3.21,0,0,0-4.56,0L445.46,856.49a3.3,3.3,0,0,0,0,4.62,3.21,3.21,0,0,0,4.56,0L676.89,631.6A3.3,3.3,0,0,0,677.84,629.29Z" fill="#fff"/><path d="M694.22,645.86a3.26,3.26,0,0,0-1-2.3,3.19,3.19,0,0,0-4.56,0L461.84,873.07a3.28,3.28,0,0,0,0,4.61,3.2,3.2,0,0,0,4.57,0L693.27,648.17A3.28,3.28,0,0,0,694.22,645.86Z" fill="#fff"/><path d="M710.6,662.44a3.27,3.27,0,0,0-.94-2.31,3.21,3.21,0,0,0-4.56,0L478.23,889.64a3.3,3.3,0,0,0,0,4.62,3.19,3.19,0,0,0,4.56,0L709.66,664.75A3.29,3.29,0,0,0,710.6,662.44Z" fill="#fff"/><path d="M727,679a3.26,3.26,0,0,0-1-2.3,3.19,3.19,0,0,0-4.56,0L494.61,906.22a3.3,3.3,0,0,0,0,4.62,3.21,3.21,0,0,0,4.56,0L726,681.32A3.28,3.28,0,0,0,727,679Z" fill="#fff"/></g><path d="M987,592.54,745.69,836.67a3.83,3.83,0,0,1-5.47,0,3.94,3.94,0,0,1,0-5.53L987,581.49Z" fill="#fff"/><path d="M987,632.25,765.31,856.53a3.84,3.84,0,0,1-5.46,0,3.94,3.94,0,0,1,0-5.53L987,621.2Z" fill="#fff"/><path d="M987,672,784.94,876.38a3.85,3.85,0,0,1-5.47,0,3.94,3.94,0,0,1,0-5.53L987,660.9Z" fill="#fff"/><path d="M987,711.67,804.56,896.23a3.82,3.82,0,0,1-5.46,0,3.93,3.93,0,0,1,0-5.52L987,700.61Z" fill="#fff"/><path d="M987,751.38,824.19,916.09a3.83,3.83,0,0,1-5.47,0,3.94,3.94,0,0,1,0-5.53L987,740.32Z" fill="#fff"/><path d="M987,791.09,843.81,935.94a3.82,3.82,0,0,1-5.46,0,3.94,3.94,0,0,1,0-5.53L987,780Z" fill="#fff"/><path d="M987,830.79l-123.56,125a3.83,3.83,0,0,1-5.47,0,3.94,3.94,0,0,1,0-5.53L987,819.73Z" fill="#fff"/><path d="M987,870.5,883.06,975.65a3.82,3.82,0,0,1-5.46,0,3.94,3.94,0,0,1,0-5.53L987,859.44Z" fill="#fff"/><path d="M987,910.21,902.69,995.5a3.83,3.83,0,0,1-5.47,0,3.94,3.94,0,0,1,0-5.53L987,899.15Z" fill="#fff"/><path d="M987,949.92l-64.68,65.44a3.85,3.85,0,0,1-5.47,0,3.94,3.94,0,0,1,0-5.53l70.15-71Z" fill="#fff"/><path d="M987,989.63l-45.06,45.58a3.83,3.83,0,0,1-5.47,0,3.94,3.94,0,0,1,0-5.53L987,978.57Z" fill="#fff"/><path d="M987,1029.33l-25.44,25.74a3.84,3.84,0,0,1-5.46,0,3.94,3.94,0,0,1,0-5.53l30.9-31.26Z" fill="#fff"/><path d="M987,1069l-5.81,5.88a3.82,3.82,0,0,1-5.46,0,3.94,3.94,0,0,1,0-5.53L987,1058Z" fill="#fff"/><path d="M0,483.52,241.31,239.39a3.85,3.85,0,0,1,5.47,0,3.94,3.94,0,0,1,0,5.53L0,494.58Z" fill="#fff"/><path d="M0,443.81,221.69,219.54a3.82,3.82,0,0,1,5.46,0,3.94,3.94,0,0,1,0,5.53L0,454.87Z" fill="#fff"/><path d="M0,404.1,202.06,199.69a3.83,3.83,0,0,1,5.47,0,3.94,3.94,0,0,1,0,5.53L0,415.16Z" fill="#fff"/><path d="M0,364.4,182.44,179.83a3.82,3.82,0,0,1,5.46,0,3.94,3.94,0,0,1,0,5.53L0,375.45Z" fill="#fff"/><path d="M0,324.69,162.81,160a3.83,3.83,0,0,1,5.47,0,3.94,3.94,0,0,1,0,5.53L0,335.74Z" fill="#fff"/><path d="M0,285,143.19,140.13a3.82,3.82,0,0,1,5.46,0,3.93,3.93,0,0,1,0,5.52L0,296Z" fill="#fff"/><path d="M0,245.27l123.56-125a3.83,3.83,0,0,1,5.47,0,3.94,3.94,0,0,1,0,5.53L0,256.33Z" fill="#fff"/><path d="M0,205.56,103.94,100.42a3.82,3.82,0,0,1,5.46,0,3.94,3.94,0,0,1,0,5.53L0,216.62Z" fill="#fff"/><path d="M0,165.86l84.31-85.3a3.85,3.85,0,0,1,5.47,0,3.94,3.94,0,0,1,0,5.53L0,176.91Z" fill="#fff"/><path d="M0,126.15,64.68,60.71a3.83,3.83,0,0,1,5.47,0,3.94,3.94,0,0,1,0,5.53L0,137.2Z" fill="#fff"/><path d="M0,86.44,45.06,40.85a3.85,3.85,0,0,1,5.47,0,3.94,3.94,0,0,1,0,5.53L0,97.5Z" fill="#fff"/><path d="M0,46.73,25.44,21a3.82,3.82,0,0,1,5.46,0,3.94,3.94,0,0,1,0,5.53L0,57.79Z" fill="#fff"/><path d="M0,7,5.81,1.15a3.82,3.82,0,0,1,5.46,0,3.93,3.93,0,0,1,0,5.52L0,18.08Z" fill="#fff"/></g></g></svg>