<svg id="Layer_1" data-name="Layer 1" xmlns="http://www.w3.org/2000/svg" xmlns:xlink="http://www.w3.org/1999/xlink" width="1920" height="911" viewBox="0 0 1920 911"><defs><linearGradient id="linear-gradient" x1="951.3" y1="-172.48" x2="953.78" y2="1092.02" gradientTransform="translate(0 -168)" gradientUnits="userSpaceOnUse"><stop offset="0.07" stop-color="#001f38"/><stop offset="0.12" stop-color="#012746"/><stop offset="0.19" stop-color="#022e51"/><stop offset="0.3" stop-color="#033258"/><stop offset="0.59" stop-color="#03335a"/><stop offset="0.76" stop-color="#002543"/><stop offset="1"/></linearGradient></defs><g id="nav"><rect x="-30" y="-438" width="1965" height="1415" fill="url(#linear-gradient)"/><rect x="20.9" y="-279.9" width="1765.1" height="1876.3" fill="none"/><g opacity="0.59"><path d="M525.1,209.5c-.6.9-1.2,10.6-1.2,10.6s-.1-9.4-.9-10.3c-1.2-1.4-9.1-1.3-9.1-1.3s7.9-.1,8.9-1.4c1.1-1.1,1.1-8.3,1.1-8.3s.4,7.5,1.6,8.5,9.3,1.2,9.3,1.2S525.8,208.6,525.1,209.5Z" fill="#fff"/><path d="M150.6,87c-.6.9-1.2,10.6-1.2,10.6s-.1-9.4-.9-10.3c-1.2-1.4-9.1-1.3-9.1-1.3s7.9-.1,8.9-1.4c1.1-1.1,1.1-8.3,1.1-8.3s.4,7.5,1.6,8.5,9.4,1.2,9.4,1.2S151.3,86.1,150.6,87Z" fill="#fff"/><path d="M222.6,302.2c-.6.9-1.2,10.6-1.2,10.6s-.1-9.4-.9-10.4c-1.2-1.4-9.1-1.3-9.1-1.3s7.9-.1,8.9-1.4c1.1-1.1,1.1-8.3,1.1-8.3s.4,7.5,1.6,8.5,9.3,1.2,9.3,1.2S223.3,301.3,222.6,302.2Z" fill="#fff"/><path d="M916.8,548.6c-1.1,1.8-2.3,19.8-2.3,19.8s-.2-17.5-1.8-19.2c-2.2-2.5-16.9-2.4-16.9-2.4s14.7-.2,16.6-2.6c2.1-2.1,2.1-15.4,2.1-15.4s.8,14,3,15.7c2,2.1,17.4,2.3,17.4,2.3S918.2,546.9,916.8,548.6Z" fill="#fff"/><path d="M1034.7,148.3c-.5.9-1.1,9.6-1.1,9.6s-.1-8.5-.8-9.3c-1.1-1.2-8.2-1.2-8.2-1.2s7.1-.1,8-1.3c1-1,1-7.4,1-7.4s.4,6.8,1.4,7.6c1,1,8.4,1.1,8.4,1.1S1035.3,147.5,1034.7,148.3Z" fill="#fff"/><path d="M1571,50.8c.7.9,9.7,4.5,9.7,4.5s-9-2.8-10.1-2.3c-1.7.7-4.1,8.3-4.1,8.3s2.4-7.5,1.5-8.9c-.7-1.4-7.5-3.7-7.5-3.7s7.3,2,8.5,1.2c1.4-.7,4.1-8.5,4.1-8.5S1570.4,49.8,1571,50.8Z" fill="#fff"/><path d="M1337.3,368c.7.9,9.7,4.5,9.7,4.5s-9-2.8-10.1-2.3c-1.7.7-4.1,8.2-4.1,8.2s2.4-7.5,1.5-8.9c-.7-1.4-7.5-3.7-7.5-3.7s7.3,2,8.5,1.1c1.4-.6,4.1-8.5,4.1-8.5S1336.7,367.1,1337.3,368Z" fill="#fff"/><path d="M1564.3,367.1c.7.9,9.7,4.5,9.7,4.5s-9-2.8-10.1-2.4c-1.7.7-4.1,8.3-4.1,8.3s2.4-7.5,1.5-8.9c-.7-1.4-7.5-3.7-7.5-3.7s7.3,2,8.5,1.1c1.4-.7,4.1-8.5,4.1-8.5S1563.6,366.1,1564.3,367.1Z" fill="#fff"/><path d="M68.1,510.1c-.6.9-1.2,10.6-1.2,10.6s-.1-9.4-.9-10.3c-1.2-1.4-9.1-1.3-9.1-1.3s7.9-.1,8.9-1.4c1.1-1.1,1.1-8.3,1.1-8.3s.4,7.5,1.6,8.5,9.3,1.2,9.3,1.2S68.8,509.1,68.1,510.1Z" fill="#fff"/><path d="M459.8,849.2c-1.1,1.7-2.3,19.8-2.3,19.8s-.2-17.5-1.8-19.2c-2.2-2.5-16.9-2.4-16.9-2.4s14.6-.2,16.6-2.6c2.1-2.1,2.1-15.4,2.1-15.4s.8,14,3,15.7c2,2.1,17.4,2.3,17.4,2.3S461.1,847.4,459.8,849.2Z" fill="#fff"/><path d="M1114,351.4c.7.9,9.7,4.5,9.7,4.5s-9-2.8-10.1-2.4c-1.7.7-4.1,8.3-4.1,8.3s2.3-7.5,1.5-8.9-7.5-3.7-7.5-3.7,7.3,2,8.5,1.1c1.4-.7,4.1-8.5,4.1-8.5S1113.4,350.4,1114,351.4Z" fill="#fff"/><path d="M880.3,668.6c.7.8,9.7,4.5,9.7,4.5s-9-2.8-10.1-2.3c-1.7.7-4.1,8.2-4.1,8.2s2.4-7.5,1.5-8.9c-.7-1.4-7.5-3.7-7.5-3.7s7.3,2,8.5,1.1c1.4-.7,4.1-8.5,4.1-8.5S879.7,667.6,880.3,668.6Z" fill="#fff"/><path d="M1107.3,667.7c.7.8,9.7,4.5,9.7,4.5s-9-2.8-10.1-2.3c-1.7.7-4.1,8.2-4.1,8.2s2.4-7.5,1.5-8.9c-.7-1.4-7.5-3.7-7.5-3.7s7.3,2,8.5,1.2c1.4-.7,4.1-8.5,4.1-8.5S1106.6,666.7,1107.3,667.7Z" fill="#fff"/></g><circle cx="851.5" cy="312.5" r="4.5" fill="#fff"/><g opacity="0.49"><path d="M116.1,149.9c-.9,1.5-1.9,16.8-1.9,16.8s-.2-14.8-1.5-16.3c-1.9-2.1-14.4-2-14.4-2s12.4-.2,14.1-2.2c1.8-1.8,1.8-13.1,1.8-13.1s.7,11.9,2.5,13.3c1.7,1.8,14.7,2,14.7,2S117.2,148.4,116.1,149.9Z" fill="#fff"/><circle cx="184.5" cy="298.5" r="4.5" fill="#fff"/><circle cx="936.5" cy="620.5" r="4.5" fill="#fff"/><circle cx="1078.1" cy="571.8" r="4.5" fill="#fff"/><circle cx="1339.5" cy="112.5" r="4.5" fill="#fff"/><circle cx="1803.5" cy="181.5" r="4.5" fill="#fff"/><circle cx="473.5" cy="692.5" r="4.5" fill="#fff"/></g><g opacity="0.59"><path d="M695.7,655.7c-.6.9-1.2,10.6-1.2,10.6s-.1-9.4-.9-10.3c-1.2-1.3-9.1-1.3-9.1-1.3s7.9-.1,8.9-1.4c1.1-1.1,1.1-8.3,1.1-8.3s.4,7.5,1.6,8.5,9.3,1.2,9.3,1.2S696.4,654.8,695.7,655.7Z" fill="#fff"/><path d="M321.2,533.2c-.6.9-1.2,10.6-1.2,10.6s-.1-9.4-.9-10.3c-1.2-1.3-9.1-1.3-9.1-1.3s7.9-.1,8.9-1.4c1.1-1.1,1.1-8.3,1.1-8.3s.4,7.5,1.6,8.5,9.4,1.2,9.4,1.2S321.9,532.3,321.2,533.2Z" fill="#fff"/><path d="M393.2,748.4c-.6.9-1.2,10.6-1.2,10.6s-.1-9.4-.9-10.3c-1.2-1.3-9.1-1.3-9.1-1.3s7.9-.1,8.9-1.4c1.1-1.1,1.1-8.3,1.1-8.3s.4,7.5,1.6,8.5c1,1.1,9.3,1.2,9.3,1.2S393.9,747.5,393.2,748.4Z" fill="#fff"/><path d="M1205.3,594.5c-.5.8-1.1,9.6-1.1,9.6s-.1-8.5-.8-9.3c-1.1-1.2-8.2-1.2-8.2-1.2s7.1-.1,8-1.3c1-1,1-7.5,1-7.5s.4,6.8,1.4,7.6c1,1,8.4,1.1,8.4,1.1S1205.9,593.7,1205.3,594.5Z" fill="#fff"/><path d="M1741.7,497c.7.9,9.7,4.5,9.7,4.5s-9-2.8-10.1-2.4c-1.7.7-4.1,8.2-4.1,8.2s2.4-7.5,1.5-8.9c-.7-1.4-7.5-3.7-7.5-3.7s7.3,2,8.5,1.1c1.4-.7,4.1-8.5,4.1-8.5S1741,496,1741.7,497Z" fill="#fff"/><path d="M1508,814.2c.7.8,9.7,4.5,9.7,4.5s-9-2.8-10.1-2.3c-1.7.7-4.1,8.3-4.1,8.3s2.4-7.5,1.5-8.9c-.7-1.4-7.5-3.7-7.5-3.7s7.3,2,8.5,1.1c1.4-.7,4.1-8.5,4.1-8.5S1507.3,813.3,1508,814.2Z" fill="#fff"/><path d="M1734.9,813.3c.7.8,9.7,4.5,9.7,4.5s-9-2.8-10.1-2.3c-1.7.7-4.1,8.2-4.1,8.2s2.4-7.5,1.5-8.9c-.7-1.4-7.5-3.7-7.5-3.7s7.3,2,8.5,1.2c1.4-.7,4.1-8.5,4.1-8.5S1734.2,812.3,1734.9,813.3Z" fill="#fff"/><path d="M1284.7,797.5c.7.8,9.7,4.5,9.7,4.5s-9-2.8-10.1-2.3c-1.7.7-4.1,8.2-4.1,8.2s2.3-7.5,1.5-8.9-7.5-3.7-7.5-3.7,7.3,2,8.5,1.2c1.4-.7,4.1-8.5,4.1-8.5S1284,796.6,1284.7,797.5Z" fill="#fff"/></g><g opacity="0.29"><g opacity="0.59"><path d="M1613.9,831.3c.6-.9,1.2-10.6,1.2-10.6s.1,9.4,1,10.3c1.2,1.3,9.1,1.3,9.1,1.3s-7.9.1-8.9,1.4c-1.1,1.1-1.1,8.3-1.1,8.3s-.4-7.5-1.6-8.5-9.3-1.2-9.3-1.2S1613.2,832.3,1613.9,831.3Z" fill="#fff"/><path d="M919.6,584.9c1.1-1.8,2.3-19.8,2.3-19.8s.2,17.5,1.7,19.2c2.2,2.5,16.9,2.4,16.9,2.4s-14.5.3-16.5,2.7c-2.1,2.1-2.1,15.4-2.1,15.4s-.8-14-3-15.7c-2-2.1-17.4-2.3-17.4-2.3S918.3,586.7,919.6,584.9Z" fill="#fff"/><path d="M499.1,765.5c-.7-.8-9.7-4.5-9.7-4.5s9,2.8,10.1,2.3c1.6-.7,4.1-8.2,4.1-8.2s-2.4,7.5-1.5,8.9c.7,1.4,7.5,3.7,7.5,3.7s-7.3-2-8.5-1.2c-1.4.7-4.1,8.5-4.1,8.5S499.8,766.5,499.1,765.5Z" fill="#fff"/><path d="M272.2,766.4c-.7-.9-9.7-4.5-9.7-4.5s9,2.8,10.1,2.3c1.6-.7,4.1-8.3,4.1-8.3s-2.4,7.5-1.5,8.9c.7,1.4,7.5,3.7,7.5,3.7s-7.3-2-8.5-1.1c-1.4.7-4.1,8.5-4.1,8.5S272.9,767.4,272.2,766.4Z" fill="#fff"/><path d="M1768.4,623.5c.6-.9,1.2-10.6,1.2-10.6s.1,9.4.9,10.3c1.2,1.3,9.1,1.3,9.1,1.3s-7.9.1-8.9,1.4c-1.1,1.1-1.1,8.3-1.1,8.3s-.4-7.5-1.6-8.5c-1-1.1-9.3-1.2-9.3-1.2S1767.7,624.4,1768.4,623.5Z" fill="#fff"/><path d="M1376.6,284.4c1.1-1.8,2.3-19.8,2.3-19.8s.2,17.5,1.8,19.2c2.2,2.5,16.9,2.4,16.9,2.4s-14.7.2-16.6,2.6c-2.1,2.1-2.1,15.4-2.1,15.4s-.8-14-3-15.7c-2-2.1-17.4-2.3-17.4-2.3S1375.3,286.1,1376.6,284.4Z" fill="#fff"/><path d="M722.4,782.2c-.7-.8-9.7-4.5-9.7-4.5s9,2.8,10.1,2.3c1.7-.7,4.1-8.3,4.1-8.3s-2.4,7.5-1.5,8.9c.7,1.4,7.5,3.7,7.5,3.7s-7.3-2-8.5-1.1c-1.4.7-4.1,8.5-4.1,8.5S723.1,783.2,722.4,782.2Z" fill="#fff"/><path d="M956.1,465c-.7-.9-9.7-4.5-9.7-4.5s9,2.8,10.1,2.4c1.7-.7,4.1-8.2,4.1-8.2s-2.3,7.5-1.5,8.9,7.5,3.7,7.5,3.7-7.3-2-8.5-1.1c-1.4.7-4.1,8.5-4.1,8.5S956.8,465.9,956.1,465Z" fill="#fff"/><path d="M729.2,465.9c-.7-.9-9.7-4.5-9.7-4.5s9,2.8,10.1,2.4c1.7-.7,4.1-8.3,4.1-8.3s-2.3,7.5-1.5,8.9,7.5,3.7,7.5,3.7-7.3-2-8.5-1.1c-1.4.7-4.1,8.5-4.1,8.5S729.9,466.9,729.2,465.9Z" fill="#fff"/></g><g opacity="0.59"><path d="M1140.8,477.8c.6-.9,1.2-10.6,1.2-10.6s.1,9.4.9,10.3c1.2,1.4,9.1,1.3,9.1,1.3s-7.9.1-8.9,1.4c-1.1,1.1-1.1,8.3-1.1,8.3s-.4-7.5-1.6-8.5-9.3-1.2-9.3-1.2S1140.1,478.7,1140.8,477.8Z" fill="#fff"/><path d="M1515.3,600.3c.6-.9,1.2-10.6,1.2-10.6s.1,9.4.9,10.3c1.2,1.3,9.1,1.3,9.1,1.3s-7.9.1-8.9,1.4c-1.1,1.1-1.1,8.3-1.1,8.3s-.4-7.5-1.6-8.5-9.3-1.2-9.3-1.2S1514.6,601.3,1515.3,600.3Z" fill="#fff"/><path d="M1443.3,385.1c.6-.9,1.2-10.6,1.2-10.6s.1,9.4,1,10.3c1.2,1.4,9.1,1.3,9.1,1.3s-7.9.1-8.9,1.4c-1.1,1.1-1.1,8.3-1.1,8.3s-.4-7.5-1.6-8.5-9.3-1.2-9.3-1.2S1442.6,386.1,1443.3,385.1Z" fill="#fff"/><path d="M749,138.7c1.1-1.8,2.3-19.8,2.3-19.8s.2,17.5,1.7,19.2c2.2,2.5,16.9,2.4,16.9,2.4s-14.6.2-16.6,2.6c-2.1,2.1-2.1,15.4-2.1,15.4s-.8-14-3-15.7c-2-2.1-17.4-2.3-17.4-2.3S747.7,140.5,749,138.7Z" fill="#fff"/><path d="M631.2,539c.5-.8,1.1-9.6,1.1-9.6s.1,8.5.8,9.3c1.1,1.2,8.2,1.2,8.2,1.2s-7.1.1-8,1.3c-1,1-1,7.5-1,7.5s-.4-6.8-1.4-7.6c-1-1-8.4-1.1-8.4-1.1S630.5,539.9,631.2,539Z" fill="#fff"/><path d="M94.8,636.5c-.7-.9-9.7-4.5-9.7-4.5s9,2.8,10.1,2.3c1.7-.7,4.1-8.3,4.1-8.3s-2.3,7.5-1.5,8.9,7.5,3.7,7.5,3.7-7.3-2-8.5-1.2c-1.4.7-4.1,8.5-4.1,8.5S95.5,637.5,94.8,636.5Z" fill="#fff"/><path d="M328.5,319.3c-.7-.9-9.7-4.5-9.7-4.5s9,2.8,10.1,2.3c1.6-.7,4.1-8.2,4.1-8.2s-2.4,7.5-1.5,8.9c.7,1.4,7.5,3.7,7.5,3.7s-7.3-2-8.5-1.1c-1.4.6-4.1,8.5-4.1,8.5S329.2,320.3,328.5,319.3Z" fill="#fff"/><path d="M101.6,320.2c-.7-.9-9.7-4.5-9.7-4.5s9,2.8,10.1,2.4c1.7-.7,4.1-8.3,4.1-8.3s-2.3,7.5-1.5,8.9,7.5,3.7,7.5,3.7-7.3-2-8.5-1.1c-1.4.7-4.1,8.5-4.1,8.5S102.3,321.2,101.6,320.2Z" fill="#fff"/><path d="M1597.8,177.3c.6-.9,1.2-10.6,1.2-10.6s.1,9.4.9,10.3c1.2,1.4,9.1,1.3,9.1,1.3s-7.9.1-8.9,1.4c-1.1,1.1-1.1,8.3-1.1,8.3s-.4-7.5-1.6-8.5-9.3-1.2-9.3-1.2S1597.1,178.2,1597.8,177.3Z" fill="#fff"/><path d="M551.8,336c-.7-.9-9.7-4.5-9.7-4.5s9,2.8,10.1,2.4c1.7-.7,4.1-8.3,4.1-8.3s-2.4,7.5-1.5,8.9c.7,1.4,7.5,3.7,7.5,3.7s-7.3-2-8.5-1.1c-1.4.7-4.1,8.5-4.1,8.5S552.5,337,551.8,336Z" fill="#fff"/><path d="M785.5,86.8c-.7-.8-9.7-4.5-9.7-4.5s9,2.8,10.1,2.3c1.7-.7,4.1-8.2,4.1-8.2s-2.3,7.5-1.5,8.9S796,89,796,89s-7.3-2-8.5-1.1c-1.4.7-4.1,8.5-4.1,8.5S786.2,87.7,785.5,86.8Z" fill="#fff"/><path d="M558.6,19.7c-.7-.9-9.7-4.5-9.7-4.5s9,2.8,10.1,2.4c1.7-.7,4.1-8.2,4.1-8.2s-2.3,7.5-1.5,8.9,7.5,3.7,7.5,3.7-7.3-2-8.5-1.1c-1.4.7-4.1,8.5-4.1,8.5S559.3,20.6,558.6,19.7Z" fill="#fff"/></g></g></g><path d="M1779.78,167.53c60.33-54.06,46-102.35,26.91-102.75,12.73-9.81,10.34-27,1.33-33.54,6.36-2.78,17.5-13.12,20.68-23.07-19.49,13.92-61.38,4.64-67.35,4.64h.53c-6,0-47.86,9.28-67.35-4.64,3.18,10,14.32,20.29,20.68,23.07-9,6.5-11.4,23.73,1.33,33.54-19.09.4-33.42,48.69,26.91,102.75h35.8" stroke="#000" stroke-miterlimit="10"/><path d="M1753.1,61.79c-.24-.73-4.12-.93-4.72-.91-5,.17-9.68,2.47-14.72,1.23a11.33,11.33,0,0,1-8.51-7.54,16.25,16.25,0,0,1-.59-6.76c.08-1,1.07-5.31,1.83-6.07a.35.35,0,0,1,.18-.11,26.13,26.13,0,0,1,2.68.36h.07l.58.12a35.71,35.71,0,0,1,4.12,1.07,35,35,0,0,1,4,1.55h0a29.46,29.46,0,0,1,8.45,5.71A25.06,25.06,0,0,1,1753.1,61.79Z" fill="#404041"/><path d="M1746.51,50.68a10.71,10.71,0,1,1-16.61-8.56,35.71,35.71,0,0,1,4.12,1.07,35,35,0,0,1,4,1.55h0a29.46,29.46,0,0,1,8.45,5.71C1746.5,50.53,1746.51,50.6,1746.51,50.68Z" fill="#fc0"/><path d="M1731.6,58.41a8.27,8.27,0,0,1-2.72-12.26c1-1.37,2.3-2.35,4-1.44C1732.9,44.71,1726.48,50.19,1731.6,58.41Z" fill="#ff9"/><path d="M1736.19,54.79c-3.46-5.07-3.09-9.1-2.17-11.6a35,35,0,0,1,4,1.55h0C1738.91,49.48,1736.19,54.79,1736.19,54.79Z"/><path d="M1753.1,61.81v0h0a18.87,18.87,0,0,0-.84-2.36,22.14,22.14,0,0,0-1.1-2.24c-.41-.72-.82-1.44-1.3-2.12a23.82,23.82,0,0,0-1.49-2c-.53-.63-1.09-1.23-1.66-1.83s-1.18-1.14-1.81-1.67-1.27-1.05-2-1.51a23.8,23.8,0,0,0-2.07-1.36c-.7-.42-1.42-.83-2.16-1.19s-1.49-.7-2.25-1.05-1.52-.64-2.31-.89-1.57-.54-2.36-.77-1.61-.44-2.41-.66-1.63-.34-2.45-.52l-2.46-.45q-1.24-.16-2.49-.36c.84,0,1.68,0,2.52.07l2.52.21c.83.12,1.67.23,2.5.38s1.66.3,2.48.52a25.29,25.29,0,0,1,2.45.67c.82.24,1.61.56,2.41.85s1.57.65,2.33,1,1.51.78,2.25,1.22,1.44.9,2.12,1.42,1.36,1,2,1.6,1.24,1.18,1.83,1.79l.85,1,.78,1a26.24,26.24,0,0,1,2.61,4.38,18.46,18.46,0,0,1,1.47,4.83h0Z"/><path d="M1768.33,61.25c.2-.74,4-1.22,4.64-1.24,5-.18,9.84,1.79,14.78.19a11.27,11.27,0,0,0,8-8.11,16,16,0,0,0,.12-6.79c-.15-1-1.44-5.22-2.25-5.92a.27.27,0,0,0-.19-.1,24.2,24.2,0,0,0-2.65.55h-.06l-.58.16a35.56,35.56,0,0,0-4,1.36,35.1,35.1,0,0,0-3.9,1.82h0a29.3,29.3,0,0,0-8,6.29A25,25,0,0,0,1768.33,61.25Z" fill="#404041"/><path d="M1774.12,49.71a10.72,10.72,0,1,0,16-9.71,35.56,35.56,0,0,0-4,1.36,35.1,35.1,0,0,0-3.9,1.82h0a29.3,29.3,0,0,0-8,6.29Z" fill="#fc0"/><path d="M1789.54,56.36A8.26,8.26,0,0,0,1791.4,44c-1.12-1.3-2.47-2.18-4.11-1.16C1787.29,42.79,1794.07,47.81,1789.54,56.36Z" fill="#ff9"/><path d="M1784.7,53.08c3.1-5.3,2.45-9.29,1.35-11.72a35.1,35.1,0,0,0-3.9,1.82h0C1781.62,48,1784.7,53.08,1784.7,53.08Z"/><path d="M1768.33,61.28v0h0a17.89,17.89,0,0,1,.67-2.41,23.27,23.27,0,0,1,.94-2.31c.36-.75.72-1.5,1.15-2.21s.87-1.4,1.35-2.08,1-1.31,1.53-1.94,1.1-1.22,1.69-1.79,1.19-1.14,1.83-1.65,1.3-1,2-1.5,1.36-.93,2.07-1.34,1.44-.81,2.17-1.2,1.48-.75,2.24-1.06,1.53-.64,2.31-.93,1.57-.55,2.35-.82,1.61-.46,2.4-.7l2.43-.62,2.47-.54c-.84.07-1.68.16-2.51.25l-2.5.39c-.83.18-1.65.34-2.47.56s-1.64.41-2.44.68a25.31,25.31,0,0,0-2.4.85c-.8.29-1.56.67-2.34,1s-1.52.77-2.25,1.21-1.46.89-2.16,1.37-1.38,1-2,1.57-1.28,1.13-1.88,1.74-1.16,1.25-1.7,1.91l-.77,1-.72,1.06a26.2,26.2,0,0,0-2.29,4.55,18.29,18.29,0,0,0-1.13,4.93h0Z"/><path d="M1709.93,577.17s2.17-4.44,6.4-4.3c0,0-1.19,7.56.42,8.73a3,3,0,0,0,4-.13c1.31-1.17,13-20.56,38.54-15.61-10,4.85-18.76,11.09-11.62,22.67-7.51-3.5-25.91,2-23.73,14.3-2-2-5.1-2.21-7.45-1.76-2.26.8-4.78,2.58-5.54,5.3-4.37-11.73-23-7.12-27.7-.29.28-13.6-10.42-14.54-21.51-13.64,19.51-17.23,39.41-6.44,41.13-6.1a3.06,3.06,0,0,0,3.48-1.9c.79-1.82-4.06-7.73-4.06-7.73C1705.81,574.44,1709.93,577.17,1709.93,577.17Z"/><path d="M1644.88,494.39s2.12-2,4.39-1c0,0-2.23,3.88-1.6,4.85a1.81,1.81,0,0,0,2.2.77c1-.37,11.4-8.5,24.32-.43-6.49.54-12.58,2.11-11.11,9.94-3.36-3.49-14.56-4.37-16,2.82a4.7,4.7,0,0,0-7.84-.79c.08-7.33-11.07-8.72-15.07-6,3-7.37-2.64-10.13-8.88-12,14.28-5.31,22.88,4.76,23.74,5.31a1.78,1.78,0,0,0,2.3-.31c.82-.82-.59-5.07-.59-5.07C1643.2,492,1644.88,494.39,1644.88,494.39Z"/><path d="M1505,495.05a3.08,3.08,0,0,1,3.08,0s-2.07,2.26-1.79,3a1.21,1.21,0,0,0,1.35.84c.69-.1,8.89-4,16.3,3.36-4.41-.61-8.71-.47-8.9,5-1.72-2.83-9.07-5.1-11.08-.5a3.23,3.23,0,0,0-5.12-1.71c1.15-4.88-6.08-7.48-9.16-6.24,3.11-4.47-.25-7.17-4.14-9.33,10.33-1.4,14.56,6.61,15,7.1a1.22,1.22,0,0,0,1.59.14c.67-.43.36-3.48.36-3.48A3.08,3.08,0,0,1,1505,495.05Z"/><path d="M1931.33,185.48c-15.25-1-29.87-6.24-45.81-6.41-16.12-.18-30.28-5.5-45.82-8a457.82,457.82,0,0,0-45.82-4.78c-15-.91-28.51-7.21-44-6.42-14.78.76-28.26,7.13-43.07,9.16-16.65,2.29-31.71,5-47.65,8.46-31,6.7-51.91,15-74.22,39.2-8.8,9.54-18.94,19.5-31.11,23.82-13.76,4.89-29.82,5.2-44,8-15,3-28.91,5.57-43,10.48-15,5.2-28.71,5.17-44,8-8.57,1.58-15.57,4.66-24.7,5.54-8.67.85-16.45,3.44-23.5,9,6.47-1.8,14.71-.24,21.67-1.87,8-1.87,14.75-3.23,22.91-4.38,13.94-2,29.46-3.66,43.07-8.47,7.48-2.65,14.2-5.24,22-6.39,4.89-.72,18-4.55,22-3.48,11.41,3-9,8.4-12.6,10.32a90.22,90.22,0,0,0-16.7,11.89c-5.12,4.77-5.71,10.23-9.37,15.15s-9,7.57-13.52,11.45c-8.64,7.39-16.85,19.39-24.42,28.27,8.19-2,10.78-6.76,15.44-12.7s9.67-9.53,15.35-14.19c10.2-8.37,15.85-19.77,26.55-27.49,24.67-17.81,56.64-13.14,83.49-26.09,14.18-6.85,22.8-21.5,32-33.25,9-11.45,25.67-17.32,39.4-20,30.23-5.8,58.59-16.62,90.72-14.87,32.51,1.78,62.91,4.8,94.4,11.94,30.08,6.82,62.93,12.49,89.74,29.53,5.35,3.4,12.84,7.69,15.62,13.51Z"/><path d="M1612.45,199.23c-23,5.94-57-1.49-74.43-18.13-7.31-7-17.28-15.57-22.48-24.25-6.74-11.26-13.34-13.93-24.6-20,5.76,5.71,11.06,10.24,15.92,16.64,6.16,8.11,8.69,16.6,15.6,24,9.37,10.06,9.81,11-4.4,12.57-7.78.84-17.91,2.45-24.41,7.38,16.75-.28,37.41-3,52.15,3.39,15.06,6.49,29.35,14.58,43.74,21.3"/><path d="M1794.8,188.23c-1.51,15.43-23,27.12-36.65,28.45-14,1.37-34-6.44-45.87,3.37-6.19,5.14-5.62,9.68-12.83,13s-9.81,3.13-13.47,11.07c-3.1,6.73-3.55,11.62-9.39,17.39-6.54,6.45-13.33,7.25-20.87,11.22-6.9,3.64-9.47,9.13-12.83,15.28-.09-7.42,5-13.07,10.57-17.54,7.52-6.08,12.71-9.46,18.53-17.21,4.14-5.51,15-15.67,1.85-17.41-8.32-1.09-16.78,5-26.3,1.79,6.26.11,11.29-3.19,17.14-4.34,5.39-1.05,12.47-.07,17.61-1.81,12-4,11.23-16.57,18.79-23.36,7.87-7.06,26.24-5.23,36-6.18,5.56-.54,13.64-.79,18.35-3.65,5.92-3.58,6-9.48,10.06-13.76"/><path d="M1559.3,247.79c0,10.29,5.51,23.09,1.17,32.28-4.16,8.78-12,15.22-15.86,24.56-2.26,5.55-1.06,7-6.39,10.06-4.32,2.46-10.47,1.45-14.87,4.3-11.49,7.44-5.74,20.52-10.83,30.19-.71-7.09-4.33-19.43-.69-26.07,4.24-7.72,16-11.36,22.78-15.75,8.53-5.58,6.74-12.95,12-21.05,6.74-10.31,3.13-15.42,4.4-27.52"/><path d="M1933.17,301.86c-7.11-15.29-33.85-17.1-47.6-26.81-16.29-11.49-22-33.84-43-39.44-.33-.32-.31-.34.07-.05,7.79,11.81,23.3,24.42,25.3,38.65-12.72,7.6-31,1.86-45.65,5.65-19.36,5-36.46,16.5-54,24.54,17.6,1.29,30.26-7.79,44.78-15.16,11.23-5.71,36-6.51,48.61-4.79a92.17,92.17,0,0,1,42,16.74c9.35,6.92,25.21,14.12,29.51,25.41"/><path d="M1933.17,357.75c-9.4-2.42-17.94-2-27.49-3.64s-18-8.87-26.44-12.71c2.9,8,14.76,8.31,16.24,16.15-6.83,2.95-14.1.3-21,4.53-4.49,2.75-10,8.39-13.61,12,12-1.86,22.31-7.59,34.73-9,10.08-1.14,26-6.4,34.93,0-4.55,6.28-11.1,3.84-17.52,5.48-6.77,1.72-13.11,5.88-19.29,9-12.52,6.26-20,16.14-34.57,13.77-10.63-1.74-27.46-3.56-36.89-8.74-12.68-6.95-19.41-15.17-35.43-14.88,13.11-1.58,26.79,10.27,36.19,17.59,6.82,5.3,9.27,6.79,18.51,8.11,6.69,1,14.71,2,21.13,4.56,10,3.92,5.42,6.17-.79,12.85-5,5.41-8.56,11.51-14.79,15.78-6.66,4.57-13.25,4-21.1,4.33-9,.36-14.34,2.67-22.22,7.08-15.26,8.55-32.64,24.13-50.2,24.08s-37.15,4.27-52.15,12.64c11.39-.92,22.38-5.08,33.83-6.22,11-1.1,23.69,2.17,34-.87,9.65-2.86,15.06-12.52,23.73-16.57s22-6.34,31.06-8.08c-1.34,5.34-11.79,9.07-16.35,12.71-4.8,3.83-9.72,8.51-12.83,13.68-5.69,9.48-8.42,22.61-10.38,32,7.23-14.87,13.53-27.65,25.06-40.22,9.33-10.16,25.74-14.81,38.47-19.25,15-5.21,25-13.11,35-26.5,9.08-12.13,16.27-22.77,30.26-30.08,5.94-3.1,14,9,20.85,9Z"/></svg>