<svg xmlns="http://www.w3.org/2000/svg" xmlns:xlink="http://www.w3.org/1999/xlink" width="987" height="1130.07" viewBox="0 0 987 1130.07"><defs><linearGradient id="Névtelen_színátmenet_41" x1="7830.21" y1="-232.36" x2="8186.07" y2="-232.36" gradientTransform="matrix(1, 0, 0, -1, -7710.15, 503.57)" gradientUnits="userSpaceOnUse"><stop offset="0" stop-color="#9520ce"/><stop offset="0.42" stop-color="#6070d5"/><stop offset="0.82" stop-color="#30b7dc"/><stop offset="1" stop-color="#1ed3de"/></linearGradient><linearGradient id="Névtelen_színátmenet_2" x1="7976.36" y1="19.84" x2="8437.18" y2="19.84" gradientTransform="matrix(1, 0, 0, -1, -7710.15, 503.57)" gradientUnits="userSpaceOnUse"><stop offset="0" stop-color="#1ed3de"/><stop offset="0.02" stop-color="#20d5de"/><stop offset="0.38" stop-color="#33ece1"/><stop offset="0.71" stop-color="#3ffae3"/><stop offset="1" stop-color="#43ffe4"/></linearGradient><linearGradient id="Névtelen_színátmenet_66" x1="-142.78" y1="10100.29" x2="-142.78" y2="9976.96" gradientTransform="matrix(0, 1, 1, 0, -9311.35, 1012.27)" gradientUnits="userSpaceOnUse"><stop offset="0" stop-color="#fff"/><stop offset="0.37" stop-color="#ffddf0"/><stop offset="0.77" stop-color="#ffbde1"/><stop offset="1" stop-color="#ffb1dc"/></linearGradient><linearGradient id="Névtelen_színátmenet_66-2" x1="-531.84" y1="9625.99" x2="-531.84" y2="9522.8" xlink:href="#Névtelen_színátmenet_66"/><linearGradient id="Névtelen_színátmenet_41-2" x1="8173" y1="-270.29" x2="8299.73" y2="-270.29" xlink:href="#Névtelen_színátmenet_41"/><linearGradient id="Névtelen_színátmenet_41-3" x1="8509.45" y1="377.64" x2="8606.73" y2="377.64" xlink:href="#Névtelen_színátmenet_41"/><linearGradient id="Névtelen_színátmenet_7" x1="7713.85" y1="-116.87" x2="7919.94" y2="-116.87" gradientTransform="matrix(1, 0, 0, -1, -7710.15, 503.57)" gradientUnits="userSpaceOnUse"><stop offset="0" stop-color="#ff5fd1"/><stop offset="0.05" stop-color="#ff66d2"/><stop offset="0.31" stop-color="#ff87d6"/><stop offset="0.56" stop-color="#ff9ed9"/><stop offset="0.8" stop-color="#ffacdb"/><stop offset="1" stop-color="#ffb1dc"/></linearGradient><linearGradient id="Névtelen_színátmenet_45" x1="8480.7" y1="142.54" x2="8693.19" y2="142.54" gradientTransform="matrix(1, 0, 0, -1, -7710.15, 503.57)" gradientUnits="userSpaceOnUse"><stop offset="0" stop-color="#fff"/><stop offset="0.15" stop-color="#c6f4f7"/><stop offset="0.31" stop-color="#93eaef"/><stop offset="0.46" stop-color="#69e2e9"/><stop offset="0.61" stop-color="#48dbe4"/><stop offset="0.75" stop-color="#31d7e1"/><stop offset="0.89" stop-color="#23d4df"/><stop offset="1" stop-color="#1ed3de"/></linearGradient><linearGradient id="Névtelen_színátmenet_7-2" x1="7919.08" y1="386.6" x2="8049.65" y2="386.6" xlink:href="#Névtelen_színátmenet_7"/><linearGradient id="Névtelen_színátmenet_45-2" x1="7815.24" y1="-163.07" x2="7940.68" y2="-163.07" xlink:href="#Névtelen_színátmenet_45"/><linearGradient id="Névtelen_színátmenet_7-3" x1="8038.56" y1="-131.68" x2="8169.13" y2="-131.68" xlink:href="#Névtelen_színátmenet_7"/><linearGradient id="Névtelen_színátmenet_41-4" x1="7768.57" y1="9.91" x2="7867.13" y2="9.91" xlink:href="#Névtelen_színátmenet_41"/><linearGradient id="Névtelen_színátmenet_41-5" x1="7830.43" y1="-278.02" x2="7927.71" y2="-278.02" xlink:href="#Névtelen_színátmenet_41"/><linearGradient id="Névtelen_színátmenet_41-6" x1="8255.54" y1="160.08" x2="8354.1" y2="160.08" xlink:href="#Névtelen_színátmenet_41"/><linearGradient id="Névtelen_színátmenet_66-3" x1="-705.02" y1="10192.61" x2="-705.02" y2="10069.28" xlink:href="#Névtelen_színátmenet_66"/></defs><g id="Layer_2" data-name="Layer 2"><g id="nav"><rect x="2877" y="-7609" width="657" height="987" transform="translate(-6622 -2403.93) rotate(90)" fill="#e8bfd9"/><polygon points="297.99 555.92 120.06 735.92 297.99 915.93 475.92 735.92 297.99 555.92" fill="url(#Névtelen_színátmenet_41)"/><polygon points="496.62 250.63 266.21 483.73 496.62 716.83 727.03 483.73 496.62 250.63" fill="url(#Névtelen_színátmenet_2)"/><polygon points="727.5 807.11 665.61 869.72 727.06 931.88 788.94 869.27 727.5 807.11" fill="url(#Névtelen_színátmenet_66)"/><polygon points="263.24 428.24 211.45 480.63 262.87 532.64 314.65 480.25 263.24 428.24" fill="url(#Névtelen_színátmenet_66-2)"/><polygon points="525.58 709.76 462.86 773.21 526.86 837.96 589.59 774.5 525.58 709.76" fill="url(#Névtelen_színátmenet_41-2)"/><polygon points="847.94 76.72 799.3 125.92 847.94 175.13 896.59 125.92 847.94 76.72" fill="url(#Névtelen_színátmenet_41-3)"/><polygon points="107.39 516.19 3.71 621.09 106.11 724.68 209.8 619.79 107.39 516.19" fill="url(#Névtelen_színátmenet_7)"/><polygon points="876.8 253.55 770.56 361.03 876.8 468.51 983.05 361.03 876.8 253.55" fill="url(#Névtelen_színátmenet_45)"/><polygon points="274.22 50.92 208.94 116.97 274.22 183.01 339.5 116.97 274.22 50.92" fill="url(#Névtelen_színátmenet_7-2)"/><polygon points="685.4 60.38 508.59 239.25 685.24 417.95 862.05 239.08 685.4 60.38" fill="#fff"/><polygon points="167.82 603.18 105.09 666.64 167.82 730.09 230.54 666.64 167.82 603.18" fill="url(#Névtelen_színátmenet_45-2)"/><polygon points="393.7 569.2 328.42 635.25 393.7 701.29 458.98 635.25 393.7 569.2" fill="url(#Névtelen_színátmenet_7-3)"/><polygon points="108.35 443.8 58.42 494.31 107.07 543.51 156.99 493.01 108.35 443.8" fill="url(#Névtelen_színátmenet_41-4)"/><polygon points="168.93 732.38 120.28 781.59 168.93 830.8 217.57 781.59 168.93 732.38" fill="url(#Névtelen_színátmenet_41-5)"/><polygon points="595.31 293.63 545.39 344.13 594.03 393.34 643.95 342.84 595.31 293.63" fill="url(#Névtelen_színátmenet_41-6)"/><polygon points="819.82 244.87 757.94 307.49 819.38 369.64 881.26 307.03 819.82 244.87" fill="url(#Névtelen_színátmenet_66-3)"/><g opacity="0.7"><path d="M3209.61-7468.59a3.24,3.24,0,0,0-1-2.31,3.19,3.19,0,0,0-4.56,0l-226.87,229.51a3.3,3.3,0,0,0,0,4.62,3.22,3.22,0,0,0,4.57,0l226.86-229.52A3.21,3.21,0,0,0,3209.61-7468.59Z" transform="translate(-2712 7917.07)" fill="#fff"/><path d="M3226-7452a3.29,3.29,0,0,0-.94-2.31,3.21,3.21,0,0,0-4.56,0l-226.87,229.52a3.28,3.28,0,0,0,0,4.61,3.19,3.19,0,0,0,4.56,0l226.87-229.51A3.27,3.27,0,0,0,3226-7452Z" transform="translate(-2712 7917.07)" fill="#fff"/><path d="M3242.38-7435.44a3.28,3.28,0,0,0-1-2.31,3.19,3.19,0,0,0-4.56,0L3010-7208.24a3.3,3.3,0,0,0,0,4.62,3.21,3.21,0,0,0,4.56,0l226.87-229.52A3.26,3.26,0,0,0,3242.38-7435.44Z" transform="translate(-2712 7917.07)" fill="#fff"/><path d="M3258.76-7418.87a3.29,3.29,0,0,0-.94-2.31,3.21,3.21,0,0,0-4.56,0l-226.87,229.52a3.28,3.28,0,0,0,0,4.61,3.19,3.19,0,0,0,4.56,0l226.87-229.51A3.27,3.27,0,0,0,3258.76-7418.87Z" transform="translate(-2712 7917.07)" fill="#fff"/><path d="M3275.15-7402.29a3.28,3.28,0,0,0-1-2.31,3.19,3.19,0,0,0-4.56,0l-226.87,229.51a3.3,3.3,0,0,0,0,4.62,3.21,3.21,0,0,0,4.56,0L3274.2-7400A3.3,3.3,0,0,0,3275.15-7402.29Z" transform="translate(-2712 7917.07)" fill="#fff"/><path d="M3291.53-7385.72a3.29,3.29,0,0,0-.94-2.31,3.22,3.22,0,0,0-4.57,0l-226.87,229.52a3.28,3.28,0,0,0,0,4.61,3.2,3.2,0,0,0,4.57,0l226.87-229.51A3.27,3.27,0,0,0,3291.53-7385.72Z" transform="translate(-2712 7917.07)" fill="#fff"/><path d="M3307.91-7369.14a3.27,3.27,0,0,0-.94-2.31,3.19,3.19,0,0,0-4.56,0l-226.87,229.51a3.3,3.3,0,0,0,0,4.62,3.21,3.21,0,0,0,4.56,0L3307-7366.84A3.25,3.25,0,0,0,3307.91-7369.14Z" transform="translate(-2712 7917.07)" fill="#fff"/><path d="M3324.3-7352.57a3.3,3.3,0,0,0-1-2.31,3.21,3.21,0,0,0-4.56,0l-226.87,229.52a3.28,3.28,0,0,0,0,4.61,3.2,3.2,0,0,0,4.57,0l226.86-229.51A3.28,3.28,0,0,0,3324.3-7352.57Z" transform="translate(-2712 7917.07)" fill="#fff"/><path d="M3340.68-7336a3.27,3.27,0,0,0-.94-2.31,3.19,3.19,0,0,0-4.56,0l-226.87,229.51a3.3,3.3,0,0,0,0,4.62,3.21,3.21,0,0,0,4.56,0l226.87-229.52A3.25,3.25,0,0,0,3340.68-7336Z" transform="translate(-2712 7917.07)" fill="#fff"/><path d="M3357.07-7319.42a3.3,3.3,0,0,0-1-2.31,3.21,3.21,0,0,0-4.56,0l-226.87,229.52a3.28,3.28,0,0,0,0,4.61,3.19,3.19,0,0,0,4.56,0l226.87-229.51A3.28,3.28,0,0,0,3357.07-7319.42Z" transform="translate(-2712 7917.07)" fill="#fff"/><path d="M3373.45-7302.84a3.27,3.27,0,0,0-.94-2.31,3.19,3.19,0,0,0-4.56,0l-226.88,229.51a3.3,3.3,0,0,0,0,4.62,3.22,3.22,0,0,0,4.57,0l226.87-229.51A3.29,3.29,0,0,0,3373.45-7302.84Z" transform="translate(-2712 7917.07)" fill="#fff"/><path d="M3389.84-7286.27a3.26,3.26,0,0,0-1-2.3,3.19,3.19,0,0,0-4.56,0l-226.87,229.51a3.28,3.28,0,0,0,0,4.61,3.19,3.19,0,0,0,4.56,0L3388.89-7284A3.28,3.28,0,0,0,3389.84-7286.27Z" transform="translate(-2712 7917.07)" fill="#fff"/><path d="M3406.22-7269.69a3.28,3.28,0,0,0-.95-2.31,3.19,3.19,0,0,0-4.56,0l-226.87,229.51a3.3,3.3,0,0,0,0,4.62,3.22,3.22,0,0,0,4.57,0l226.86-229.52A3.26,3.26,0,0,0,3406.22-7269.69Z" transform="translate(-2712 7917.07)" fill="#fff"/><path d="M3422.6-7253.12a3.29,3.29,0,0,0-.94-2.31,3.21,3.21,0,0,0-4.56,0l-226.87,229.52a3.28,3.28,0,0,0,0,4.61,3.19,3.19,0,0,0,4.56,0l226.87-229.51A3.27,3.27,0,0,0,3422.6-7253.12Z" transform="translate(-2712 7917.07)" fill="#fff"/><path d="M3439-7236.54a3.28,3.28,0,0,0-.95-2.31,3.19,3.19,0,0,0-4.56,0l-226.87,229.51a3.3,3.3,0,0,0,0,4.62,3.21,3.21,0,0,0,4.56,0L3438-7234.23A3.3,3.3,0,0,0,3439-7236.54Z" transform="translate(-2712 7917.07)" fill="#fff"/></g><path d="M3699-7906l-241.31,244.12a3.83,3.83,0,0,1-5.47,0,3.93,3.93,0,0,1,0-5.52L3699-7917.07Z" transform="translate(-2712 7917.07)" fill="#fff"/><path d="M3699-7866.3,3477.31-7642a3.82,3.82,0,0,1-5.46,0,3.94,3.94,0,0,1,0-5.53L3699-7877.36Z" transform="translate(-2712 7917.07)" fill="#fff"/><path d="M3699-7826.59l-202.06,204.41a3.83,3.83,0,0,1-5.47,0,3.94,3.94,0,0,1,0-5.53L3699-7837.65Z" transform="translate(-2712 7917.07)" fill="#fff"/><path d="M3699-7786.89l-182.44,184.57a3.82,3.82,0,0,1-5.46,0,3.94,3.94,0,0,1,0-5.53L3699-7797.94Z" transform="translate(-2712 7917.07)" fill="#fff"/><path d="M3699-7747.18l-162.81,164.71a3.83,3.83,0,0,1-5.47,0,3.94,3.94,0,0,1,0-5.53L3699-7758.24Z" transform="translate(-2712 7917.07)" fill="#fff"/><path d="M3699-7707.47l-143.19,144.85a3.82,3.82,0,0,1-5.46,0,3.94,3.94,0,0,1,0-5.53L3699-7718.53Z" transform="translate(-2712 7917.07)" fill="#fff"/><path d="M3699-7667.76l-123.56,125a3.85,3.85,0,0,1-5.47,0,3.94,3.94,0,0,1,0-5.53l129-130.53Z" transform="translate(-2712 7917.07)" fill="#fff"/><path d="M3699-7628.06l-103.94,105.15a3.82,3.82,0,0,1-5.46,0,3.94,3.94,0,0,1,0-5.53L3699-7639.11Z" transform="translate(-2712 7917.07)" fill="#fff"/><path d="M3699-7588.35l-84.31,85.3a3.85,3.85,0,0,1-5.47,0,3.94,3.94,0,0,1,0-5.53L3699-7599.4Z" transform="translate(-2712 7917.07)" fill="#fff"/><path d="M3699-7548.64l-64.68,65.44a3.83,3.83,0,0,1-5.47,0,3.94,3.94,0,0,1,0-5.53l70.15-71Z" transform="translate(-2712 7917.07)" fill="#fff"/><path d="M3699-7508.93l-45.06,45.59a3.85,3.85,0,0,1-5.47,0,3.94,3.94,0,0,1,0-5.53L3699-7520Z" transform="translate(-2712 7917.07)" fill="#fff"/><path d="M3699-7469.22l-25.44,25.73a3.82,3.82,0,0,1-5.46,0,3.94,3.94,0,0,1,0-5.53l30.9-31.26Z" transform="translate(-2712 7917.07)" fill="#fff"/><path d="M3699-7429.51l-5.81,5.87a3.82,3.82,0,0,1-5.46,0,3.94,3.94,0,0,1,0-5.53l11.27-11.4Z" transform="translate(-2712 7917.07)" fill="#fff"/><path d="M2712-7432l241.31-244.13a3.83,3.83,0,0,1,5.47,0,3.94,3.94,0,0,1,0,5.53L2712-7421Z" transform="translate(-2712 7917.07)" fill="#fff"/><path d="M2712-7471.74,2933.69-7696a3.84,3.84,0,0,1,5.46,0,3.94,3.94,0,0,1,0,5.53L2712-7460.69Z" transform="translate(-2712 7917.07)" fill="#fff"/><path d="M2712-7511.45l202.06-204.42a3.85,3.85,0,0,1,5.47,0,3.94,3.94,0,0,1,0,5.53L2712-7500.39Z" transform="translate(-2712 7917.07)" fill="#fff"/><path d="M2712-7551.16l182.44-184.57a3.84,3.84,0,0,1,5.46,0,3.94,3.94,0,0,1,0,5.53L2712-7540.1Z" transform="translate(-2712 7917.07)" fill="#fff"/><path d="M2712-7590.87l162.81-164.71a3.83,3.83,0,0,1,5.47,0,3.94,3.94,0,0,1,0,5.53L2712-7579.81Z" transform="translate(-2712 7917.07)" fill="#fff"/><path d="M2712-7630.58l143.19-144.85a3.82,3.82,0,0,1,5.46,0,3.94,3.94,0,0,1,0,5.53L2712-7619.52Z" transform="translate(-2712 7917.07)" fill="#fff"/><path d="M2712-7670.28l123.56-125a3.83,3.83,0,0,1,5.47,0,3.93,3.93,0,0,1,0,5.52l-129,130.53Z" transform="translate(-2712 7917.07)" fill="#fff"/><path d="M2712-7710l103.94-105.15a3.82,3.82,0,0,1,5.46,0,3.94,3.94,0,0,1,0,5.53L2712-7698.93Z" transform="translate(-2712 7917.07)" fill="#fff"/><path d="M2712-7749.7l84.31-85.29a3.83,3.83,0,0,1,5.47,0,3.94,3.94,0,0,1,0,5.53L2712-7738.64Z" transform="translate(-2712 7917.07)" fill="#fff"/><path d="M2712-7789.41l64.68-65.44a3.83,3.83,0,0,1,5.47,0,3.94,3.94,0,0,1,0,5.53l-70.15,71Z" transform="translate(-2712 7917.07)" fill="#fff"/><path d="M2712-7829.12l45.06-45.58a3.83,3.83,0,0,1,5.47,0,3.94,3.94,0,0,1,0,5.53L2712-7818.06Z" transform="translate(-2712 7917.07)" fill="#fff"/><path d="M2712-7868.82l25.44-25.74a3.84,3.84,0,0,1,5.46,0,3.94,3.94,0,0,1,0,5.53l-30.9,31.26Z" transform="translate(-2712 7917.07)" fill="#fff"/><path d="M2712-7908.53l5.81-5.88a3.82,3.82,0,0,1,5.46,0,3.94,3.94,0,0,1,0,5.53l-11.27,11.4Z" transform="translate(-2712 7917.07)" fill="#fff"/></g></g></svg>