<?xml version="1.0"?>
<svg xmlns="http://www.w3.org/2000/svg" xmlns:xlink="http://www.w3.org/1999/xlink" version="1.1" id="Capa_1" x="0px" y="0px" viewBox="0 0 512.004 512.004" style="enable-background:new 0 0 512.004 512.004;" xml:space="preserve" width="512px" height="512px" class=""><g><g transform="translate(1)">
	<g>
		<g>
			<path d="M510.795,421.404c-0.922-8.437-5.14-15.974-11.878-21.196l-98.669-76.264c-16.772-12.943-39.402-14.479-57.71-3.891     l-18.145,10.485c-11.059,6.369-24.739,5.529-34.856-2.294c-14.663-11.284-36.555-29.142-57.506-50.113     c-20.786-20.807-38.317-42.289-49.355-56.645c-7.741-10.055-8.601-23.715-2.212-34.794l10.485-18.186     c10.588-18.349,9.072-41.02-3.871-57.731l-76.285-98.669C105.593,5.369,98.098,1.151,89.64,0.209     c-8.458-0.983-16.711,1.536-23.244,6.942c-16.752,13.823-38.276,31.886-45.75,39.381C5.491,61.687-0.98,81.532-0.98,112.947     c0,36.637,67.254,172.906,148.249,250.522c77.882,81.302,214.151,148.536,250.829,148.536c31.395,0,51.239-6.471,66.353-21.626     c8.089-8.069,28.159-32.152,39.381-45.75C509.259,438.074,511.716,429.841,510.795,421.404z M488.063,431.582     c-18.738,22.711-32.603,38.869-38.071,44.337c-8.089,8.11-19.988,15.605-51.915,15.605c-28.118,0-160.209-63.055-236.35-142.535     C82.575,273.114,19.499,141.064,19.499,112.947c0-31.927,7.495-43.825,15.626-51.935c5.406-5.407,21.135-18.923,44.317-38.071     c1.925-1.597,4.28-2.437,6.738-2.437c0.389,0,0.799,0.021,1.188,0.061c2.888,0.328,5.448,1.761,7.229,4.075l76.285,98.648     c7.823,10.137,8.745,23.858,2.335,34.978l-10.485,18.185c-10.547,18.267-9.093,40.856,3.707,57.506     c11.407,14.847,29.531,37.067,51.116,58.652c21.728,21.728,44.358,40.221,59.492,51.853c16.629,12.861,39.259,14.417,57.587,3.83     c0-0.021,0-0.021,0-0.021l18.145-10.485c11.1-6.41,24.841-5.448,34.958,2.376l98.648,76.244c2.294,1.782,3.727,4.362,4.055,7.25     C490.766,426.544,489.926,429.35,488.063,431.582z" data-original="#000000" class="active-path" data-old_color="#ffffff" fill="#ffffff"/>
			<path d="M354.313,40.348c54.188,19.783,96.58,62.175,116.342,116.363c1.515,4.157,5.447,6.738,9.625,6.738     c1.167,0,2.335-0.205,3.482-0.635c5.325-1.945,8.069-7.803,6.123-13.127c-21.81-59.861-68.667-106.737-128.568-128.568     c-5.243-1.925-11.182,0.819-13.127,6.103C346.244,32.525,348.989,38.402,354.313,40.348z" data-original="#000000" class="active-path" data-old_color="#ffffff" fill="#ffffff"/>
			<path d="M326.277,117.37c31.005,11.202,56.174,36.391,67.356,67.376c1.536,4.178,5.447,6.758,9.646,6.758     c1.167,0,2.335-0.184,3.481-0.594c5.325-1.925,8.089-7.782,6.164-13.107c-13.25-36.637-43.027-66.434-79.685-79.684     c-5.284-1.946-11.182,0.819-13.127,6.144C318.188,109.588,320.953,115.445,326.277,117.37z" data-original="#000000" class="active-path" data-old_color="#ffffff" fill="#ffffff"/>
			<path d="M298.282,194.372c8.581,3.072,15.298,9.789,18.37,18.39c1.516,4.198,5.448,6.799,9.646,6.799     c1.126,0,2.294-0.184,3.44-0.614c5.345-1.905,8.11-7.762,6.205-13.086c-5.14-14.397-16.363-25.619-30.78-30.76     c-5.304-1.925-11.161,0.881-13.086,6.185C290.172,186.61,292.937,192.467,298.282,194.372z" data-original="#000000" class="active-path" data-old_color="#ffffff" fill="#ffffff"/>
		</g>
	</g>
</g></g> </svg>
