<?xml version="1.0" encoding="utf-8"?>
<!-- Generator: Adobe Illustrator 22.0.0, SVG Export Plug-In . SVG Version: 6.00 Build 0)  -->
<svg version="1.1"
	 id="Layer_1" xmlns:cc="http://creativecommons.org/ns#" xmlns:dc="http://purl.org/dc/elements/1.1/" xmlns:inkscape="http://www.inkscape.org/namespaces/inkscape" xmlns:rdf="http://www.w3.org/1999/02/22-rdf-syntax-ns#" xmlns:sodipodi="http://sodipodi.sourceforge.net/DTD/sodipodi-0.dtd" xmlns:svg="http://www.w3.org/2000/svg"
	 xmlns="http://www.w3.org/2000/svg" xmlns:xlink="http://www.w3.org/1999/xlink" x="0px" y="0px" viewBox="0 0 300 300"
	 style="enable-background:new 0 0 300 300;" xml:space="preserve">
<style type="text/css">
	.st0{fill:#BC0000;}
</style>
<g transform="translate(0,-952.36218)">
	<path class="st0" d="M150,970.4c-72.8,0-132,59.2-132,132c0,72.8,59.2,132,132,132c72.8,0,132-59.2,132-132
		C282,1029.5,222.8,970.4,150,970.4z M150,982.4c66.4,0,120,53.6,120,120c0,66.3-53.6,120-120,120c-66.3,0-120-53.7-120-120
		C30,1036,83.7,982.4,150,982.4z"/>
	<path class="st0" d="M104.3,1051.3c-3.3,0.3-5.7,3.3-5.4,6.6c0.1,1.4,0.8,2.8,1.8,3.8l40.7,40.8l-40.7,40.7c-2.4,2.4-2.4,6.2,0,8.5
		c2.4,2.4,6.2,2.4,8.5,0l0,0l40.8-40.8l40.7,40.8c2.4,2.4,6.2,2.4,8.5,0c2.4-2.4,2.4-6.2,0-8.5l0,0l-40.8-40.7l40.8-40.8
		c2.4-2.3,2.5-6.1,0.1-8.5c-1.2-1.2-2.8-1.9-4.6-1.8c-1.6,0-3,0.7-4.1,1.8l-40.7,40.7l-40.8-40.7c-1.1-1.2-2.7-1.8-4.3-1.8
		C104.7,1051.3,104.5,1051.3,104.3,1051.3z"/>
</g>
</svg>
