<svg id="Layer_1" data-name="Layer 1" xmlns="http://www.w3.org/2000/svg" width="542" height="81" viewBox="0 0 542 81"><rect y="-1" width="562" height="81" fill="#fff"/><ellipse cx="491.01" cy="42.3" rx="12.22" ry="12.75" fill="#efefef"/><path d="M429.88,29.55A12.49,12.49,0,0,0,417.66,42.3a12.24,12.24,0,1,0,24.45,0A12.5,12.5,0,0,0,429.88,29.55Z" fill="#efefef"/><path d="M368.76,29.55A12.5,12.5,0,0,0,356.53,42.3a12.24,12.24,0,1,0,24.45,0A12.49,12.49,0,0,0,368.76,29.55Z" fill="#efefef"/><path d="M307.63,29.55A12.49,12.49,0,0,0,295.41,42.3a12.23,12.23,0,1,0,24.44,0A12.49,12.49,0,0,0,307.63,29.55Z" fill="#efefef"/><path d="M246.5,29.55A12.49,12.49,0,0,0,234.28,42.3a12.23,12.23,0,1,0,24.44,0A12.49,12.49,0,0,0,246.5,29.55Z" fill="#efefef"/><ellipse cx="185.37" cy="42.3" rx="12.22" ry="12.75" fill="#efefef"/><ellipse cx="124.24" cy="42.3" rx="12.22" ry="12.75" fill="#efefef"/><path d="M63.12,29.55A12.5,12.5,0,0,0,50.89,42.3a12.24,12.24,0,1,0,24.45,0A12.49,12.49,0,0,0,63.12,29.55Z" fill="#efefef"/></svg>